<svg xmlns="http://www.w3.org/2000/svg" xmlns:xlink="http://www.w3.org/1999/xlink" preserveAspectRatio="xMidYMid meet" width="2000" height="2000" viewBox="0 0 2000 2000" style="width:100%;height:100%"><defs><animateMotion repeatCount="indefinite" dur="4.004004s" begin="0s" xlink:href="#_R_G_L_4_G_L_10_G" fill="freeze" keyTimes="0;0.3916667;0.9916667;1" path="M845.25 426.58 C845.25,426.58 725.25,382.58 725.25,382.58 C725.25,382.58 845.25,426.58 845.25,426.58 C845.25,426.58 845.25,426.58 845.25,426.58 " keyPoints="0;0.5;1;1" keySplines="0.333 0 0.667 1;0.333 0 0.667 1;0 0 0 0" calcMode="spline"/><animateTransform repeatCount="indefinite" dur="4.004004s" begin="0s" xlink:href="#_R_G_L_4_G_L_10_G" fill="freeze" attributeName="transform" from="-845.246 -426.575" to="-845.246 -426.575" type="translate" additive="sum" keyTimes="0;1" values="-845.246 -426.575;-845.246 -426.575" keySplines="0 0 1 1" calcMode="spline"/><animateMotion repeatCount="indefinite" dur="4.004004s" begin="0s" xlink:href="#_R_G_L_4_G_L_9_G" fill="freeze" keyTimes="0;0.6333333;0.9916667;1" path="M1029.29 1356.9 C1029.29,1356.9 865.29,1300.9 865.29,1300.9 C865.29,1300.9 1029.29,1356.9 1029.29,1356.9 C1029.29,1356.9 1029.29,1356.9 1029.29,1356.9 " keyPoints="0;0.5;1;1" keySplines="0.333 0 0.667 1;0.333 0 0.667 1;0 0 0 0" calcMode="spline"/><animateTransform repeatCount="indefinite" dur="4.004004s" begin="0s" xlink:href="#_R_G_L_4_G_L_9_G" fill="freeze" attributeName="transform" from="-1029.29 -1356.898" to="-1029.29 -1356.898" type="translate" additive="sum" keyTimes="0;1" values="-1029.29 -1356.898;-1029.29 -1356.898" keySplines="0 0 1 1" calcMode="spline"/><animateTransform repeatCount="indefinite" dur="4.004004s" begin="0s" xlink:href="#_R_G_L_4_G_L_8_G" fill="freeze" attributeName="transform" from="0" to="180" type="rotate" additive="sum" keyTimes="0;0.9916667;1" values="0;180;180" keySplines="0.333 0 0.667 1;0 0 0 0" calcMode="spline"/><animateTransform repeatCount="indefinite" dur="4.004004s" begin="0s" xlink:href="#_R_G_L_4_G_L_8_G" fill="freeze" attributeName="transform" from="-868.608 -1317.626" to="-868.608 -1317.626" type="translate" additive="sum" keyTimes="0;1" values="-868.608 -1317.626;-868.608 -1317.626" keySplines="0 0 1 1" calcMode="spline"/><animateTransform repeatCount="indefinite" dur="4.004004s" begin="0s" xlink:href="#_R_G_L_4_G_L_7_G" fill="freeze" attributeName="transform" from="0" to="180" type="rotate" additive="sum" keyTimes="0;0.9916667;1" values="0;180;180" keySplines="0.333 0 0.667 1;0 0 0 0" calcMode="spline"/><animateTransform repeatCount="indefinite" dur="4.004004s" begin="0s" xlink:href="#_R_G_L_4_G_L_7_G" fill="freeze" attributeName="transform" from="-732.26 -390.728" to="-732.26 -390.728" type="translate" additive="sum" keyTimes="0;1" values="-732.26 -390.728;-732.26 -390.728" keySplines="0 0 1 1" calcMode="spline"/><animate repeatCount="indefinite" dur="4.004004s" begin="0s" xlink:href="#_R_G_L_4_G_L_6_G" fill="freeze" attributeName="opacity" from="0" to="0" keyTimes="0;0.5;0.9916667;1" values="0;1;0;0" keySplines="0.333 0 0.667 1;0.333 0 0.667 1;0 0 0 0" calcMode="spline"/><animateTransform repeatCount="indefinite" dur="4.004004s" begin="0s" xlink:href="#_R_G_L_4_G_L_5_G" fill="freeze" attributeName="transform" from="0" to="0" type="rotate" additive="sum" keyTimes="0;0.5;0.9916667;1" values="0;33;0;0" keySplines="0.333 0 0.667 1;0.333 0 0.667 1;0 0 0 0" calcMode="spline"/><animateTransform repeatCount="indefinite" dur="4.004004s" begin="0s" xlink:href="#_R_G_L_4_G_L_5_G" fill="freeze" attributeName="transform" from="-1554.066 -406.166" to="-1554.066 -406.166" type="translate" additive="sum" keyTimes="0;1" values="-1554.066 -406.166;-1554.066 -406.166" keySplines="0 0 1 1" calcMode="spline"/><animateTransform repeatCount="indefinite" dur="4.004004s" begin="0s" xlink:href="#_R_G_L_4_G_L_4_G" fill="freeze" attributeName="transform" from="0" to="0" type="rotate" additive="sum" keyTimes="0;0.5;0.9916667;1" values="0;-24;0;0" keySplines="0.333 0 0.667 1;0.333 0 0.667 1;0 0 0 0" calcMode="spline"/><animateTransform repeatCount="indefinite" dur="4.004004s" begin="0s" xlink:href="#_R_G_L_4_G_L_4_G" fill="freeze" attributeName="transform" from="-1406.28 -521.65" to="-1406.28 -521.65" type="translate" additive="sum" keyTimes="0;1" values="-1406.28 -521.65;-1406.28 -521.65" keySplines="0 0 1 1" calcMode="spline"/><animateTransform repeatCount="indefinite" dur="4.004004s" begin="0s" xlink:href="#_R_G_L_4_G_L_3_G" fill="freeze" attributeName="transform" from="0" to="0" type="rotate" additive="sum" keyTimes="0;0.5;0.9916667;1" values="0;31;0;0" keySplines="0.333 0 0.667 1;0.333 0 0.667 1;0 0 0 0" calcMode="spline"/><animateTransform repeatCount="indefinite" dur="4.004004s" begin="0s" xlink:href="#_R_G_L_4_G_L_3_G" fill="freeze" attributeName="transform" from="-1543.703 -554.676" to="-1543.703 -554.676" type="translate" additive="sum" keyTimes="0;1" values="-1543.703 -554.676;-1543.703 -554.676" keySplines="0 0 1 1" calcMode="spline"/><animateTransform repeatCount="indefinite" dur="4.004004s" begin="0s" xlink:href="#_R_G_L_4_G_L_2_G" fill="freeze" attributeName="transform" from="2 2" to="2 2" type="scale" additive="sum" keyTimes="0;0.5;0.9916667;1" values="2 2;1 1;2 2;2 2" keySplines="0.167 0.167 0.833 0.833;0.167 0.167 0.833 0.833;0 0 0 0" calcMode="spline"/><animateTransform repeatCount="indefinite" dur="4.004004s" begin="0s" xlink:href="#_R_G_L_4_G_L_2_G" fill="freeze" attributeName="transform" from="-1380.844 -402.323" to="-1380.844 -402.323" type="translate" additive="sum" keyTimes="0;1" values="-1380.844 -402.323;-1380.844 -402.323" keySplines="0 0 1 1" calcMode="spline"/><animateTransform repeatCount="indefinite" dur="4.004004s" begin="0s" xlink:href="#_R_G_L_4_G_L_1_G" fill="freeze" attributeName="transform" from="1 1" to="1 1" type="scale" additive="sum" keyTimes="0;0.5;0.9916667;1" values="1 1;1.32 1.32;1 1;1 1" keySplines="0.167 0.167 0.833 0.833;0.167 0.167 0.833 0.833;0 0 0 0" calcMode="spline"/><animateTransform repeatCount="indefinite" dur="4.004004s" begin="0s" xlink:href="#_R_G_L_4_G_L_1_G" fill="freeze" attributeName="transform" from="-1431.222 -301.325" to="-1431.222 -301.325" type="translate" additive="sum" keyTimes="0;1" values="-1431.222 -301.325;-1431.222 -301.325" keySplines="0 0 1 1" calcMode="spline"/><animateTransform repeatCount="indefinite" dur="4.004004s" begin="0s" xlink:href="#_R_G_L_4_G_L_0_G" fill="freeze" attributeName="transform" from="1 1" to="1 1" type="scale" additive="sum" keyTimes="0;0.5;0.9916667;1" values="1 1;1.59 1.59;1 1;1 1" keySplines="0.167 0.167 0.833 0.833;0.167 0.167 0.833 0.833;0 0 0 0" calcMode="spline"/><animateTransform repeatCount="indefinite" dur="4.004004s" begin="0s" xlink:href="#_R_G_L_4_G_L_0_G" fill="freeze" attributeName="transform" from="-1628.459 -613.629" to="-1628.459 -613.629" type="translate" additive="sum" keyTimes="0;1" values="-1628.459 -613.629;-1628.459 -613.629" keySplines="0 0 1 1" calcMode="spline"/><animateTransform repeatCount="indefinite" dur="4.004004s" begin="0s" xlink:href="#_R_G_L_3_G_L_9_G" fill="freeze" attributeName="transform" from="0.7000000000000001 1" to="0.7000000000000001 1" type="scale" additive="sum" keyTimes="0;0.5;0.9916667;1" values="0.7000000000000001 1;1 1;0.7000000000000001 1;0.7000000000000001 1" keySplines="0.167 0.167 0.833 0.833;0.167 0.167 0.833 0.833;0 0 0 0" calcMode="spline"/><animateTransform repeatCount="indefinite" dur="4.004004s" begin="0s" xlink:href="#_R_G_L_3_G_L_9_G" fill="freeze" attributeName="transform" from="-1005.503 -665.357" to="-1005.503 -665.357" type="translate" additive="sum" keyTimes="0;1" values="-1005.503 -665.357;-1005.503 -665.357" keySplines="0 0 1 1" calcMode="spline"/><animateTransform repeatCount="indefinite" dur="4.004004s" begin="0s" xlink:href="#_R_G_L_3_G_L_8_G" fill="freeze" attributeName="transform" from="0.66 1" to="0.66 1" type="scale" additive="sum" keyTimes="0;0.5;0.9916667;1" values="0.66 1;1.12 1;0.66 1;0.66 1" keySplines="0.167 0.167 0.833 0.833;0.167 0.167 0.833 0.833;0 0 0 0" calcMode="spline"/><animateTransform repeatCount="indefinite" dur="4.004004s" begin="0s" xlink:href="#_R_G_L_3_G_L_8_G" fill="freeze" attributeName="transform" from="-1005.503 -720.357" to="-1005.503 -720.357" type="translate" additive="sum" keyTimes="0;1" values="-1005.503 -720.357;-1005.503 -720.357" keySplines="0 0 1 1" calcMode="spline"/><animateTransform repeatCount="indefinite" dur="4.004004s" begin="0s" xlink:href="#_R_G_L_3_G_L_7_G" fill="freeze" attributeName="transform" from="1 0.08" to="1 0.08" type="scale" additive="sum" keyTimes="0;0.5;0.9916667;1" values="1 0.08;1 0.6900000000000001;1 0.08;1 0.08" keySplines="0.167 0.167 0.833 0.833;0.167 0.167 0.833 0.833;0 0 0 0" calcMode="spline"/><animateTransform repeatCount="indefinite" dur="4.004004s" begin="0s" xlink:href="#_R_G_L_3_G_L_7_G" fill="freeze" attributeName="transform" from="-597.503 -1244.944" to="-597.503 -1244.944" type="translate" additive="sum" keyTimes="0;1" values="-597.503 -1244.944;-597.503 -1244.944" keySplines="0 0 1 1" calcMode="spline"/><animateTransform repeatCount="indefinite" dur="4.004004s" begin="0s" xlink:href="#_R_G_L_3_G_L_6_G" fill="freeze" attributeName="transform" from="1 0.73" to="1 0.73" type="scale" additive="sum" keyTimes="0;0.5;0.9916667;1" values="1 0.73;1 0.9;1 0.73;1 0.73" keySplines="0.167 0.167 0.833 0.833;0.167 0.167 0.833 0.833;0 0 0 0" calcMode="spline"/><animateTransform repeatCount="indefinite" dur="4.004004s" begin="0s" xlink:href="#_R_G_L_3_G_L_6_G" fill="freeze" attributeName="transform" from="-733.503 -1245.93" to="-733.503 -1245.93" type="translate" additive="sum" keyTimes="0;1" values="-733.503 -1245.93;-733.503 -1245.93" keySplines="0 0 1 1" calcMode="spline"/><animateTransform repeatCount="indefinite" dur="4.004004s" begin="0s" xlink:href="#_R_G_L_3_G_L_5_G" fill="freeze" attributeName="transform" from="1 1.1" to="1 1.1" type="scale" additive="sum" keyTimes="0;0.5;0.9916667;1" values="1 1.1;1 0.9;1 1.1;1 1.1" keySplines="0.167 0.167 0.833 0.833;0.167 0.167 0.833 0.833;0 0 0 0" calcMode="spline"/><animateTransform repeatCount="indefinite" dur="4.004004s" begin="0s" xlink:href="#_R_G_L_3_G_L_5_G" fill="freeze" attributeName="transform" from="-868.503 -1244.894" to="-868.503 -1244.894" type="translate" additive="sum" keyTimes="0;1" values="-868.503 -1244.894;-868.503 -1244.894" keySplines="0 0 1 1" calcMode="spline"/><animateTransform repeatCount="indefinite" dur="4.004004s" begin="0s" xlink:href="#_R_G_L_3_G_L_4_G" fill="freeze" attributeName="transform" from="1 0.71" to="1 0.71" type="scale" additive="sum" keyTimes="0;0.5;0.9916667;1" values="1 0.71;1 1;1 0.71;1 0.71" keySplines="0.167 0.167 0.833 0.833;0.167 0.167 0.833 0.833;0 0 0 0" calcMode="spline"/><animateTransform repeatCount="indefinite" dur="4.004004s" begin="0s" xlink:href="#_R_G_L_3_G_L_4_G" fill="freeze" attributeName="transform" from="-1005.503 -1249.395" to="-1005.503 -1249.395" type="translate" additive="sum" keyTimes="0;1" values="-1005.503 -1249.395;-1005.503 -1249.395" keySplines="0 0 1 1" calcMode="spline"/><animateTransform repeatCount="indefinite" dur="4.004004s" begin="0s" xlink:href="#_R_G_L_3_G_L_3_G" fill="freeze" attributeName="transform" from="1 0.76" to="1 0.76" type="scale" additive="sum" keyTimes="0;0.5;0.9916667;1" values="1 0.76;1 0.88;1 0.76;1 0.76" keySplines="0.167 0.167 0.833 0.833;0.167 0.167 0.833 0.833;0 0 0 0" calcMode="spline"/><animateTransform repeatCount="indefinite" dur="4.004004s" begin="0s" xlink:href="#_R_G_L_3_G_L_3_G" fill="freeze" attributeName="transform" from="-1140.503 -1245.214" to="-1140.503 -1245.214" type="translate" additive="sum" keyTimes="0;1" values="-1140.503 -1245.214;-1140.503 -1245.214" keySplines="0 0 1 1" calcMode="spline"/><animateTransform repeatCount="indefinite" dur="4.004004s" begin="0s" xlink:href="#_R_G_L_3_G_L_2_G" fill="freeze" attributeName="transform" from="1 0.47000000000000003" to="1 0.47000000000000003" type="scale" additive="sum" keyTimes="0;0.5;0.9916667;1" values="1 0.47000000000000003;1 0.91;1 0.47000000000000003;1 0.47000000000000003" keySplines="0.167 0.167 0.833 0.833;0.167 0.167 0.833 0.833;0 0 0 0" calcMode="spline"/><animateTransform repeatCount="indefinite" dur="4.004004s" begin="0s" xlink:href="#_R_G_L_3_G_L_2_G" fill="freeze" attributeName="transform" from="-1275.503 -1246.339" to="-1275.503 -1246.339" type="translate" additive="sum" keyTimes="0;1" values="-1275.503 -1246.339;-1275.503 -1246.339" keySplines="0 0 1 1" calcMode="spline"/><animateTransform repeatCount="indefinite" dur="4.004004s" begin="0s" xlink:href="#_R_G_L_3_G_L_1_G" fill="freeze" attributeName="transform" from="1 0.55" to="1 0.55" type="scale" additive="sum" keyTimes="0;0.5;0.9916667;1" values="1 0.55;1 1.02;1 0.55;1 0.55" keySplines="0.167 0.167 0.833 0.833;0.167 0.167 0.833 0.833;0 0 0 0" calcMode="spline"/><animateTransform repeatCount="indefinite" dur="4.004004s" begin="0s" xlink:href="#_R_G_L_3_G_L_1_G" fill="freeze" attributeName="transform" from="-1408.503 -1245.589" to="-1408.503 -1245.589" type="translate" additive="sum" keyTimes="0;1" values="-1408.503 -1245.589;-1408.503 -1245.589" keySplines="0 0 1 1" calcMode="spline"/><animate repeatCount="indefinite" dur="4.004004s" begin="0s" xlink:href="#_R_G_L_3_G_L_0_G_D_0_P_0" fill="freeze" attributeName="d" attributeType="XML" from="M-408 238 C-408,238 -265,83.5 -265,83.5 C-265,83.5 -129,-194 -129,-194 C-129,-194 5.5,59 5.5,59 C5.5,59 139.5,-60 139.5,-60 C139.5,-60 278,74.5 278,74.5 C278,74.5 414.5,-49.5 414.5,-49.5 " to="M-408 238 C-408,238 -265,83.5 -265,83.5 C-265,83.5 -129,-194 -129,-194 C-129,-194 5.5,59 5.5,59 C5.5,59 139.5,-60 139.5,-60 C139.5,-60 278,74.5 278,74.5 C278,74.5 414.5,-49.5 414.5,-49.5 " keyTimes="0;0.5;0.9916667;1" values="M-408 238 C-408,238 -265,83.5 -265,83.5 C-265,83.5 -129,-194 -129,-194 C-129,-194 5.5,59 5.5,59 C5.5,59 139.5,-60 139.5,-60 C139.5,-60 278,74.5 278,74.5 C278,74.5 414.5,-49.5 414.5,-49.5 ;M-402 154 C-402,154 -262,42 -262,42 C-262,42 -132,-110 -132,-110 C-132,-110 6,-26 6,-26 C6,-26 132,-108 132,-108 C132,-108 270,-100 270,-100 C270,-100 412,-292 412,-292 ;M-408 238 C-408,238 -265,83.5 -265,83.5 C-265,83.5 -129,-194 -129,-194 C-129,-194 5.5,59 5.5,59 C5.5,59 139.5,-60 139.5,-60 C139.5,-60 278,74.5 278,74.5 C278,74.5 414.5,-49.5 414.5,-49.5 ;M-408 238 C-408,238 -265,83.5 -265,83.5 C-265,83.5 -129,-194 -129,-194 C-129,-194 5.5,59 5.5,59 C5.5,59 139.5,-60 139.5,-60 C139.5,-60 278,74.5 278,74.5 C278,74.5 414.5,-49.5 414.5,-49.5 " keySplines="0.167 0 0.833 1;0.167 0 0.833 1;0 0 0 0" calcMode="spline"/><animateTransform repeatCount="indefinite" dur="4.004004s" begin="0s" xlink:href="#_R_G_L_2_G_L_5_G" fill="freeze" attributeName="transform" from="-3" to="-3" type="rotate" additive="sum" keyTimes="0;0.5;0.9916667;1" values="-3;0;-3;-3" keySplines="0.333 0 0.667 1;0.333 0 0.667 1;0 0 0 0" calcMode="spline"/><animateTransform repeatCount="indefinite" dur="4.004004s" begin="0s" xlink:href="#_R_G_L_2_G_L_5_G" fill="freeze" attributeName="transform" from="-458.944 -1472.632" to="-458.944 -1472.632" type="translate" additive="sum" keyTimes="0;1" values="-458.944 -1472.632;-458.944 -1472.632" keySplines="0 0 1 1" calcMode="spline"/><animateTransform repeatCount="indefinite" dur="4.004004s" begin="0s" xlink:href="#_R_G_L_2_G_L_4_G" fill="freeze" attributeName="transform" from="4" to="4" type="rotate" additive="sum" keyTimes="0;0.5;0.9916667;1" values="4;0;4;4" keySplines="0.333 0 0.667 1;0.333 0 0.667 1;0 0 0 0" calcMode="spline"/><animateTransform repeatCount="indefinite" dur="4.004004s" begin="0s" xlink:href="#_R_G_L_2_G_L_4_G" fill="freeze" attributeName="transform" from="-476.101 -1491.466" to="-476.101 -1491.466" type="translate" additive="sum" keyTimes="0;1" values="-476.101 -1491.466;-476.101 -1491.466" keySplines="0 0 1 1" calcMode="spline"/><animateTransform repeatCount="indefinite" dur="4.004004s" begin="0s" xlink:href="#_R_G_L_2_G_L_3_G" fill="freeze" attributeName="transform" from="-5" to="-5" type="rotate" additive="sum" keyTimes="0;0.5;0.9916667;1" values="-5;0;-5;-5" keySplines="0.333 0 0.667 1;0.333 0 0.667 1;0 0 0 0" calcMode="spline"/><animateTransform repeatCount="indefinite" dur="4.004004s" begin="0s" xlink:href="#_R_G_L_2_G_L_3_G" fill="freeze" attributeName="transform" from="-458.81 -1467.239" to="-458.81 -1467.239" type="translate" additive="sum" keyTimes="0;1" values="-458.81 -1467.239;-458.81 -1467.239" keySplines="0 0 1 1" calcMode="spline"/><animateTransform repeatCount="indefinite" dur="4.004004s" begin="0s" xlink:href="#_R_G_L_2_G_L_2_G" fill="freeze" attributeName="transform" from="5" to="5" type="rotate" additive="sum" keyTimes="0;0.5;0.9916667;1" values="5;0;5;5" keySplines="0.333 0 0.667 1;0.333 0 0.667 1;0 0 0 0" calcMode="spline"/><animateTransform repeatCount="indefinite" dur="4.004004s" begin="0s" xlink:href="#_R_G_L_2_G_L_2_G" fill="freeze" attributeName="transform" from="-455.891 -1531.108" to="-455.891 -1531.108" type="translate" additive="sum" keyTimes="0;1" values="-455.891 -1531.108;-455.891 -1531.108" keySplines="0 0 1 1" calcMode="spline"/><animateTransform repeatCount="indefinite" dur="4.004004s" begin="0s" xlink:href="#_R_G_L_2_G_L_1_G" fill="freeze" attributeName="transform" from="-5" to="-5" type="rotate" additive="sum" keyTimes="0;0.5;0.9916667;1" values="-5;0;-5;-5" keySplines="0.333 0 0.667 1;0.333 0 0.667 1;0 0 0 0" calcMode="spline"/><animateTransform repeatCount="indefinite" dur="4.004004s" begin="0s" xlink:href="#_R_G_L_2_G_L_1_G" fill="freeze" attributeName="transform" from="-454.802 -1532.461" to="-454.802 -1532.461" type="translate" additive="sum" keyTimes="0;1" values="-454.802 -1532.461;-454.802 -1532.461" keySplines="0 0 1 1" calcMode="spline"/><animateTransform repeatCount="indefinite" dur="4.004004s" begin="0s" xlink:href="#_R_G_L_1_G_L_4_G" fill="freeze" attributeName="transform" from="0.6 1" to="0.6 1" type="scale" additive="sum" keyTimes="0;0.5;0.9916667;1" values="0.6 1;1 1;0.6 1;0.6 1" keySplines="0.167 0.167 0.833 0.833;0.167 0.167 0.833 0.833;0 0 0 0" calcMode="spline"/><animateTransform repeatCount="indefinite" dur="4.004004s" begin="0s" xlink:href="#_R_G_L_1_G_L_4_G" fill="freeze" attributeName="transform" from="-486.284 -530.967" to="-486.284 -530.967" type="translate" additive="sum" keyTimes="0;1" values="-486.284 -530.967;-486.284 -530.967" keySplines="0 0 1 1" calcMode="spline"/><animateTransform repeatCount="indefinite" dur="4.004004s" begin="0s" xlink:href="#_R_G_L_1_G_L_3_G" fill="freeze" attributeName="transform" from="1 0.71" to="1 0.71" type="scale" additive="sum" keyTimes="0;0.5;0.9916667;1" values="1 0.71;1 1.23;1 0.71;1 0.71" keySplines="0.167 0.167 0.833 0.833;0.167 0.167 0.833 0.833;0 0 0 0" calcMode="spline"/><animateTransform repeatCount="indefinite" dur="4.004004s" begin="0s" xlink:href="#_R_G_L_1_G_L_3_G" fill="freeze" attributeName="transform" from="-403.421 -761.823" to="-403.421 -761.823" type="translate" additive="sum" keyTimes="0;1" values="-403.421 -761.823;-403.421 -761.823" keySplines="0 0 1 1" calcMode="spline"/><animateTransform repeatCount="indefinite" dur="4.004004s" begin="0s" xlink:href="#_R_G_L_1_G_L_2_G" fill="freeze" attributeName="transform" from="1 0.44" to="1 0.44" type="scale" additive="sum" keyTimes="0;0.5;0.9916667;1" values="1 0.44;1 1;1 0.44;1 0.44" keySplines="0.167 0.167 0.833 0.833;0.167 0.167 0.833 0.833;0 0 0 0" calcMode="spline"/><animateTransform repeatCount="indefinite" dur="4.004004s" begin="0s" xlink:href="#_R_G_L_1_G_L_2_G" fill="freeze" attributeName="transform" from="-489.221 -755.179" to="-489.221 -755.179" type="translate" additive="sum" keyTimes="0;1" values="-489.221 -755.179;-489.221 -755.179" keySplines="0 0 1 1" calcMode="spline"/><animateTransform repeatCount="indefinite" dur="4.004004s" begin="0s" xlink:href="#_R_G_L_1_G_L_1_G" fill="freeze" attributeName="transform" from="1 1.56" to="1 1.56" type="scale" additive="sum" keyTimes="0;0.5;0.9916667;1" values="1 1.56;1 1;1 1.56;1 1.56" keySplines="0.167 0.167 0.833 0.833;0.167 0.167 0.833 0.833;0 0 0 0" calcMode="spline"/><animateTransform repeatCount="indefinite" dur="4.004004s" begin="0s" xlink:href="#_R_G_L_1_G_L_1_G" fill="freeze" attributeName="transform" from="-575.022 -753.987" to="-575.022 -753.987" type="translate" additive="sum" keyTimes="0;1" values="-575.022 -753.987;-575.022 -753.987" keySplines="0 0 1 1" calcMode="spline"/><animateTransform repeatCount="indefinite" dur="4.004004s" begin="0s" xlink:href="#_R_G_L_1_G_L_0_G" fill="freeze" attributeName="transform" from="1 0.39" to="1 0.39" type="scale" additive="sum" keyTimes="0;0.5;0.9916667;1" values="1 0.39;1 1;1 0.39;1 0.39" keySplines="0.167 0.167 0.833 0.833;0.167 0.167 0.833 0.833;0 0 0 0" calcMode="spline"/><animateTransform repeatCount="indefinite" dur="4.004004s" begin="0s" xlink:href="#_R_G_L_1_G_L_0_G" fill="freeze" attributeName="transform" from="-657.823 -754.674" to="-657.823 -754.674" type="translate" additive="sum" keyTimes="0;1" values="-657.823 -754.674;-657.823 -754.674" keySplines="0 0 1 1" calcMode="spline"/><animateTransform repeatCount="indefinite" dur="4.004004s" begin="0s" xlink:href="#_R_G_L_0_G_L_5_G" fill="freeze" attributeName="transform" from="0.8 0.8" to="0.8 0.8" type="scale" additive="sum" keyTimes="0;0.5;0.9916667;1" values="0.8 0.8;1 1;0.8 0.8;0.8 0.8" keySplines="0.167 0.167 0.833 0.833;0.167 0.167 0.833 0.833;0 0 0 0" calcMode="spline"/><animateTransform repeatCount="indefinite" dur="4.004004s" begin="0s" xlink:href="#_R_G_L_0_G_L_5_G" fill="freeze" attributeName="transform" from="-1748.595 -839.597" to="-1748.595 -839.597" type="translate" additive="sum" keyTimes="0;1" values="-1748.595 -839.597;-1748.595 -839.597" keySplines="0 0 1 1" calcMode="spline"/><animateTransform repeatCount="indefinite" dur="4.004004s" begin="0s" xlink:href="#_R_G_L_0_G_L_3_G" fill="freeze" attributeName="transform" from="0" to="0" type="rotate" additive="sum" keyTimes="0;0.5;0.9916667;1" values="0;-6;0;0" keySplines="0.333 0 0.667 1;0.333 0 0.667 1;0 0 0 0" calcMode="spline"/><animateTransform repeatCount="indefinite" dur="4.004004s" begin="0s" xlink:href="#_R_G_L_0_G_L_3_G" fill="freeze" attributeName="transform" from="-1613.208 -947.777" to="-1613.208 -947.777" type="translate" additive="sum" keyTimes="0;1" values="-1613.208 -947.777;-1613.208 -947.777" keySplines="0 0 1 1" calcMode="spline"/><animate repeatCount="indefinite" dur="4.004004s" begin="0s" xlink:href="#_R_G_L_0_G_L_1_G_D_3_P_0" fill="freeze" attributeName="d" attributeType="XML" from="M1547.1 875.77 C1541.27,892.96 1523.81,900.1 1506.42,904.45 C1506.42,904.45 1509.1,880.87 1509.1,880.87 C1509.1,880.87 1547.1,875.77 1547.1,875.77z " to="M1547.1 875.77 C1541.27,892.96 1523.81,900.1 1506.42,904.45 C1506.42,904.45 1509.1,880.87 1509.1,880.87 C1509.1,880.87 1547.1,875.77 1547.1,875.77z " keyTimes="0;0.5;0.9916667;1" values="M1547.1 875.77 C1541.27,892.96 1523.81,900.1 1506.42,904.45 C1506.42,904.45 1509.1,880.87 1509.1,880.87 C1509.1,880.87 1547.1,875.77 1547.1,875.77z ;M1547.1 875.77 C1541.27,892.96 1527.56,898.97 1510.17,903.33 C1510.17,903.33 1509.1,880.87 1509.1,880.87 C1509.1,880.87 1547.1,875.77 1547.1,875.77z ;M1547.1 875.77 C1541.27,892.96 1523.81,900.1 1506.42,904.45 C1506.42,904.45 1509.1,880.87 1509.1,880.87 C1509.1,880.87 1547.1,875.77 1547.1,875.77z ;M1547.1 875.77 C1541.27,892.96 1523.81,900.1 1506.42,904.45 C1506.42,904.45 1509.1,880.87 1509.1,880.87 C1509.1,880.87 1547.1,875.77 1547.1,875.77z " keySplines="0.333 0 0.667 1;0.333 0 0.667 1;0 0 0 0" calcMode="spline"/><animate repeatCount="indefinite" dur="4.004004s" begin="0s" xlink:href="#_R_G_L_0_G_L_1_G_D_12_P_0" fill="freeze" attributeName="d" attributeType="XML" from="M1502.45 864.63 C1505.73,875.1 1520,861.63 1520.88,859.94 C1520.88,859.94 1502.45,864.63 1502.45,864.63z " to="M1502.45 864.63 C1505.73,875.1 1520,861.63 1520.88,859.94 C1520.88,859.94 1502.45,864.63 1502.45,864.63z " keyTimes="0;0.5;0.9916667;1" values="M1502.45 864.63 C1505.73,875.1 1520,861.63 1520.88,859.94 C1520.88,859.94 1502.45,864.63 1502.45,864.63z ;M1502.45 864.63 C1505.73,875.1 1519.79,869.78 1520.88,859.94 C1520.88,859.94 1502.45,864.63 1502.45,864.63z ;M1502.45 864.63 C1505.73,875.1 1520,861.63 1520.88,859.94 C1520.88,859.94 1502.45,864.63 1502.45,864.63z ;M1502.45 864.63 C1505.73,875.1 1520,861.63 1520.88,859.94 C1520.88,859.94 1502.45,864.63 1502.45,864.63z " keySplines="0.333 0 0.667 1;0.333 0 0.667 1;0 0 0 0" calcMode="spline"/><animateTransform repeatCount="indefinite" dur="4.004004s" begin="0s" xlink:href="#_R_G_L_0_G_L_1_G" fill="freeze" attributeName="transform" from="-6" to="-6" type="rotate" additive="sum" keyTimes="0;0.5;0.9916667;1" values="-6;0;-6;-6" keySplines="0.333 0 0.667 1;0.333 0 0.667 1;0 0 0 0" calcMode="spline"/><animateTransform repeatCount="indefinite" dur="4.004004s" begin="0s" xlink:href="#_R_G_L_0_G_L_1_G" fill="freeze" attributeName="transform" from="-1546.097 -870.342" to="-1546.097 -870.342" type="translate" additive="sum" keyTimes="0;1" values="-1546.097 -870.342;-1546.097 -870.342" keySplines="0 0 1 1" calcMode="spline"/><animateMotion repeatCount="indefinite" dur="4.004004s" begin="0s" xlink:href="#_R_G_L_0_G_L_0_G" fill="freeze" keyTimes="0;0.5;0.9916667;1" path="M1367.39 1037.06 C1367.39,1037.06 1367.39,1057.06 1367.39,1057.06 C1367.39,1057.06 1367.39,1037.06 1367.39,1037.06 C1367.39,1037.06 1367.39,1037.06 1367.39,1037.06 " keyPoints="0;0.5;1;1" keySplines="0.333 0 0.667 1;0.333 0 0.667 1;0 0 0 0" calcMode="spline"/><animateTransform repeatCount="indefinite" dur="4.004004s" begin="0s" xlink:href="#_R_G_L_0_G_L_0_G" fill="freeze" attributeName="transform" from="-1367.393 -1057.059" to="-1367.393 -1057.059" type="translate" additive="sum" keyTimes="0;1" values="-1367.393 -1057.059;-1367.393 -1057.059" keySplines="0 0 1 1" calcMode="spline"/><animate attributeType="XML" attributeName="opacity" dur="4s" from="0" to="1" xlink:href="#time_group"/></defs><g id="_R_G"><g id="_R_G_L_4_G"><g id="_R_G_L_4_G_L_10_G"><path id="_R_G_L_4_G_L_10_G_D_0_P_0" fill="#7fdef3" fill-opacity="1" fill-rule="nonzero" d=" M922.36 426.57 C922.36,469.16 887.84,503.69 845.25,503.69 C802.66,503.69 768.13,469.16 768.13,426.57 C768.13,383.98 802.66,349.46 845.25,349.46 C887.84,349.46 922.36,383.98 922.36,426.57z "/></g><g id="_R_G_L_4_G_L_9_G"><path id="_R_G_L_4_G_L_9_G_D_0_P_0" fill="#7fdef3" fill-opacity="1" fill-rule="nonzero" d=" M1116.08 1356.9 C1116.08,1404.83 1077.23,1443.69 1029.29,1443.69 C981.36,1443.69 942.5,1404.83 942.5,1356.9 C942.5,1308.96 981.36,1270.11 1029.29,1270.11 C1077.23,1270.11 1116.08,1308.96 1116.08,1356.9z "/></g><g id="_R_G_L_4_G_L_8_G" transform=" translate(868.608, 1317.626)"><path id="_R_G_L_4_G_L_8_G_D_0_P_0" fill="#7fdef3" fill-opacity="1" fill-rule="nonzero" d=" M868.56 1484.2 C867.65,1484.2 866.74,1484.19 865.83,1484.18 C865.83,1484.18 865.88,1481.68 865.88,1481.68 C869.99,1481.74 874.17,1481.65 878.28,1481.42 C878.28,1481.42 878.42,1483.91 878.42,1483.91 C875.16,1484.1 871.85,1484.2 868.56,1484.2z  M853.27 1483.51 C849.1,1483.13 844.9,1482.58 840.79,1481.89 C840.79,1481.89 841.2,1479.43 841.2,1479.43 C845.25,1480.11 849.39,1480.64 853.5,1481.02 C853.5,1481.02 853.27,1483.51 853.27,1483.51z  M890.95 1482.71 C890.95,1482.71 890.61,1480.23 890.61,1480.23 C894.7,1479.68 898.81,1478.97 902.83,1478.11 C902.83,1478.11 903.35,1480.56 903.35,1480.56 C899.27,1481.43 895.09,1482.15 890.95,1482.71z  M828.46 1479.34 C824.4,1478.33 820.33,1477.16 816.36,1475.85 C816.36,1475.85 817.15,1473.48 817.15,1473.48 C821.05,1474.77 825.06,1475.92 829.06,1476.91 C829.06,1476.91 828.46,1479.34 828.46,1479.34z  M915.55 1477.48 C915.55,1477.48 914.85,1475.08 914.85,1475.08 C918.8,1473.92 922.76,1472.59 926.6,1471.14 C926.6,1471.14 927.49,1473.48 927.49,1473.48 C923.58,1474.95 919.57,1476.3 915.55,1477.48z  M804.56 1471.46 C800.7,1469.85 796.85,1468.07 793.12,1466.17 C793.12,1466.17 794.25,1463.94 794.25,1463.94 C797.92,1465.81 801.71,1467.56 805.52,1469.15 C805.52,1469.15 804.56,1471.46 804.56,1471.46z  M939.07 1468.58 C939.07,1468.58 938.01,1466.32 938.01,1466.32 C941.74,1464.57 945.45,1462.67 949.03,1460.65 C949.03,1460.65 950.26,1462.82 950.26,1462.82 C946.62,1464.87 942.86,1466.81 939.07,1468.58z  M782.12 1460.04 C778.55,1457.87 775.02,1455.53 771.61,1453.09 C771.61,1453.09 773.07,1451.06 773.07,1451.06 C776.42,1453.46 779.9,1455.77 783.42,1457.9 C783.42,1457.9 782.12,1460.04 782.12,1460.04z  M960.98 1456.23 C960.98,1456.23 959.59,1454.15 959.59,1454.15 C963.01,1451.86 966.39,1449.42 969.63,1446.88 C969.63,1446.88 971.17,1448.85 971.17,1448.85 C967.88,1451.43 964.46,1453.91 960.98,1456.23z  M761.66 1445.37 C758.46,1442.69 755.32,1439.85 752.32,1436.93 C752.32,1436.93 754.07,1435.14 754.07,1435.14 C757.01,1438.02 760.11,1440.81 763.27,1443.46 C763.27,1443.46 761.66,1445.37 761.66,1445.37z  M980.78 1440.73 C980.78,1440.73 979.1,1438.88 979.1,1438.88 C982.14,1436.11 985.11,1433.18 987.94,1430.19 C987.94,1430.19 989.76,1431.9 989.76,1431.9 C986.89,1434.94 983.87,1437.91 980.78,1440.73z  M743.64 1427.82 C740.88,1424.68 738.19,1421.4 735.67,1418.07 C735.67,1418.07 737.67,1416.56 737.67,1416.56 C740.15,1419.85 742.79,1423.07 745.52,1426.16 C745.52,1426.16 743.64,1427.82 743.64,1427.82z  M998.05 1422.42 C998.05,1422.42 996.1,1420.85 996.1,1420.85 C998.7,1417.64 1001.21,1414.3 1003.55,1410.93 C1003.55,1410.93 1005.6,1412.35 1005.6,1412.35 C1003.22,1415.78 1000.69,1419.17 998.05,1422.42z  M728.46 1407.76 C726.19,1404.24 724.04,1400.6 722.05,1396.94 C722.05,1396.94 724.25,1395.74 724.25,1395.74 C726.2,1399.35 728.33,1402.94 730.56,1406.41 C730.56,1406.41 728.46,1407.76 728.46,1407.76z  M1012.37 1401.73 C1012.37,1401.73 1010.22,1400.47 1010.22,1400.47 C1012.3,1396.91 1014.28,1393.23 1016.08,1389.53 C1016.08,1389.53 1018.33,1390.63 1018.33,1390.63 C1016.49,1394.39 1014.49,1398.12 1012.37,1401.73z  M716.47 1385.66 C714.77,1381.85 713.18,1377.92 711.77,1374 C711.77,1374 714.12,1373.15 714.12,1373.15 C715.51,1377.02 717.07,1380.88 718.76,1384.64 C718.76,1384.64 716.47,1385.66 716.47,1385.66z  M1023.42 1379.11 C1023.42,1379.11 1021.1,1378.18 1021.1,1378.18 C1022.62,1374.36 1024.01,1370.42 1025.24,1366.48 C1025.24,1366.48 1027.63,1367.23 1027.63,1367.23 C1026.38,1371.23 1024.97,1375.22 1023.42,1379.11z  M707.97 1362 C706.86,1357.97 705.89,1353.84 705.09,1349.74 C705.09,1349.74 707.54,1349.26 707.54,1349.26 C708.33,1353.3 709.28,1357.36 710.38,1361.33 C710.38,1361.33 707.97,1362 707.97,1362z  M1030.91 1355.07 C1030.91,1355.07 1028.47,1354.52 1028.47,1354.52 C1029.39,1350.51 1030.17,1346.41 1030.79,1342.34 C1030.79,1342.34 1033.26,1342.71 1033.26,1342.71 C1032.64,1346.85 1031.84,1351.01 1030.91,1355.07z  M703.14 1337.31 C702.65,1333.16 702.32,1328.94 702.14,1324.76 C702.14,1324.76 704.64,1324.66 704.64,1324.66 C704.81,1328.77 705.15,1332.93 705.63,1337.02 C705.63,1337.02 703.14,1337.31 703.14,1337.31z  M1034.67 1330.2 C1034.67,1330.2 1032.18,1330.02 1032.18,1330.02 C1032.48,1325.92 1032.64,1321.76 1032.64,1317.63 C1032.64,1317.63 1035.14,1317.63 1035.14,1317.63 C1035.14,1321.82 1034.98,1326.05 1034.67,1330.2z  M1032.63 1315.96 C1032.59,1311.83 1032.39,1307.66 1032.04,1303.57 C1032.04,1303.57 1034.53,1303.36 1034.53,1303.36 C1034.89,1307.52 1035.09,1311.74 1035.13,1315.93 C1035.13,1315.93 1032.63,1315.96 1032.63,1315.96z  M704.58 1312.25 C704.58,1312.25 702.08,1312.17 702.08,1312.17 C702.21,1307.99 702.51,1303.77 702.95,1299.62 C702.95,1299.62 705.44,1299.89 705.44,1299.89 C705,1303.97 704.71,1308.13 704.58,1312.25z  M1030.53 1291.27 C1029.87,1287.2 1029.05,1283.11 1028.09,1279.11 C1028.09,1279.11 1030.52,1278.53 1030.52,1278.53 C1031.5,1282.59 1032.33,1286.74 1033,1290.87 C1033,1290.87 1030.53,1291.27 1030.53,1291.27z  M707.23 1287.62 C707.23,1287.62 704.77,1287.16 704.77,1287.16 C705.53,1283.05 706.46,1278.92 707.53,1274.88 C707.53,1274.88 709.94,1275.52 709.94,1275.52 C708.89,1279.5 707.98,1283.57 707.23,1287.62z  M1024.73 1267.18 C1023.47,1263.26 1022.04,1259.35 1020.48,1255.53 C1020.48,1255.53 1022.79,1254.59 1022.79,1254.59 C1024.38,1258.46 1025.83,1262.44 1027.11,1266.41 C1027.11,1266.41 1024.73,1267.18 1024.73,1267.18z  M713.57 1263.67 C713.57,1263.67 711.21,1262.85 711.21,1262.85 C712.59,1258.89 714.13,1254.94 715.8,1251.11 C715.8,1251.11 718.09,1252.11 718.09,1252.11 C716.45,1255.89 714.93,1259.77 713.57,1263.67z  M1015.36 1244.25 C1013.52,1240.58 1011.51,1236.93 1009.39,1233.39 C1009.39,1233.39 1011.54,1232.11 1011.54,1232.11 C1013.69,1235.69 1015.72,1239.4 1017.59,1243.13 C1017.59,1243.13 1015.36,1244.25 1015.36,1244.25z  M723.48 1240.93 C723.48,1240.93 721.27,1239.76 721.27,1239.76 C723.23,1236.07 725.36,1232.4 727.59,1228.86 C727.59,1228.86 729.7,1230.2 729.7,1230.2 C727.5,1233.68 725.41,1237.29 723.48,1240.93z  M1002.62 1223.01 C1000.24,1219.64 997.71,1216.33 995.09,1213.16 C995.09,1213.16 997.01,1211.57 997.01,1211.57 C999.67,1214.79 1002.25,1218.15 1004.66,1221.56 C1004.66,1221.56 1002.62,1223.01 1002.62,1223.01z  M736.71 1219.96 C736.71,1219.96 734.7,1218.47 734.7,1218.47 C737.2,1215.12 739.84,1211.81 742.58,1208.65 C742.58,1208.65 744.47,1210.29 744.47,1210.29 C741.78,1213.4 739.17,1216.66 736.71,1219.96z  M986.83 1203.91 C983.98,1200.94 980.98,1198.04 977.91,1195.3 C977.91,1195.3 979.58,1193.44 979.58,1193.44 C982.69,1196.22 985.74,1199.16 988.64,1202.18 C988.64,1202.18 986.83,1203.91 986.83,1203.91z  M752.93 1201.22 C752.93,1201.22 751.17,1199.45 751.17,1199.45 C754.14,1196.5 757.25,1193.63 760.43,1190.92 C760.43,1190.92 762.05,1192.82 762.05,1192.82 C758.92,1195.49 755.86,1198.32 752.93,1201.22z  M968.36 1187.38 C965.1,1184.88 961.69,1182.46 958.24,1180.21 C958.24,1180.21 959.61,1178.12 959.61,1178.12 C963.11,1180.41 966.57,1182.86 969.88,1185.4 C969.88,1185.4 968.36,1187.38 968.36,1187.38z  M771.78 1185.13 C771.78,1185.13 770.3,1183.11 770.3,1183.11 C773.67,1180.64 777.18,1178.28 780.73,1176.07 C780.73,1176.07 782.05,1178.19 782.05,1178.19 C778.55,1180.37 775.1,1182.7 771.78,1185.13z  M947.61 1173.82 C944,1171.83 940.27,1169.95 936.52,1168.25 C936.52,1168.25 937.56,1165.97 937.56,1165.97 C941.36,1167.7 945.15,1169.61 948.82,1171.63 C948.82,1171.63 947.61,1173.82 947.61,1173.82z  M792.81 1172.05 C792.81,1172.05 791.66,1169.83 791.66,1169.83 C795.37,1167.9 799.19,1166.09 803.02,1164.44 C803.02,1164.44 804.01,1166.74 804.01,1166.74 C800.23,1168.36 796.47,1170.15 792.81,1172.05z  M925.04 1163.53 C921.18,1162.12 917.21,1160.83 913.25,1159.71 C913.25,1159.71 913.93,1157.31 913.93,1157.31 C917.95,1158.44 921.98,1159.75 925.9,1161.19 C925.9,1161.19 925.04,1163.53 925.04,1163.53z  M815.57 1162.3 C815.57,1162.3 814.76,1159.94 814.76,1159.94 C818.71,1158.59 822.77,1157.37 826.82,1156.33 C826.82,1156.33 827.45,1158.75 827.45,1158.75 C823.46,1159.78 819.46,1160.97 815.57,1162.3z  M901.2 1156.8 C897.18,1155.99 893.06,1155.32 888.96,1154.81 C888.96,1154.81 889.27,1152.33 889.27,1152.33 C893.43,1152.84 897.61,1153.52 901.69,1154.35 C901.69,1154.35 901.2,1156.8 901.2,1156.8z  M839.56 1156.11 C839.56,1156.11 839.12,1153.65 839.12,1153.65 C843.22,1152.92 847.41,1152.33 851.58,1151.91 C851.58,1151.91 851.84,1154.39 851.84,1154.39 C847.73,1154.81 843.6,1155.39 839.56,1156.11z  M876.61 1153.75 C872.49,1153.55 868.31,1153.5 864.21,1153.61 C864.21,1153.61 864.14,1151.11 864.14,1151.11 C868.31,1151 872.55,1151.05 876.73,1151.25 C876.73,1151.25 876.61,1153.75 876.61,1153.75z "/></g><g id="_R_G_L_4_G_L_7_G" transform=" translate(732.26, 390.728)"><path id="_R_G_L_4_G_L_7_G_D_0_P_0" fill="#7fdef3" fill-opacity="1" fill-rule="nonzero" d=" M733.21 495.97 C733.21,495.97 733.19,493.47 733.19,493.47 C737.31,493.43 741.45,493.15 745.5,492.63 C745.5,492.63 745.82,495.11 745.82,495.11 C741.67,495.64 737.43,495.93 733.21,495.97z  M720.59 495.34 C716.41,494.87 712.22,494.15 708.14,493.2 C708.14,493.2 708.71,490.76 708.71,490.76 C712.69,491.7 716.78,492.4 720.87,492.85 C720.87,492.85 720.59,495.34 720.59,495.34z  M758.23 492.74 C758.23,492.74 757.62,490.32 757.62,490.32 C761.59,489.31 765.55,488.05 769.37,486.57 C769.37,486.57 770.28,488.9 770.28,488.9 C766.36,490.42 762.31,491.71 758.23,492.74z  M696.02 489.57 C692.08,488.12 688.18,486.42 684.43,484.51 C684.43,484.51 685.57,482.28 685.57,482.28 C689.23,484.15 693.03,485.81 696.88,487.22 C696.88,487.22 696.02,489.57 696.02,489.57z  M781.76 483.63 C781.76,483.63 780.59,481.42 780.59,481.42 C784.2,479.5 787.74,477.33 791.1,474.97 C791.1,474.97 792.53,477.02 792.53,477.02 C789.09,479.43 785.46,481.66 781.76,483.63z  M673.54 478.09 C670.06,475.74 666.68,473.16 663.49,470.41 C663.49,470.41 665.13,468.52 665.13,468.52 C668.24,471.2 671.54,473.72 674.93,476.01 C674.93,476.01 673.54,478.09 673.54,478.09z  M802.44 469.17 C802.44,469.17 800.77,467.31 800.77,467.31 C803.82,464.57 806.75,461.62 809.46,458.54 C809.46,458.54 811.33,460.19 811.33,460.19 C808.56,463.35 805.56,466.37 802.44,469.17z  M654.44 461.59 C651.61,458.49 648.94,455.18 646.5,451.76 C646.5,451.76 648.54,450.31 648.54,450.31 C650.92,453.65 653.52,456.88 656.29,459.91 C656.29,459.91 654.44,461.59 654.44,461.59z  M819.1 450.22 C819.1,450.22 817.04,448.8 817.04,448.8 C819.36,445.42 821.5,441.86 823.4,438.23 C823.4,438.23 825.62,439.39 825.62,439.39 C823.67,443.11 821.48,446.75 819.1,450.22z  M639.79 441.05 C637.78,437.36 635.97,433.52 634.42,429.62 C634.42,429.62 636.75,428.69 636.75,428.69 C638.26,432.5 640.02,436.25 641.99,439.86 C641.99,439.86 639.79,441.05 639.79,441.05z  M830.79 427.85 C830.79,427.85 828.45,426.96 828.45,426.96 C829.89,423.12 831.12,419.16 832.09,415.17 C832.09,415.17 834.52,415.76 834.52,415.76 C833.53,419.85 832.27,423.91 830.79,427.85z  M630.47 417.61 C629.4,413.55 628.56,409.38 627.99,405.22 C627.99,405.22 630.47,404.88 630.47,404.88 C631.03,408.94 631.84,413.01 632.89,416.98 C632.89,416.98 630.47,417.61 630.47,417.61z  M836.77 403.33 C836.77,403.33 834.29,403.03 834.29,403.03 C834.78,398.97 835.02,394.83 835.02,390.71 C835.02,389.47 835,388.22 834.96,386.98 C834.96,386.98 837.46,386.89 837.46,386.89 C837.5,388.16 837.52,389.44 837.52,390.71 C837.52,394.93 837.27,399.17 836.77,403.33z  M627.02 392.62 C627,391.99 627,391.35 627,390.71 C627,387.14 627.18,383.53 627.54,380 C627.54,380 630.02,380.25 630.02,380.25 C629.67,383.7 629.5,387.22 629.5,390.71 C629.5,391.34 629.5,391.96 629.52,392.58 C629.52,392.58 627.02,392.62 627.02,392.62z  M833.78 374.7 C833.15,370.64 832.26,366.59 831.14,362.65 C831.14,362.65 833.55,361.96 833.55,361.96 C834.69,366 835.6,370.16 836.25,374.31 C836.25,374.31 833.78,374.7 833.78,374.7z  M632 368.07 C632,368.07 629.56,367.52 629.56,367.52 C630.48,363.42 631.67,359.33 633.08,355.37 C633.08,355.37 635.43,356.21 635.43,356.21 C634.06,360.07 632.9,364.07 632,368.07z  M827.07 351 C825.48,347.22 823.65,343.5 821.62,339.94 C821.62,339.94 823.8,338.7 823.8,338.7 C825.87,342.35 827.75,346.16 829.37,350.03 C829.37,350.03 827.07,351 827.07,351z  M640.27 344.86 C640.27,344.86 638.04,343.74 638.04,343.74 C639.91,339.99 642.04,336.3 644.35,332.79 C644.35,332.79 646.44,334.17 646.44,334.17 C644.18,337.59 642.1,341.19 640.27,344.86z  M814.89 329.6 C812.45,326.31 809.78,323.13 806.96,320.15 C806.96,320.15 808.78,318.43 808.78,318.43 C811.67,321.48 814.4,324.74 816.9,328.11 C816.9,328.11 814.89,329.6 814.89,329.6z  M653.85 324.29 C653.85,324.29 651.94,322.67 651.94,322.67 C654.65,319.47 657.59,316.4 660.67,313.54 C660.67,313.54 662.37,315.37 662.37,315.37 C659.37,318.16 656.5,321.17 653.85,324.29z  M797.97 311.7 C794.81,309.07 791.47,306.61 788.03,304.38 C788.03,304.38 789.38,302.28 789.38,302.28 C792.91,304.57 796.34,307.09 799.57,309.77 C799.57,309.77 797.97,311.7 797.97,311.7z  M671.9 307.53 C671.9,307.53 670.43,305.51 670.43,305.51 C673.83,303.04 677.41,300.75 681.08,298.71 C681.08,298.71 682.3,300.89 682.3,300.89 C678.72,302.89 675.22,305.12 671.9,307.53z  M777.28 298.31 C773.59,296.51 769.76,294.92 765.88,293.57 C765.88,293.57 766.7,291.21 766.7,291.21 C770.67,292.59 774.6,294.22 778.38,296.06 C778.38,296.06 777.28,298.31 777.28,298.31z  M693.41 295.55 C693.41,295.55 692.46,293.23 692.46,293.23 C696.35,291.64 700.38,290.28 704.43,289.17 C704.43,289.17 705.09,291.58 705.09,291.58 C701.14,292.66 697.21,294 693.41,295.55z  M753.99 290.25 C749.99,289.39 745.89,288.76 741.79,288.39 C741.79,288.39 742.02,285.9 742.02,285.9 C746.21,286.28 750.42,286.93 754.52,287.81 C754.52,287.81 753.99,290.25 753.99,290.25z  M717.17 289.05 C717.17,289.05 716.8,286.58 716.8,286.58 C720.95,285.97 725.18,285.6 729.39,285.49 C729.39,285.49 729.46,287.99 729.46,287.99 C725.35,288.1 721.21,288.45 717.17,289.05z "/></g><g id="_R_G_L_4_G_L_6_G"><path id="_R_G_L_4_G_L_6_G_D_0_P_0" fill="#7fdef3" fill-opacity="1" fill-rule="nonzero" d=" M312.5 1033.69 C292.51,1033.69 276.25,1017.43 276.25,997.44 C276.25,977.45 292.51,961.19 312.5,961.19 C332.49,961.19 348.75,977.45 348.75,997.44 C348.75,1017.43 332.49,1033.69 312.5,1033.69z  M312.5 966.19 C295.27,966.19 281.25,980.21 281.25,997.44 C281.25,1014.67 295.27,1028.69 312.5,1028.69 C329.73,1028.69 343.75,1014.67 343.75,997.44 C343.75,980.21 329.73,966.19 312.5,966.19z "/></g><g id="_R_G_L_4_G_L_5_G" transform=" translate(1554.066, 406.166)"><path id="_R_G_L_4_G_L_5_G_D_0_P_0" fill="#5c66d9" fill-opacity="1" fill-rule="nonzero" d=" M1639.07 406.17 C1639.07,453.11 1601.01,491.17 1554.07,491.17 C1507.12,491.17 1469.06,453.11 1469.06,406.17 C1469.06,359.22 1507.12,321.16 1554.07,321.16 C1601.01,321.16 1639.07,359.22 1639.07,406.17z "/><path id="_R_G_L_4_G_L_5_G_D_1_P_0" fill="#ffffff" fill-opacity="1" fill-rule="nonzero" d=" M1562.81 444.21 C1562.81,444.21 1562.81,455.98 1562.81,455.98 C1562.81,455.98 1547.87,455.98 1547.87,455.98 C1547.87,455.98 1547.87,444.74 1547.87,444.74 C1537.27,444.1 1526.99,441.25 1520.63,437.32 C1520.63,437.32 1528.68,419.09 1528.68,419.09 C1535.68,423.23 1545,425.88 1553.16,425.88 C1560.27,425.88 1562.81,424.39 1562.81,421.85 C1562.81,412.52 1521.8,420.04 1521.8,392.39 C1521.8,380.41 1530.49,370.34 1547.87,367.91 C1547.87,367.91 1547.87,356.36 1547.87,356.36 C1547.87,356.36 1562.81,356.36 1562.81,356.36 C1562.81,356.36 1562.81,367.69 1562.81,367.69 C1570.65,368.43 1578.28,370.45 1584.32,373.84 C1584.32,373.84 1576.8,391.96 1576.8,391.96 C1569.48,388.25 1562.6,386.45 1556.13,386.45 C1548.82,386.45 1546.49,388.57 1546.49,391.12 C1546.49,400.02 1587.5,392.6 1587.5,419.94 C1587.5,431.38 1579.23,441.35 1562.81,444.21z "/></g><g id="_R_G_L_4_G_L_4_G" transform=" translate(1406.28, 521.65)"><path id="_R_G_L_4_G_L_4_G_D_0_P_0" fill="#5c66d9" fill-opacity="1" fill-rule="nonzero" d=" M1457.78 521.65 C1457.78,550.09 1434.72,573.15 1406.28,573.15 C1377.84,573.15 1354.78,550.09 1354.78,521.65 C1354.78,493.21 1377.84,470.15 1406.28,470.15 C1434.72,470.15 1457.78,493.21 1457.78,521.65z "/><path id="_R_G_L_4_G_L_4_G_D_1_P_0" fill="#ffffff" fill-opacity="1" fill-rule="nonzero" d=" M1411.58 544.7 C1411.58,544.7 1411.58,551.82 1411.58,551.82 C1411.58,551.82 1402.52,551.82 1402.52,551.82 C1402.52,551.82 1402.52,545.02 1402.52,545.02 C1396.11,544.63 1389.88,542.9 1386.03,540.52 C1386.03,540.52 1390.9,529.48 1390.9,529.48 C1395.14,531.99 1400.79,533.59 1405.73,533.59 C1410.04,533.59 1411.58,532.69 1411.58,531.15 C1411.58,525.5 1386.73,530.06 1386.73,513.3 C1386.73,506.05 1392,499.95 1402.52,498.47 C1402.52,498.47 1402.52,491.48 1402.52,491.48 C1402.52,491.48 1411.58,491.48 1411.58,491.48 C1411.58,491.48 1411.58,498.34 1411.58,498.34 C1416.33,498.79 1420.95,500.02 1424.61,502.07 C1424.61,502.07 1420.05,513.05 1420.05,513.05 C1415.62,510.8 1411.45,509.71 1407.53,509.71 C1403.1,509.71 1401.69,510.99 1401.69,512.54 C1401.69,517.92 1426.53,513.43 1426.53,530 C1426.53,536.93 1421.53,542.96 1411.58,544.7z "/></g><g id="_R_G_L_4_G_L_3_G" transform=" translate(1543.703, 554.676)"><path id="_R_G_L_4_G_L_3_G_D_0_P_0" fill="#5c66d9" fill-opacity="1" fill-rule="nonzero" d=" M1583.44 554.68 C1583.44,576.62 1565.65,594.41 1543.7,594.41 C1521.76,594.41 1503.97,576.62 1503.97,554.68 C1503.97,532.73 1521.76,514.94 1543.7,514.94 C1565.65,514.94 1583.44,532.73 1583.44,554.68z "/><path id="_R_G_L_4_G_L_3_G_D_1_P_0" fill="#ffffff" fill-opacity="1" fill-rule="nonzero" d=" M1547.79 572.46 C1547.79,572.46 1547.79,577.96 1547.79,577.96 C1547.79,577.96 1540.81,577.96 1540.81,577.96 C1540.81,577.96 1540.81,572.71 1540.81,572.71 C1535.85,572.41 1531.05,571.07 1528.08,569.24 C1528.08,569.24 1531.84,560.72 1531.84,560.72 C1535.11,562.65 1539.47,563.89 1543.28,563.89 C1546.6,563.89 1547.79,563.2 1547.79,562.01 C1547.79,557.65 1528.62,561.16 1528.62,548.24 C1528.62,542.64 1532.68,537.93 1540.81,536.79 C1540.81,536.79 1540.81,531.39 1540.81,531.39 C1540.81,531.39 1547.79,531.39 1547.79,531.39 C1547.79,531.39 1547.79,536.69 1547.79,536.69 C1551.45,537.04 1555.02,537.98 1557.85,539.57 C1557.85,539.57 1554.33,548.04 1554.33,548.04 C1550.91,546.3 1547.69,545.46 1544.67,545.46 C1541.25,545.46 1540.16,546.45 1540.16,547.64 C1540.16,551.8 1559.33,548.34 1559.33,561.12 C1559.33,566.46 1555.47,571.12 1547.79,572.46z "/></g><g id="_R_G_L_4_G_L_2_G" transform=" translate(1380.844, 402.323)"><path id="_R_G_L_4_G_L_2_G_D_0_P_0" fill="#7fdef3" fill-opacity="1" fill-rule="nonzero" d=" M1383.75 423.15 C1383.75,423.15 1377.94,423.15 1377.94,423.15 C1377.94,423.15 1377.94,381.5 1377.94,381.5 C1377.94,381.5 1383.75,381.5 1383.75,381.5 C1383.75,381.5 1383.75,423.15 1383.75,423.15z "/><path id="_R_G_L_4_G_L_2_G_D_1_P_0" fill="#7fdef3" fill-opacity="1" fill-rule="nonzero" d=" M1401.67 405.23 C1401.67,405.23 1360.02,405.23 1360.02,405.23 C1360.02,405.23 1360.02,399.42 1360.02,399.42 C1360.02,399.42 1401.67,399.42 1401.67,399.42 C1401.67,399.42 1401.67,405.23 1401.67,405.23z "/></g><g id="_R_G_L_4_G_L_1_G" transform=" translate(1431.222, 301.325)"><path id="_R_G_L_4_G_L_1_G_D_0_P_0" fill="#7fdef3" fill-opacity="1" fill-rule="nonzero" d=" M1435.59 332.6 C1435.59,332.6 1426.86,332.6 1426.86,332.6 C1426.86,332.6 1426.86,270.05 1426.86,270.05 C1426.86,270.05 1435.59,270.05 1435.59,270.05 C1435.59,270.05 1435.59,332.6 1435.59,332.6z "/><path id="_R_G_L_4_G_L_1_G_D_1_P_0" fill="#7fdef3" fill-opacity="1" fill-rule="nonzero" d=" M1462.5 305.69 C1462.5,305.69 1399.95,305.69 1399.95,305.69 C1399.95,305.69 1399.95,296.96 1399.95,296.96 C1399.95,296.96 1462.5,296.96 1462.5,296.96 C1462.5,296.96 1462.5,305.69 1462.5,305.69z "/></g><g id="_R_G_L_4_G_L_0_G" transform=" translate(1628.459, 613.629)"><path id="_R_G_L_4_G_L_0_G_D_0_P_0" fill="#7fdef3" fill-opacity="1" fill-rule="nonzero" d=" M1631.76 637.31 C1631.76,637.31 1625.15,637.31 1625.15,637.31 C1625.15,637.31 1625.15,589.95 1625.15,589.95 C1625.15,589.95 1631.76,589.95 1631.76,589.95 C1631.76,589.95 1631.76,637.31 1631.76,637.31z "/><path id="_R_G_L_4_G_L_0_G_D_1_P_0" fill="#7fdef3" fill-opacity="1" fill-rule="nonzero" d=" M1652.14 616.93 C1652.14,616.93 1604.78,616.93 1604.78,616.93 C1604.78,616.93 1604.78,610.32 1604.78,610.32 C1604.78,610.32 1652.14,610.32 1652.14,610.32 C1652.14,610.32 1652.14,616.93 1652.14,616.93z "/></g></g><g id="_R_G_L_3_G"><g id="_R_G_L_3_G_L_10_G"><path id="_R_G_L_3_G_L_10_G_D_0_P_0" fill="#ffffff" fill-opacity="1" fill-rule="nonzero" d=" M1525 1336.19 C1525,1336.19 486.01,1336.19 486.01,1336.19 C486.01,1336.19 486.01,568.03 486.01,568.03 C486.01,568.03 1525,568.03 1525,568.03 C1525,568.03 1525,1336.19 1525,1336.19z "/><path id="_R_G_L_3_G_L_10_G_D_1_P_0" fill="#7fdef3" fill-opacity="1" fill-rule="nonzero" d=" M1527.5 1338.69 C1527.5,1338.69 483.51,1338.69 483.51,1338.69 C483.51,1338.69 483.51,565.53 483.51,565.53 C483.51,565.53 1527.5,565.53 1527.5,565.53 C1527.5,565.53 1527.5,1338.69 1527.5,1338.69z  M488.51 1333.69 C488.51,1333.69 1522.5,1333.69 1522.5,1333.69 C1522.5,1333.69 1522.5,570.53 1522.5,570.53 C1522.5,570.53 488.51,570.53 488.51,570.53 C488.51,570.53 488.51,1333.69 488.51,1333.69z "/></g><g id="_R_G_L_3_G_L_9_G" transform=" translate(1005.503, 665.357)"><path id="_R_G_L_3_G_L_9_G_D_0_P_0" fill="#64acbc" fill-opacity="1" fill-rule="nonzero" d=" M1214.67 667.86 C1214.67,667.86 796.34,667.86 796.34,667.86 C796.34,667.86 796.34,662.86 796.34,662.86 C796.34,662.86 1214.67,662.86 1214.67,662.86 C1214.67,662.86 1214.67,667.86 1214.67,667.86z "/></g><g id="_R_G_L_3_G_L_8_G" transform=" translate(1005.503, 720.357)"><path id="_R_G_L_3_G_L_8_G_D_0_P_0" fill="#64acbc" fill-opacity="1" fill-rule="nonzero" d=" M1073.46 722.86 C1073.46,722.86 937.54,722.86 937.54,722.86 C937.54,722.86 937.54,717.86 937.54,717.86 C937.54,717.86 1073.46,717.86 1073.46,717.86 C1073.46,717.86 1073.46,722.86 1073.46,722.86z "/></g><g id="_R_G_L_3_G_L_7_G" transform=" translate(597.503, 1244.944)"><path id="_R_G_L_3_G_L_7_G_D_0_P_0" fill="#5c66d9" fill-opacity="1" fill-rule="nonzero" d=" M643 1251.19 C643,1251.19 558,1251.19 558,1251.19 C558,1251.19 558,1086.7 558,1086.7 C558,1086.7 643,1086.7 643,1086.7 C643,1086.7 643,1251.19 643,1251.19z "/></g><g id="_R_G_L_3_G_L_6_G" transform=" translate(733.503, 1245.93)"><path id="_R_G_L_3_G_L_6_G_D_0_P_0" fill="#5c66d9" fill-opacity="1" fill-rule="nonzero" d=" M778 1251.19 C778,1251.19 693,1251.19 693,1251.19 C693,1251.19 693,1004.67 693,1004.67 C693,1004.67 778,1004.67 778,1004.67 C778,1004.67 778,1251.19 778,1251.19z "/></g><g id="_R_G_L_3_G_L_5_G" transform=" translate(868.503, 1245.339)"><path id="_R_G_L_3_G_L_5_G_D_0_P_0" fill="#5c66d9" fill-opacity="1" fill-rule="nonzero" d=" M913 1251.19 C913,1251.19 828,1251.19 828,1251.19 C828,1251.19 828,835.49 828,835.49 C828,835.49 913,835.49 913,835.49 C913,835.49 913,1251.19 913,1251.19z "/></g><g id="_R_G_L_3_G_L_4_G" transform=" translate(1005.503, 1249.395)"><path id="_R_G_L_3_G_L_4_G_D_0_P_0" fill="#5c66d9" fill-opacity="1" fill-rule="nonzero" d=" M1048 1251.19 C1048,1251.19 963,1251.19 963,1251.19 C963,1251.19 963,955.6 963,955.6 C963,955.6 1048,955.6 1048,955.6 C1048,955.6 1048,1251.19 1048,1251.19z "/></g><g id="_R_G_L_3_G_L_3_G" transform=" translate(1140.503, 1245.214)"><path id="_R_G_L_3_G_L_3_G_D_0_P_0" fill="#5c66d9" fill-opacity="1" fill-rule="nonzero" d=" M1183 1251.19 C1183,1251.19 1098,1251.19 1098,1251.19 C1098,1251.19 1098,825.24 1098,825.24 C1098,825.24 1183,825.24 1183,825.24 C1183,825.24 1183,1251.19 1183,1251.19z "/></g><g id="_R_G_L_3_G_L_2_G" transform=" translate(1275.503, 1246.339)"><path id="_R_G_L_3_G_L_2_G_D_0_P_0" fill="#5c66d9" fill-opacity="1" fill-rule="nonzero" d=" M1318 1251.19 C1318,1251.19 1233,1251.19 1233,1251.19 C1233,1251.19 1233,847.49 1233,847.49 C1233,847.49 1318,847.49 1318,847.49 C1318,847.49 1318,1251.19 1318,1251.19z "/></g><g id="_R_G_L_3_G_L_1_G" transform=" translate(1408.503, 1245.589)"><path id="_R_G_L_3_G_L_1_G_D_0_P_0" fill="#5c66d9" fill-opacity="1" fill-rule="nonzero" d=" M1453 1251.19 C1453,1251.19 1368,1251.19 1368,1251.19 C1368,1251.19 1368,699.99 1368,699.99 C1368,699.99 1453,699.99 1453,699.99 C1453,699.99 1453,1251.19 1453,1251.19z "/></g><g id="_R_G_L_3_G_L_0_G" transform=" translate(1005, 931) translate(-5, 69)"><path id="_R_G_L_3_G_L_0_G_D_0_P_0" stroke="#7fdef3" stroke-linecap="round" stroke-linejoin="round" fill="none" stroke-width="15" stroke-opacity="1" d=" M-408 238 C-408,238 -265,83.5 -265,83.5 C-265,83.5 -129,-194 -129,-194 C-129,-194 5.5,59 5.5,59 C5.5,59 139.5,-60 139.5,-60 C139.5,-60 278,74.5 278,74.5 C278,74.5 414.5,-49.5 414.5,-49.5 "/></g></g><g id="_R_G_L_2_G"><g id="_R_G_L_2_G_L_5_G" transform=" translate(458.944, 1472.632)"><path id="_R_G_L_2_G_L_5_G_D_0_P_0" fill="#64acbc" fill-opacity="1" fill-rule="nonzero" d=" M469.22 1483.07 C477.38,1440.09 472.07,1394.35 454.34,1354.76 C436.61,1315.17 406.55,1281.95 370.02,1261.57 C388.53,1285.04 393.29,1317.25 395.17,1347.8 C397.04,1378.36 396.91,1409.91 407.99,1438.17 C419.08,1466.43 445.25,1490.89 473.87,1487.35 C473.87,1487.35 469.22,1483.07 469.22,1483.07z "/></g><g id="_R_G_L_2_G_L_4_G" transform=" translate(476.101, 1491.466)"><path id="_R_G_L_2_G_L_4_G_D_0_P_0" fill="#64acbc" fill-opacity="1" fill-rule="nonzero" d=" M469.82 1493.91 C461.67,1450.93 466.97,1405.19 484.71,1365.6 C502.44,1326.01 532.49,1292.79 569.03,1272.41 C550.52,1295.88 545.75,1328.08 543.88,1358.64 C542,1389.2 542.14,1420.74 531.05,1449 C519.97,1477.27 493.8,1501.73 465.18,1498.19 C465.18,1498.19 469.82,1493.91 469.82,1493.91z "/></g><g id="_R_G_L_2_G_L_3_G" transform=" translate(458.81, 1487.239)"><path id="_R_G_L_2_G_L_3_G_D_0_P_0" fill="#5c66d9" fill-opacity="1" fill-rule="nonzero" d=" M437.03 1473.47 C418.59,1442.78 413.56,1403.39 423.62,1368.59 C433.69,1333.79 458.68,1304.21 490.16,1289.83 C483.53,1333.84 516.23,1376.35 510.39,1420.48 C506.61,1449.04 485.16,1474.03 458.73,1480.64 C458.73,1480.64 437.03,1473.47 437.03,1473.47z "/></g><g id="_R_G_L_2_G_L_2_G" transform=" translate(455.891, 1531.108)"><path id="_R_G_L_2_G_L_2_G_D_0_P_0" fill="#7fdef3" fill-opacity="1" fill-rule="nonzero" d=" M450.45 1532.53 C450.37,1488.68 465.45,1444.93 492.76,1409.8 C520.07,1374.67 559.46,1348.35 603.25,1335.97 C578.39,1355.13 566.64,1385.72 558.38,1415.29 C550.11,1444.87 543.82,1475.83 526.03,1501.24 C508.24,1526.64 474.86,1545.19 444.53,1535.75 C444.53,1535.75 450.45,1532.53 450.45,1532.53z "/></g><g id="_R_G_L_2_G_L_1_G" transform=" translate(454.802, 1532.461)"><path id="_R_G_L_2_G_L_1_G_D_0_P_0" fill="#7fdef3" fill-opacity="1" fill-rule="nonzero" d=" M464.23 1534.88 C464.3,1491.03 450.45,1447.28 425.38,1412.15 C400.31,1377.02 364.15,1350.7 323.95,1338.32 C346.77,1357.48 357.55,1388.07 365.14,1417.65 C372.73,1447.22 378.5,1478.18 394.84,1503.59 C411.17,1529 441.82,1547.54 469.66,1538.1 C469.66,1538.1 464.23,1534.88 464.23,1534.88z "/></g><g id="_R_G_L_2_G_L_0_G"><path id="_R_G_L_2_G_L_0_G_D_0_P_0" fill="#ffffff" fill-opacity="1" fill-rule="nonzero" d=" M537.79 1684.51 C537.79,1684.51 379.41,1684.51 379.41,1684.51 C379.41,1684.51 352.18,1519.6 352.18,1519.6 C352.18,1519.6 565.01,1519.6 565.01,1519.6 C565.01,1519.6 537.79,1684.51 537.79,1684.51z "/><path id="_R_G_L_2_G_L_0_G_D_1_P_0" fill="#7fdef3" fill-opacity="1" fill-rule="nonzero" d=" M539.38 1686.38 C539.38,1686.38 377.82,1686.38 377.82,1686.38 C377.82,1686.38 349.97,1517.72 349.97,1517.72 C349.97,1517.72 567.22,1517.72 567.22,1517.72 C567.22,1517.72 539.38,1686.38 539.38,1686.38z  M381 1682.63 C381,1682.63 536.19,1682.63 536.19,1682.63 C536.19,1682.63 562.8,1521.47 562.8,1521.47 C562.8,1521.47 354.39,1521.47 354.39,1521.47 C354.39,1521.47 381,1682.63 381,1682.63z "/></g></g><g id="_R_G_L_1_G"><g id="_R_G_L_1_G_L_6_G"><path id="_R_G_L_1_G_L_6_G_D_0_P_0" fill="#ffffff" fill-opacity="1" fill-rule="nonzero" d=" M747.56 820.12 C747.56,820.12 264.98,820.12 264.98,820.12 C264.98,820.12 264.98,441.05 264.98,441.05 C264.98,441.05 747.56,441.05 747.56,441.05 C747.56,441.05 747.56,820.12 747.56,820.12z "/><path id="_R_G_L_1_G_L_6_G_D_1_P_0" fill="#7fdef3" fill-opacity="1" fill-rule="nonzero" d=" M750.06 822.62 C750.06,822.62 262.48,822.62 262.48,822.62 C262.48,822.62 262.48,438.55 262.48,438.55 C262.48,438.55 750.06,438.55 750.06,438.55 C750.06,438.55 750.06,822.62 750.06,822.62z  M267.48 817.62 C267.48,817.62 745.06,817.62 745.06,817.62 C745.06,817.62 745.06,443.55 745.06,443.55 C745.06,443.55 267.48,443.55 267.48,443.55 C267.48,443.55 267.48,817.62 267.48,817.62z "/><path id="_R_G_L_1_G_L_6_G_D_2_P_0" fill="#7fdef3" fill-opacity="1" fill-rule="nonzero" d=" M681.55 758.86 C681.55,758.86 331.64,758.86 331.64,758.86 C331.64,758.86 331.64,617.68 331.64,617.68 C331.64,617.68 334.26,617.68 334.26,617.68 C334.26,617.68 334.26,756.24 334.26,756.24 C334.26,756.24 681.55,756.24 681.55,756.24 C681.55,756.24 681.55,758.86 681.55,758.86z "/></g><g id="_R_G_L_1_G_L_5_G"><path id="_R_G_L_1_G_L_5_G_D_0_P_0" fill="#5c66d9" fill-opacity="1" fill-rule="nonzero" d=" M439.38 564.78 C439.38,564.78 330.54,564.78 330.54,564.78 C330.54,564.78 330.54,503.15 330.54,503.15 C330.54,503.15 439.38,503.15 439.38,503.15 C439.38,503.15 439.38,564.78 439.38,564.78z "/></g><g id="_R_G_L_1_G_L_4_G" transform=" translate(486.284, 530.967)"><path id="_R_G_L_1_G_L_4_G_D_0_P_0" fill="#7fdef3" fill-opacity="1" fill-rule="nonzero" d=" M683.29 511.72 C683.29,511.72 485.28,511.72 485.28,511.72 C485.28,511.72 485.28,509.09 485.28,509.09 C485.28,509.09 683.29,509.09 683.29,509.09 C683.29,509.09 683.29,511.72 683.29,511.72z "/><path id="_R_G_L_1_G_L_4_G_D_1_P_0" fill="#5c66d9" fill-opacity="1" fill-rule="nonzero" d=" M683.29 535.28 C683.29,535.28 485.28,535.28 485.28,535.28 C485.28,535.28 485.28,532.66 485.28,532.66 C485.28,532.66 683.29,532.66 683.29,532.66 C683.29,532.66 683.29,535.28 683.29,535.28z "/><path id="_R_G_L_1_G_L_4_G_D_2_P_0" fill="#5c66d9" fill-opacity="1" fill-rule="nonzero" d=" M683.29 558.84 C683.29,558.84 485.28,558.84 485.28,558.84 C485.28,558.84 485.28,556.22 485.28,556.22 C485.28,556.22 683.29,556.22 683.29,556.22 C683.29,556.22 683.29,558.84 683.29,558.84z "/></g><g id="_R_G_L_1_G_L_3_G" transform=" translate(403.421, 761.823)"><path id="_R_G_L_1_G_L_3_G_D_0_P_0" fill="#5c66d9" fill-opacity="1" fill-rule="nonzero" d=" M404.42 758.16 C404.42,758.16 381.69,758.16 381.69,758.16 C381.69,758.16 381.69,687.75 381.69,687.75 C381.69,687.75 404.42,687.75 404.42,687.75 C404.42,687.75 404.42,758.16 404.42,758.16z "/><path id="_R_G_L_1_G_L_3_G_D_1_P_0" fill="#7fdef3" fill-opacity="1" fill-rule="nonzero" d=" M427.15 758.16 C427.15,758.16 404.42,758.16 404.42,758.16 C404.42,758.16 404.42,653.48 404.42,653.48 C404.42,653.48 427.15,653.48 427.15,653.48 C427.15,653.48 427.15,758.16 427.15,758.16z "/></g><g id="_R_G_L_1_G_L_2_G" transform=" translate(489.221, 755.179)"><path id="_R_G_L_1_G_L_2_G_D_0_P_0" fill="#5c66d9" fill-opacity="1" fill-rule="nonzero" d=" M489.22 757.72 C489.22,757.72 466.49,757.72 466.49,757.72 C466.49,757.72 466.49,641.64 466.49,641.64 C466.49,641.64 489.22,641.64 489.22,641.64 C489.22,641.64 489.22,757.72 489.22,757.72z "/><path id="_R_G_L_1_G_L_2_G_D_1_P_0" fill="#7fdef3" fill-opacity="1" fill-rule="nonzero" d=" M511.95 757.72 C511.95,757.72 489.22,757.72 489.22,757.72 C489.22,757.72 489.22,714.76 489.22,714.76 C489.22,714.76 511.95,714.76 511.95,714.76 C511.95,714.76 511.95,757.72 511.95,757.72z "/></g><g id="_R_G_L_1_G_L_1_G" transform=" translate(575.022, 753.987)"><path id="_R_G_L_1_G_L_1_G_D_0_P_0" fill="#5c66d9" fill-opacity="1" fill-rule="nonzero" d=" M574.02 758.07 C574.02,758.07 551.29,758.07 551.29,758.07 C551.29,758.07 551.29,677.68 551.29,677.68 C551.29,677.68 574.02,677.68 574.02,677.68 C574.02,677.68 574.02,758.07 574.02,758.07z "/><path id="_R_G_L_1_G_L_1_G_D_1_P_0" fill="#7fdef3" fill-opacity="1" fill-rule="nonzero" d=" M596.75 758.07 C596.75,758.07 574.02,758.07 574.02,758.07 C574.02,758.07 574.02,659.91 574.02,659.91 C574.02,659.91 596.75,659.91 596.75,659.91 C596.75,659.91 596.75,758.07 596.75,758.07z "/></g><g id="_R_G_L_1_G_L_0_G" transform=" translate(657.823, 754.674)"><path id="_R_G_L_1_G_L_0_G_D_0_P_0" fill="#5c66d9" fill-opacity="1" fill-rule="nonzero" d=" M658.82 757.55 C658.82,757.55 636.09,757.55 636.09,757.55 C636.09,757.55 636.09,701.49 636.09,701.49 C636.09,701.49 658.82,701.49 658.82,701.49 C658.82,701.49 658.82,757.55 658.82,757.55z "/><path id="_R_G_L_1_G_L_0_G_D_1_P_0" fill="#7fdef3" fill-opacity="1" fill-rule="nonzero" d=" M681.55 757.55 C681.55,757.55 658.82,757.55 658.82,757.55 C658.82,757.55 658.82,623.79 658.82,623.79 C658.82,623.79 681.55,623.79 681.55,623.79 C681.55,623.79 681.55,757.55 681.55,757.55z "/></g></g><g id="_R_G_L_0_G"><g id="_R_G_L_0_G_L_6_G"><path id="_R_G_L_0_G_L_6_G_D_0_P_0" fill="#1b1b43" fill-opacity="1" fill-rule="nonzero" d=" M1681.35 1616.82 C1681.35,1616.82 1696.35,1683.88 1696.35,1683.88 C1696.35,1683.88 1594.48,1683.69 1594.48,1683.69 C1594.48,1683.69 1636.98,1647.01 1636.98,1647.01 C1636.98,1647.01 1633.85,1613.69 1633.85,1613.69 C1633.85,1613.69 1681.35,1616.82 1681.35,1616.82z "/><path id="_R_G_L_0_G_L_6_G_D_1_P_0" fill="#ebebff" fill-opacity="1" fill-rule="nonzero" d=" M1652.64 1662.63 C1652.64,1662.63 1635.77,1648.45 1635.77,1648.45 C1635.77,1648.45 1638.18,1645.57 1638.18,1645.57 C1638.18,1645.57 1655.06,1659.76 1655.06,1659.76 C1655.06,1659.76 1652.64,1662.63 1652.64,1662.63z "/><path id="_R_G_L_0_G_L_6_G_D_2_P_0" fill="#1b1b43" fill-opacity="1" fill-rule="nonzero" d=" M1480.73 1615.76 C1480.73,1615.76 1488.23,1683.88 1488.23,1683.88 C1488.23,1683.88 1378.85,1683.88 1378.85,1683.88 C1378.85,1683.88 1428.85,1647.01 1428.85,1647.01 C1428.85,1647.01 1428.85,1613.26 1428.85,1613.26 C1428.85,1613.26 1480.73,1615.76 1480.73,1615.76z "/><path id="_R_G_L_0_G_L_6_G_D_3_P_0" fill="#ebebff" fill-opacity="1" fill-rule="nonzero" d=" M1444.52 1662.63 C1444.52,1662.63 1427.64,1648.45 1427.64,1648.45 C1427.64,1648.45 1430.06,1645.57 1430.06,1645.57 C1430.06,1645.57 1446.93,1659.76 1446.93,1659.76 C1446.93,1659.76 1444.52,1662.63 1444.52,1662.63z "/><path id="_R_G_L_0_G_L_6_G_D_4_P_0" fill="#03255a" fill-opacity="1" fill-rule="nonzero" d=" M1699.48 1624.94 C1699.48,1624.94 1683.23,1625.17 1683.23,1625.17 C1683.23,1625.17 1635,1625.82 1635,1625.82 C1635,1625.82 1608.23,1626.19 1608.23,1626.19 C1581.98,1535.47 1557.4,1446.54 1537.3,1362.52 C1533.35,1346.04 1529.58,1329.74 1526.03,1313.69 C1512.8,1254.17 1502.25,1197.54 1495.53,1145.07 C1494.08,1133.79 1492.8,1122.72 1491.73,1111.84 C1490.85,1103.17 1490.1,1094.62 1489.48,1086.19 C1489.48,1086.19 1609.48,1106.19 1609.48,1106.19 C1610.68,1117.57 1611.95,1128.97 1613.3,1140.44 C1631.38,1295.37 1662.25,1458.19 1699.48,1624.94z "/><path id="_R_G_L_0_G_L_6_G_D_5_P_0" fill="#03255a" fill-opacity="1" fill-rule="nonzero" d=" M1545.73 1102.44 C1545.73,1102.44 1541.93,1143.24 1541.93,1143.24 C1541.93,1143.24 1526.6,1307.44 1526.6,1307.44 C1526.6,1307.44 1526.03,1313.69 1526.03,1313.69 C1526.03,1313.69 1496.98,1624.94 1496.98,1624.94 C1496.98,1624.94 1407.4,1624.94 1407.4,1624.94 C1409.18,1444.89 1415.05,1273.74 1438.65,1147.32 C1440.38,1137.99 1442.23,1128.94 1444.15,1120.12 C1444.15,1120.12 1491.73,1111.84 1491.73,1111.84 C1491.73,1111.84 1545.73,1102.44 1545.73,1102.44z "/><path id="_R_G_L_0_G_L_6_G_D_6_P_0" fill="#1b1b43" fill-opacity="1" fill-rule="nonzero" d=" M1538.25 1373.93 C1538.25,1373.93 1504.08,1198.1 1504.08,1198.1 C1504.08,1198.1 1506.54,1197.62 1506.54,1197.62 C1506.54,1197.62 1540.7,1373.45 1540.7,1373.45 C1540.7,1373.45 1538.25,1373.93 1538.25,1373.93z "/><path id="_R_G_L_0_G_L_6_G_D_7_P_0" fill="#1b1b43" fill-opacity="1" fill-rule="nonzero" d=" M1613.3 1140.44 C1613.3,1140.44 1541.93,1143.24 1541.93,1143.24 C1541.93,1143.24 1495.53,1145.07 1495.53,1145.07 C1495.53,1145.07 1438.65,1147.32 1438.65,1147.32 C1440.38,1137.99 1442.23,1128.94 1444.15,1120.12 C1444.15,1120.12 1491.73,1111.84 1491.73,1111.84 C1490.85,1103.17 1490.1,1094.62 1489.48,1086.19 C1489.48,1086.19 1609.48,1106.19 1609.48,1106.19 C1610.68,1117.57 1611.95,1128.97 1613.3,1140.44z "/><path id="_R_G_L_0_G_L_6_G_D_8_P_0" fill="#9d39dc" fill-opacity="1" fill-rule="nonzero" d=" M1479.78 914.96 C1479.78,914.96 1525.76,909.21 1525.76,909.21 C1525.76,909.21 1621.73,929.33 1621.73,929.33 C1621.73,929.33 1622.28,1102.34 1622.28,1102.34 C1622.29,1107.08 1620.35,1111.62 1616.9,1114.88 C1613.73,1117.88 1609.53,1119.55 1605.17,1119.57 C1605.17,1119.57 1444.15,1120.12 1444.15,1120.12 C1444.15,1120.12 1413.12,1026.45 1413.12,1026.45 C1413.12,1026.45 1443.01,937.95 1443.01,937.95 C1443.01,937.95 1479.78,914.96 1479.78,914.96z "/><path id="_R_G_L_0_G_L_6_G_D_9_P_0" fill="#1b1b43" fill-opacity="1" fill-rule="nonzero" d=" M1537.13 952.87 C1527.2,952.87 1517.58,949.34 1510.08,942.29 C1510.08,942.29 1511.37,940.92 1511.37,940.92 C1525.65,954.36 1548.09,954.34 1564.72,940.88 C1564.72,940.88 1565.9,942.34 1565.9,942.34 C1557.23,949.36 1547.03,952.87 1537.13,952.87z "/><path id="_R_G_L_0_G_L_6_G_D_10_P_0" fill="#ffbc96" fill-opacity="1" fill-rule="nonzero" d=" M1383.23 1023.07 C1383.23,1023.07 1424.48,1074.94 1424.48,1074.94 C1424.48,1074.94 1431.98,1076.81 1431.98,1076.81 C1431.98,1076.81 1438.16,1016.44 1438.16,1016.44 C1438.16,1016.44 1395.95,996.52 1395.95,996.52 C1395.95,996.52 1383.23,1023.07 1383.23,1023.07z "/><path id="_R_G_L_0_G_L_6_G_D_11_P_0" fill="#9d39dc" fill-opacity="1" fill-rule="nonzero" d=" M1520.73 903.69 C1520.73,903.69 1460.48,913.23 1460.48,913.23 C1443.81,915.87 1429.49,926.53 1422.2,941.76 C1422.2,941.76 1395.95,996.52 1395.95,996.52 C1395.95,996.52 1438.16,1016.44 1438.16,1016.44 C1438.16,1016.44 1442.6,973.07 1442.6,973.07 C1442.6,973.07 1520.73,903.69 1520.73,903.69z "/><path id="_R_G_L_0_G_L_6_G_D_12_P_0" fill="#fe5b52" fill-opacity="1" fill-rule="nonzero" d=" M1664.78 1066.69 C1663.33,1088.12 1650.38,1097.24 1633.93,1100.99 C1630.65,1096.97 1628.65,1091.82 1628.65,1086.19 C1628.65,1073.32 1639.1,1062.87 1651.98,1062.87 C1656.7,1062.87 1661.1,1064.29 1664.78,1066.69z "/><path id="_R_G_L_0_G_L_6_G_D_13_P_0" fill="#1b1b43" fill-opacity="1" fill-rule="nonzero" d=" M1430.41 1089.62 C1430.41,1089.62 1428.54,1089.41 1428.54,1089.41 C1428.54,1089.41 1441.67,972.96 1441.67,972.96 C1441.67,972.96 1443.53,973.17 1443.53,973.17 C1443.53,973.17 1430.41,1089.62 1430.41,1089.62z "/></g><g id="_R_G_L_0_G_L_5_G" transform=" translate(1748.595, 839.597)"><path id="_R_G_L_0_G_L_5_G_D_0_P_0" fill="#ffffff" fill-opacity="1" fill-rule="nonzero" d=" M1706.86 794.02 C1706.86,794.02 1706.86,862.68 1706.86,862.68 C1706.86,862.68 1675.19,885.17 1675.19,885.17 C1675.19,885.17 1706.86,885.17 1706.86,885.17 C1706.86,885.17 1824.66,885.17 1824.66,885.17 C1824.66,885.17 1824.66,794.02 1824.66,794.02 C1824.66,794.02 1706.86,794.02 1706.86,794.02z "/><path id="_R_G_L_0_G_L_5_G_D_1_P_0" fill="#7fdef3" fill-opacity="1" fill-rule="nonzero" d=" M1825.91 886.42 C1825.91,886.42 1671.28,886.42 1671.28,886.42 C1671.28,886.42 1705.61,862.03 1705.61,862.03 C1705.61,862.03 1705.61,792.77 1705.61,792.77 C1705.61,792.77 1825.91,792.77 1825.91,792.77 C1825.91,792.77 1825.91,886.42 1825.91,886.42z  M1679.11 883.92 C1679.11,883.92 1823.41,883.92 1823.41,883.92 C1823.41,883.92 1823.41,795.27 1823.41,795.27 C1823.41,795.27 1708.11,795.27 1708.11,795.27 C1708.11,795.27 1708.11,863.32 1708.11,863.32 C1708.11,863.32 1679.11,883.92 1679.11,883.92z "/><path id="_R_G_L_0_G_L_5_G_D_2_P_0" fill="#7fdef3" fill-opacity="1" fill-rule="nonzero" d=" M1764.15 863.83 C1764.15,863.83 1744.92,845.31 1744.92,845.31 C1744.92,845.31 1748.39,841.71 1748.39,841.71 C1748.39,841.71 1762.9,855.69 1762.9,855.69 C1762.9,855.69 1787.58,810.44 1787.58,810.44 C1787.58,810.44 1791.97,812.83 1791.97,812.83 C1791.97,812.83 1764.15,863.83 1764.15,863.83z "/></g><g id="_R_G_L_0_G_L_4_G" transform=" translate(1000, 1000) translate(0, 0)"><path id="_R_G_L_0_G_L_4_G_D_0_P_0" stroke="#7fdef3" stroke-linecap="round" stroke-linejoin="round" fill="none" stroke-width="33" stroke-opacity="1" d="  "/></g><g id="_R_G_L_0_G_L_3_G" transform=" translate(1613.208, 947.777)"><path id="_R_G_L_0_G_L_3_G_D_0_P_0" fill="#9d39dc" fill-opacity="1" fill-rule="nonzero" d=" M1639.89 942.45 C1636.38,926.67 1623.43,914.73 1607.41,912.53 C1607.41,912.53 1546.14,904.11 1546.14,904.11 C1546.14,904.11 1583.23,967.44 1583.23,967.44 C1583.23,967.44 1594.68,1007.08 1594.68,1007.08 C1594.68,1007.08 1652.42,998.93 1652.42,998.93 C1652.42,998.93 1639.89,942.45 1639.89,942.45z "/><path id="_R_G_L_0_G_L_3_G_D_1_P_0" fill="#ffbc96" fill-opacity="1" fill-rule="nonzero" d=" M1664.78 1066.69 C1663.33,1088.12 1650.38,1097.24 1633.93,1100.99 C1616.78,1104.89 1595.85,1102.97 1580.13,1103.02 C1554.28,1103.09 1528.43,1101.97 1502.6,1100.57 C1502.6,1100.57 1436.98,1101.19 1436.98,1101.19 C1436.98,1101.19 1429.48,1089.52 1429.48,1089.52 C1438.03,1077.44 1461.15,1061.62 1501.55,1071.19 C1501.55,1071.19 1606.35,1047.44 1606.35,1047.44 C1606.35,1047.44 1594.68,1007.07 1594.68,1007.07 C1594.68,1007.07 1652.43,998.94 1652.43,998.94 C1652.43,998.94 1664.25,1052.27 1664.25,1052.27 C1664.95,1057.62 1665.1,1062.39 1664.78,1066.69z "/><path id="_R_G_L_0_G_L_3_G_D_2_P_0" fill="#1b1b43" fill-opacity="1" fill-rule="nonzero" d=" M1605.45 1047.7 C1605.45,1047.7 1582.33,967.7 1582.33,967.7 C1582.33,967.7 1584.13,967.18 1584.13,967.18 C1584.13,967.18 1607.25,1047.18 1607.25,1047.18 C1607.25,1047.18 1605.45,1047.7 1605.45,1047.7z "/></g><g id="_R_G_L_0_G_L_2_G"><path id="_R_G_L_0_G_L_2_G_D_0_P_0" fill="#ffbc96" fill-opacity="1" fill-rule="nonzero" d=" M1537.46 937.23 C1537.46,937.23 1537.46,937.23 1537.46,937.23 C1522.42,937.23 1510.23,925.04 1510.23,910 C1510.23,910 1510.23,850.98 1510.23,850.98 C1510.23,850.98 1564.68,850.98 1564.68,850.98 C1564.68,850.98 1564.68,910 1564.68,910 C1564.68,925.04 1552.49,937.23 1537.46,937.23z "/></g><g id="_R_G_L_0_G_L_1_G" transform=" translate(1546.097, 870.342)"><path id="_R_G_L_0_G_L_1_G_D_0_P_0" fill="#1b1b43" fill-opacity="1" fill-rule="nonzero" d=" M1559.74 766.84 C1559.41,762.61 1559.61,758.27 1560.91,754.12 C1562.18,750 1564.87,746.15 1568.71,743.88 C1570.61,742.76 1572.72,742 1574.89,741.63 C1577.06,741.25 1579.27,741.25 1581.44,741.5 C1585.78,742.01 1589.94,743.58 1593.6,745.94 C1597.25,748.3 1600.38,751.58 1602.32,755.55 C1604.29,759.5 1604.71,764.24 1603.48,768.46 C1602.27,772.71 1599.73,776.37 1596.79,779.47 C1593.79,782.53 1590.37,785.11 1586.76,787.33 C1586.76,787.33 1586.36,786.72 1586.36,786.72 C1589.78,784.3 1593.06,781.67 1595.83,778.58 C1598.6,775.51 1600.9,771.97 1601.9,768.04 C1602.92,764.14 1602.55,759.93 1600.71,756.34 C1598.93,752.71 1595.98,749.73 1592.58,747.5 C1589.18,745.26 1585.26,743.75 1581.23,743.25 C1577.2,742.72 1573.02,743.29 1569.5,745.25 C1565.98,747.22 1563.44,750.66 1562.11,754.53 C1561.42,756.46 1560.99,758.49 1560.73,760.55 C1560.48,762.61 1560.44,764.7 1560.47,766.8 C1560.47,766.8 1559.74,766.84 1559.74,766.84z "/><path id="_R_G_L_0_G_L_1_G_D_1_P_0" fill="#1b1b43" fill-opacity="1" fill-rule="nonzero" d=" M1600.24 767.8 C1600.24,778.87 1591.27,787.84 1580.2,787.84 C1569.13,787.84 1560.15,778.87 1560.15,767.8 C1560.15,756.73 1569.13,747.75 1580.2,747.75 C1591.27,747.75 1600.24,756.73 1600.24,767.8z "/><path id="_R_G_L_0_G_L_1_G_D_2_P_0" fill="#1b1b43" fill-opacity="1" fill-rule="nonzero" d=" M1595.38 878.69 C1595.38,878.69 1584.63,862.24 1584.63,862.24 C1584.63,862.24 1588.78,880.44 1588.78,880.44 C1588.78,880.44 1548.68,863.24 1548.68,863.24 C1548.68,863.24 1481.98,893.07 1481.98,893.07 C1481.98,893.07 1487.6,837.74 1487.6,837.74 C1469.8,828.99 1457.18,772.59 1524.75,763.09 C1537.03,761.37 1549.63,762.47 1561.03,767.29 C1595.78,781.99 1607.53,820.97 1610.73,874.64 C1610.73,874.64 1595.38,878.69 1595.38,878.69z "/><path id="_R_G_L_0_G_L_1_G_D_3_P_0" fill="#303032" fill-opacity="0.5" fill-rule="nonzero" d=" M1547.1 875.77 C1541.27,892.96 1523.81,900.1 1506.42,904.45 C1506.42,904.45 1509.1,880.87 1509.1,880.87 C1509.1,880.87 1547.1,875.77 1547.1,875.77z "/><path id="_R_G_L_0_G_L_1_G_D_4_P_0" fill="#ffbc96" fill-opacity="1" fill-rule="nonzero" d=" M1563.53 793.69 C1563.53,793.69 1561.77,870.15 1561.77,870.15 C1561.77,870.15 1529.63,893.54 1507.13,886.82 C1499.58,884.57 1494.45,875.99 1490.98,865.32 C1489.33,860.24 1488.05,854.67 1487.05,849.07 C1483.53,828.94 1483.7,808.39 1483.7,808.39 C1483.7,808.39 1563.53,793.69 1563.53,793.69z "/><path id="_R_G_L_0_G_L_1_G_D_5_P_0" fill="#1b1b43" fill-opacity="1" fill-rule="nonzero" d=" M1497.77 840.71 C1497.77,842.99 1496.41,844.83 1494.72,844.83 C1493.04,844.83 1491.68,842.99 1491.68,840.71 C1491.68,838.44 1493.04,836.6 1494.72,836.6 C1496.41,836.6 1497.77,838.44 1497.77,840.71z "/><path id="_R_G_L_0_G_L_1_G_D_6_P_0" fill="#1b1b43" fill-opacity="1" fill-rule="nonzero" d=" M1521.3 838.9 C1521.3,841.53 1519.76,843.67 1517.86,843.67 C1515.96,843.67 1514.42,841.53 1514.42,838.9 C1514.42,836.27 1515.96,834.14 1517.86,834.14 C1519.76,834.14 1521.3,836.27 1521.3,838.9z "/><path id="_R_G_L_0_G_L_1_G_D_7_P_0" fill="#1b1b43" fill-opacity="1" fill-rule="nonzero" d=" M1529.07 829.2 C1528.95,830.37 1525.04,830.64 1520.71,829.88 C1516.37,829.12 1512.67,829.34 1513.37,826.46 C1513.94,824.1 1517.37,824.3 1521.71,825.06 C1526.04,825.81 1529.18,828.18 1529.07,829.2z "/><path id="_R_G_L_0_G_L_1_G_D_8_P_0" fill="#1b1b43" fill-opacity="1" fill-rule="nonzero" d=" M1486.66 831.83 C1486.81,832.98 1490.14,832.93 1493.79,831.82 C1497.44,830.71 1500.59,830.63 1499.88,827.81 C1499.3,825.51 1496.4,825.99 1492.75,827.1 C1489.1,828.21 1486.53,830.82 1486.66,831.83z "/><path id="_R_G_L_0_G_L_1_G_D_9_P_0" fill="#fe5b52" fill-opacity="1" fill-rule="nonzero" d=" M1544.01 848.85 C1544.01,853.77 1540.02,857.75 1535.1,857.75 C1530.18,857.75 1526.2,853.77 1526.2,848.85 C1526.2,843.93 1530.18,839.94 1535.1,839.94 C1540.02,839.94 1544.01,843.93 1544.01,848.85z "/><path id="_R_G_L_0_G_L_1_G_D_10_P_0" fill="#fe5b52" fill-opacity="1" fill-rule="nonzero" d=" M1494.95 857.92 C1494.95,861.02 1493.38,863.72 1490.98,865.32 C1489.33,860.24 1488.05,854.67 1487.05,849.07 C1491.5,849.57 1494.95,853.34 1494.95,857.92z "/><path id="_R_G_L_0_G_L_1_G_D_11_P_0" fill="#1b1b43" fill-opacity="1" fill-rule="nonzero" d=" M1504.81 844.35 C1504.91,845.14 1504.72,845.96 1504.41,846.68 C1504.1,847.4 1503.69,848.02 1503.28,848.59 C1502.46,849.74 1501.66,850.73 1501.45,851.63 C1501.34,852.07 1501.38,852.52 1501.49,852.97 C1501.6,853.42 1501.85,853.82 1502.2,854.21 C1502.92,854.98 1504.06,855.57 1505.3,856.02 C1505.3,856.02 1505.21,856.99 1505.21,856.99 C1503.74,857.16 1502.14,856.89 1500.76,855.87 C1500.08,855.36 1499.49,854.61 1499.18,853.74 C1498.91,852.89 1498.79,851.93 1499.04,851.03 C1499.56,849.24 1500.73,848.16 1501.65,847.22 C1502.6,846.26 1503.42,845.45 1503.83,844.28 C1503.83,844.28 1504.81,844.35 1504.81,844.35z "/><path id="_R_G_L_0_G_L_1_G_D_12_P_0" fill="#ffffff" fill-opacity="1" fill-rule="nonzero" d=" M1502.45 864.63 C1505.73,875.1 1520,861.63 1520.88,859.94 C1520.88,859.94 1502.45,864.63 1502.45,864.63z "/><path id="_R_G_L_0_G_L_1_G_D_13_P_0" fill="#1b1b43" fill-opacity="1" fill-rule="nonzero" d=" M1481.04 820.57 C1504.57,820.52 1524.31,818.36 1542.91,809.32 C1544.92,824.67 1551.51,832.08 1560.41,836.19 C1560.41,836.19 1579.16,820.57 1579.16,820.57 C1579.16,820.57 1569.48,789 1569.48,789 C1569.48,789 1518.54,786.19 1518.54,786.19 C1518.54,786.19 1479.16,805.88 1479.16,805.88 C1479.16,805.88 1481.04,820.57 1481.04,820.57z "/><path id="_R_G_L_0_G_L_1_G_D_14_P_0" fill="#ffbc96" fill-opacity="1" fill-rule="nonzero" d=" M1575.12 847.37 C1570.06,854.57 1561.88,857.55 1556.87,854.03 C1551.86,850.5 1551.9,841.8 1556.97,834.59 C1562.04,827.39 1570.21,824.41 1575.22,827.94 C1580.24,831.46 1580.19,840.16 1575.12,847.37z "/><path id="_R_G_L_0_G_L_1_G_D_15_P_0" fill="#1b1b43" fill-opacity="1" fill-rule="nonzero" d=" M1561.67 846.17 C1561.31,844.88 1561.2,843.5 1561.36,842.11 C1561.51,840.72 1561.98,839.29 1562.84,838.07 C1563.69,836.84 1564.92,835.89 1566.24,835.33 C1567.56,834.77 1568.95,834.55 1570.31,834.63 C1570.31,834.63 1570.48,835.6 1570.48,835.6 C1569.31,836.14 1568.22,836.65 1567.26,837.28 C1566.31,837.9 1565.5,838.63 1564.87,839.5 C1564.23,840.37 1563.8,841.41 1563.45,842.53 C1563.11,843.65 1562.9,844.86 1562.65,846.13 C1562.65,846.13 1561.67,846.17 1561.67,846.17z "/><path id="_R_G_L_0_G_L_1_G_D_16_P_0" fill="#9d39dc" fill-opacity="1" fill-rule="nonzero" d=" M1586.56 787.02 C1583.96,785.51 1581.74,783.76 1579.54,782.04 C1579.54,782.04 1573.2,776.81 1573.2,776.81 C1571.12,775.09 1569.06,773.38 1566.92,771.74 C1564.78,770.07 1562.57,768.52 1560.1,766.82 C1563.1,766.49 1566.11,767.2 1568.87,768.33 C1571.63,769.48 1574.15,771.09 1576.4,772.97 C1578.66,774.86 1580.65,777 1582.37,779.33 C1584.07,781.69 1585.57,784.19 1586.56,787.02z "/></g><g id="_R_G_L_0_G_L_0_G"><path id="_R_G_L_0_G_L_0_G_D_0_P_0" fill="#1b1b43" fill-opacity="1" fill-rule="nonzero" d=" M1497.81 1120.36 C1497.81,1120.36 1431.56,1120.36 1431.56,1120.36 C1431.56,1120.36 1431.56,1100.77 1431.56,1100.77 C1431.56,1100.77 1497.81,1100.77 1497.81,1100.77 C1497.81,1100.77 1497.81,1120.36 1497.81,1120.36z "/><path id="_R_G_L_0_G_L_0_G_D_1_P_0" fill="#ebebff" fill-opacity="1" fill-rule="nonzero" d=" M1452.81 1120.36 C1452.81,1120.36 1302.81,1120.36 1302.81,1120.36 C1302.81,1120.36 1236.98,978.17 1236.98,978.17 C1236.98,978.17 1386.98,978.17 1386.98,978.17 C1386.98,978.17 1452.81,1120.36 1452.81,1120.36z "/><path id="_R_G_L_0_G_L_0_G_D_2_P_0" fill="#ffbc96" fill-opacity="1" fill-rule="nonzero" d=" M1397.29 1114 C1393.77,1114.64 1391.67,1117.53 1391.5,1120.96 C1391.5,1120.96 1391.5,1105.46 1391.5,1105.46 C1391.5,1102.33 1389.27,1099.48 1386.17,1099.13 C1382.61,1098.72 1379.61,1101.41 1379.45,1104.84 C1379.45,1104.84 1379.45,1098.59 1379.45,1098.59 C1379.45,1095.43 1377.17,1092.55 1374.03,1092.24 C1370.41,1091.87 1367.36,1094.7 1367.36,1098.25 C1367.36,1098.25 1367.36,1104.84 1367.36,1104.84 C1367.2,1101.41 1364.2,1098.72 1360.64,1099.13 C1357.54,1099.48 1355.31,1102.33 1355.31,1105.46 C1355.31,1105.46 1355.31,1117.76 1355.31,1117.76 C1355.14,1114.62 1352.75,1110.71 1349.48,1110.41 C1342.76,1109.78 1344.24,1121.59 1344.24,1121.59 C1346.19,1133.53 1349.72,1134.85 1356.88,1135.36 C1368.05,1136.16 1379.37,1136.13 1390.81,1135.36 C1398.01,1134.87 1399.14,1134.09 1402.29,1123.38 C1403.35,1118.77 1402.44,1113.07 1397.29,1114z "/><path id="_R_G_L_0_G_L_0_G_D_3_P_0" fill="#d28572" fill-opacity="1" fill-rule="nonzero" d=" M1355.47 1109.31 C1355.97,1111.83 1356.15,1114.36 1356.24,1116.89 C1356.28,1118.16 1356.29,1119.43 1356.24,1120.7 C1356.19,1121.97 1356.1,1123.24 1355.89,1124.51 C1355.89,1124.51 1355.15,1124.53 1355.15,1124.53 C1354.87,1123.27 1354.71,1122.01 1354.59,1120.74 C1354.47,1119.48 1354.41,1118.21 1354.38,1116.95 C1354.33,1114.41 1354.37,1111.87 1354.74,1109.33 C1354.74,1109.33 1355.47,1109.31 1355.47,1109.31z "/><path id="_R_G_L_0_G_L_0_G_D_4_P_0" fill="#d28572" fill-opacity="1" fill-rule="nonzero" d=" M1367.73 1104.83 C1368.23,1107.51 1368.42,1110.2 1368.52,1112.89 C1368.56,1114.23 1368.57,1115.58 1368.52,1116.92 C1368.48,1118.27 1368.39,1119.62 1368.18,1120.97 C1368.18,1120.97 1367.44,1120.99 1367.44,1120.99 C1367.16,1119.65 1366.99,1118.31 1366.88,1116.97 C1366.75,1115.63 1366.69,1114.28 1366.65,1112.94 C1366.6,1110.25 1366.64,1107.55 1367,1104.85 C1367,1104.85 1367.73,1104.83 1367.73,1104.83z "/><path id="_R_G_L_0_G_L_0_G_D_5_P_0" fill="#d28572" fill-opacity="1" fill-rule="nonzero" d=" M1379.81 1104.82 C1380.35,1107.36 1380.57,1109.9 1380.71,1112.45 C1380.77,1113.73 1380.79,1115.01 1380.76,1116.29 C1380.73,1117.57 1380.66,1118.85 1380.47,1120.13 C1380.47,1120.13 1379.73,1120.17 1379.73,1120.17 C1379.43,1118.9 1379.25,1117.63 1379.11,1116.36 C1378.98,1115.08 1378.89,1113.81 1378.84,1112.53 C1378.76,1109.98 1378.76,1107.43 1379.08,1104.86 C1379.08,1104.86 1379.81,1104.82 1379.81,1104.82z "/><path id="_R_G_L_0_G_L_0_G_D_6_P_0" fill="#d28572" fill-opacity="1" fill-rule="nonzero" d=" M1395.47 1114.77 C1394.91,1115.49 1394.51,1116.37 1394.13,1117.27 C1393.76,1118.18 1393.4,1119.11 1393.05,1120.05 C1392.7,1120.98 1392.35,1121.93 1391.96,1122.87 C1391.58,1123.81 1391.17,1124.75 1390.66,1125.66 C1390.66,1125.66 1389.96,1125.47 1389.96,1125.47 C1389.99,1124.41 1390.16,1123.38 1390.39,1122.37 C1390.63,1121.36 1390.93,1120.36 1391.31,1119.38 C1391.7,1118.41 1392.13,1117.44 1392.71,1116.53 C1393.29,1115.64 1393.98,1114.71 1395.05,1114.17 C1395.05,1114.17 1395.47,1114.77 1395.47,1114.77z "/></g></g></g><g id="time_group"/></svg>