<svg xmlns="http://www.w3.org/2000/svg" xmlns:xlink="http://www.w3.org/1999/xlink" preserveAspectRatio="xMidYMid meet" width="500" height="500" viewBox="0 0 500 500" style="width:100%;height:100%"><defs><animateTransform repeatCount="indefinite" dur="4s" begin="0s" xlink:href="#_R_G_L_8_G_D_0_P_0_G_0_T_0" fill="freeze" attributeName="transform" from="1 1" to="1 1" type="scale" additive="sum" keyTimes="0;0.5;1" values="1 1;0.79 0.79;1 1" keySplines="0.167 0.167 0.667 1;0.167 0.167 0.667 1" calcMode="spline"/><animateMotion repeatCount="indefinite" dur="4s" begin="0s" xlink:href="#_R_G_L_6_G" fill="freeze" keyTimes="0;0.2458333;0.6;0.9958333;1" path="M166.82 202.46 C166.82,200.96 166.82,193.87 166.82,193.46 C166.82,193.05 166.82,198.5 166.82,200 C166.82,201.5 166.82,202.05 166.82,202.46 C166.82,202.46 166.82,202.46 166.82,202.46 " keyPoints="0;0.5;0.86;1;1" keySplines="0.167 0 0.667 1;0.167 0 0.667 1;0.167 0 0.667 1;0 0 0 0" calcMode="spline"/><animateTransform repeatCount="indefinite" dur="4s" begin="0s" xlink:href="#_R_G_L_6_G" fill="freeze" attributeName="transform" from="0" to="0" type="rotate" additive="sum" keyTimes="0;0.2458333;0.6;0.9958333;1" values="0;33;-13;0;0" keySplines="0.167 0.167 0.667 1;0.167 0.167 0.667 1;0.167 0.167 0.667 1;0 0 0 0" calcMode="spline"/><animateTransform repeatCount="indefinite" dur="4s" begin="0s" xlink:href="#_R_G_L_6_G" fill="freeze" attributeName="transform" from="-9.823 -10.073" to="-9.823 -10.073" type="translate" additive="sum" keyTimes="0;1" values="-9.823 -10.073;-9.823 -10.073" keySplines="0 0 1 1" calcMode="spline"/><animateMotion repeatCount="indefinite" dur="4s" begin="0s" xlink:href="#_R_G_L_5_G" fill="freeze" keyTimes="0;0.4958333;1" path="M247 282.38 C247,275.38 247,240.38 247,240.38 C247,240.38 247,275.38 247,282.38 " keyPoints="0;0.5;1" keySplines="0.333 0 0.667 1;0.333 0 0.667 1" calcMode="spline"/><animateTransform repeatCount="indefinite" dur="4s" begin="0s" xlink:href="#_R_G_L_5_G" fill="freeze" attributeName="transform" from="-164.053 -158.166" to="-164.053 -158.166" type="translate" additive="sum" keyTimes="0;1" values="-164.053 -158.166;-164.053 -158.166" keySplines="0 0 1 1" calcMode="spline"/><animateMotion repeatCount="indefinite" dur="4s" begin="0s" xlink:href="#_R_G_L_4_G" fill="freeze" keyTimes="0;0.375;0.6625;0.9958333;1" path="M67.36 386.5 C67.36,385.5 67.36,379.09 67.36,380.5 C67.36,381.92 67.36,394 67.36,395 C67.36,396 67.36,387.92 67.36,386.5 C67.36,386.5 67.36,386.5 67.36,386.5 " keyPoints="0;0.22;0.71;1;1" keySplines="0.167 0 0.667 1;0.167 0 0.667 1;0.167 0 0.667 1;0 0 0 0" calcMode="spline"/><animateTransform repeatCount="indefinite" dur="4s" begin="0s" xlink:href="#_R_G_L_4_G" fill="freeze" attributeName="transform" from="0" to="0" type="rotate" additive="sum" keyTimes="0;0.375;0.6625;0.9958333;1" values="0;24;-8;0;0" keySplines="0.167 0.167 0.667 1;0.167 0.167 0.667 1;0.167 0.167 0.667 1;0 0 0 0" calcMode="spline"/><animateTransform repeatCount="indefinite" dur="4s" begin="0s" xlink:href="#_R_G_L_4_G" fill="freeze" attributeName="transform" from="-23.652 -10.878" to="-23.652 -10.878" type="translate" additive="sum" keyTimes="0;1" values="-23.652 -10.878;-23.652 -10.878" keySplines="0 0 1 1" calcMode="spline"/><animateMotion repeatCount="indefinite" dur="4s" begin="0s" xlink:href="#_R_G_L_3_G" fill="freeze" keyTimes="0;0.4958333;0.9958333;1" path="M302.36 105.25 C304.36,102.92 314.36,91.25 314.36,91.25 C314.36,91.25 304.36,102.92 302.36,105.25 C302.36,105.25 302.36,105.25 302.36,105.25 " keyPoints="0;0.5;1;1" keySplines="0.167 0.109 0.667 1;0.167 0 0.667 1;0 0 0 0" calcMode="spline"/><animateTransform repeatCount="indefinite" dur="4s" begin="0s" xlink:href="#_R_G_L_3_G" fill="freeze" attributeName="transform" from="-17.534 -12.897" to="-17.534 -12.897" type="translate" additive="sum" keyTimes="0;1" values="-17.534 -12.897;-17.534 -12.897" keySplines="0 0 1 1" calcMode="spline"/><animateMotion repeatCount="indefinite" dur="4s" begin="0s" xlink:href="#_R_G_L_2_G" fill="freeze" keyTimes="0;0.4958333;0.9958333;1" path="M420.15 229.97 C420.15,235.81 420.15,264.97 420.15,264.97 C420.15,264.97 420.15,235.81 420.15,229.97 C420.15,229.97 420.15,229.97 420.15,229.97 " keyPoints="0;0.5;1;1" keySplines="0.167 0 0.833 1;0.167 0 0.833 1;0 0 0 0" calcMode="spline"/><animateTransform repeatCount="indefinite" dur="4s" begin="0s" xlink:href="#_R_G_L_2_G" fill="freeze" attributeName="transform" from="-36.324 -29.848" to="-36.324 -29.848" type="translate" additive="sum" keyTimes="0;1" values="-36.324 -29.848;-36.324 -29.848" keySplines="0 0 1 1" calcMode="spline"/><animateMotion repeatCount="indefinite" dur="4s" begin="0s" xlink:href="#_R_G_L_1_G" fill="freeze" keyTimes="0;0.25;0.625;0.9958333;1" path="M93.11 220.98 C93.11,223.81 93.11,240.15 93.11,237.98 C93.11,235.81 93.11,210.81 93.11,207.98 C93.11,205.15 93.11,218.81 93.11,220.98 C93.11,220.98 93.11,220.98 93.11,220.98 " keyPoints="0;0.28;0.77;1;1" keySplines="0.167 0 0.667 1;0.167 0 0.667 1;0.167 0 0.667 1;0 0 0 0" calcMode="spline"/><animateTransform repeatCount="indefinite" dur="4s" begin="0s" xlink:href="#_R_G_L_1_G" fill="freeze" attributeName="transform" from="0" to="0" type="rotate" additive="sum" keyTimes="0;0.25;0.625;0.9958333;1" values="0;-10;-39;0;0" keySplines="0.167 0.167 0.667 1;0.167 0.167 0.667 1;0.167 0.167 0.667 1;0 0 0 0" calcMode="spline"/><animateTransform repeatCount="indefinite" dur="4s" begin="0s" xlink:href="#_R_G_L_1_G" fill="freeze" attributeName="transform" from="-24.937 -25.675" to="-24.937 -25.675" type="translate" additive="sum" keyTimes="0;1" values="-24.937 -25.675;-24.937 -25.675" keySplines="0 0 1 1" calcMode="spline"/><animateMotion repeatCount="indefinite" dur="4s" begin="0s" xlink:href="#_R_G_L_0_G" fill="freeze" keyTimes="0;0.25;0.5291667;0.8166667;1" path="M408.03 404.29 C408.03,401.29 407.49,391.73 408.03,386.29 C408.58,380.86 411.23,373.56 411.29,371.7 C411.51,364.85 408.58,380.86 408.03,386.29 C407.49,391.73 408.03,401.29 408.03,404.29 " keyPoints="0;0.26;0.48;0.74;1" keySplines="0.167 0 0.833 1;0.167 0.036 0.833 0.964;0.167 0 0.833 1;0.167 0 0.833 1" calcMode="spline"/><animateTransform repeatCount="indefinite" dur="4s" begin="0s" xlink:href="#_R_G_L_0_G" fill="freeze" attributeName="transform" from="-60.748 -39.736" to="-60.748 -39.736" type="translate" additive="sum" keyTimes="0;1" values="-60.748 -39.736;-60.748 -39.736" keySplines="0 0 1 1" calcMode="spline"/><animate attributeType="XML" attributeName="opacity" dur="4s" from="0" to="1" xlink:href="#time_group"/></defs><g id="_R_G"><g id="_R_G_L_8_G" transform=" translate(247.678, 244.373) translate(-225.077, -219.27)"><g id="_R_G_L_8_G_D_0_P_0_G_0_T_0" transform=" translate(225.353, 432.189)"><path id="_R_G_L_8_G_D_0_P_0" fill="#dbdbdb" fill-opacity="1" fill-rule="nonzero" d=" M145.18 0 C145.18,3.37 80.18,6.1 0,6.1 C-80.18,6.1 -145.18,3.37 -145.18,0 C-145.18,-3.37 -80.18,-6.1 0,-6.1 C80.18,-6.1 145.18,-3.37 145.18,0z "/></g><path id="_R_G_L_8_G_D_1_P_0" fill="#ffeddd" fill-opacity="1" fill-rule="nonzero" d=" M444.35 7.06 C444.35,7.06 10.45,7.06 10.45,7.06 C10.45,7.06 10.45,264.62 10.45,264.62 C10.45,264.62 444.35,264.62 444.35,264.62 C444.35,264.62 444.35,7.06 444.35,7.06z "/><path id="_R_G_L_8_G_D_2_P_0" fill="#ffffff" fill-opacity="1" fill-rule="nonzero" d=" M169.58 117.99 C169.58,131.68 158.48,142.77 144.79,142.77 C131.1,142.77 120,131.68 120,117.99 C120,104.3 131.1,93.2 144.79,93.2 C158.48,93.2 169.58,104.3 169.58,117.99z "/><path id="_R_G_L_8_G_D_3_P_0" fill="#dbdbdb" fill-opacity="1" fill-rule="nonzero" d=" M444.52 264.62 C444.52,264.62 444.52,107.8 444.52,107.8 C439.78,103.76 433.55,101.07 423.63,101.07 C394.72,101.07 407.97,124.85 367.01,108.01 C349.34,100.74 340.51,94.14 327.25,107.02 C314,119.9 311.59,134.76 293.52,131.79 C275.45,128.81 266.07,147.21 251.91,134.51 C234.54,118.93 230.2,106.8 217.63,103.06 C208.57,100.36 195.94,104.05 189.92,118.91 C183.89,133.77 177.87,128.81 161,124.85 C144.14,120.89 141.73,139.71 132.09,156.55 C122.45,173.39 112.82,189.24 98.36,173.39 C83.9,157.54 73.06,150.61 61.01,159.52 C48.97,168.44 39.33,179.34 26.08,168.44 C20.31,163.7 15.01,162.52 10.45,164.26 C10.45,164.26 10.45,264.62 10.45,264.62 C10.45,264.62 444.52,264.62 444.52,264.62z "/><path id="_R_G_L_8_G_D_4_P_0" fill="#c7d3db" fill-opacity="1" fill-rule="nonzero" d=" M444.09 262.45 C444.09,262.45 444.09,176.49 444.09,176.49 C442.75,176.46 441.33,176.38 439.81,176.24 C412.46,173.66 416.03,152.15 394.62,146.99 C373.21,141.83 366.07,149.57 343.48,165.91 C320.88,182.26 320.42,170.94 295.44,162.34 C270.47,153.74 261.41,167.64 249.52,174.52 C237.63,181.4 225.74,169.36 206.71,161.61 C187.68,153.87 186.49,174.52 167.46,177.1 C148.43,179.68 151.3,168.76 140.6,153.27 C129.89,137.79 116.32,138.39 105.62,157.31 C94.91,176.24 94.91,171.08 73.51,171.08 C52.1,171.08 55.66,194.3 41.39,198.6 C27.12,202.9 27.12,194.3 11.66,183.98 C11.25,183.71 10.85,183.46 10.45,183.23 C10.45,183.23 10.45,262.45 10.45,262.45 C10.45,262.45 444.09,262.45 444.09,262.45z "/><path id="_R_G_L_8_G_D_5_P_0" fill="#98b9c6" fill-opacity="1" fill-rule="nonzero" d=" M444.52 264.62 C444.52,264.62 444.52,189.36 444.52,189.36 C426.87,199.74 410.5,221.21 395.2,201.46 C374.38,174.57 347.19,169.09 330.29,191.03 C311.84,215 291.67,235.49 270.61,224.51 C253.23,215.44 236.01,209.81 221.39,222.86 C207.62,235.16 196.75,241.59 182.91,233.36 C169.06,225.13 153.71,227.8 139.87,234.38 C126.02,240.97 116.1,214.29 102.95,208.04 C78.62,196.5 66.03,226.15 46.04,226.15 C30.65,226.15 23.46,211.55 10.45,204.05 C10.45,204.05 10.45,264.62 10.45,264.62 C10.45,264.62 444.52,264.62 444.52,264.62z "/><path id="_R_G_L_8_G_D_6_P_0" fill="#ffffff" fill-opacity="1" fill-rule="nonzero" d=" M449.91 66.55 C449.91,66.55 0.93,66.55 0.93,66.55 C0.93,66.55 0.93,73.75 0.93,73.75 C0.93,73.75 449.91,73.75 449.91,73.75 C449.91,73.75 449.91,66.55 449.91,66.55z "/><path id="_R_G_L_8_G_D_7_P_0" fill="#ffffff" fill-opacity="1" fill-rule="nonzero" d=" M358.57 0.25 C358.57,0.25 352.31,0.25 352.31,0.25 C352.31,0.25 352.31,279.9 352.31,279.9 C352.31,279.9 358.57,279.9 358.57,279.9 C358.57,279.9 358.57,0.25 358.57,0.25z "/><path id="_R_G_L_8_G_D_8_P_0" fill="#ffffff" fill-opacity="1" fill-rule="nonzero" d=" M102.49 0.25 C102.49,0.25 96.23,0.25 96.23,0.25 C96.23,0.25 96.23,279.9 96.23,279.9 C96.23,279.9 102.49,279.9 102.49,279.9 C102.49,279.9 102.49,0.25 102.49,0.25z "/><path id="_R_G_L_8_G_D_9_P_0" fill="#ffffff" fill-opacity="1" fill-rule="nonzero" d=" M0.25 12.67 C0.25,12.67 449.91,12.67 449.91,12.67 C449.91,12.67 449.91,10.59 449.91,10.59 C449.91,10.59 0.25,10.59 0.25,10.59 C0.25,10.59 0.25,12.67 0.25,12.67z "/><path id="_R_G_L_8_G_D_10_P_0" fill="#ffffff" fill-opacity="1" fill-rule="nonzero" d=" M0.25 18.9 C0.25,18.9 449.91,18.9 449.91,18.9 C449.91,18.9 449.91,16.82 449.91,16.82 C449.91,16.82 0.25,16.82 0.25,16.82 C0.25,16.82 0.25,18.9 0.25,18.9z "/><path id="_R_G_L_8_G_D_11_P_0" fill="#ffffff" fill-opacity="1" fill-rule="nonzero" d=" M0.25 25.14 C0.25,25.14 449.91,25.14 449.91,25.14 C449.91,25.14 449.91,23.06 449.91,23.06 C449.91,23.06 0.25,23.06 0.25,23.06 C0.25,23.06 0.25,25.14 0.25,25.14z "/><path id="_R_G_L_8_G_D_12_P_0" fill="#ffffff" fill-opacity="1" fill-rule="nonzero" d=" M0.25 31.38 C0.25,31.38 449.91,31.38 449.91,31.38 C449.91,31.38 449.91,29.3 449.91,29.3 C449.91,29.3 0.25,29.3 0.25,29.3 C0.25,29.3 0.25,31.38 0.25,31.38z "/><path id="_R_G_L_8_G_D_13_P_0" fill="#ffffff" fill-opacity="1" fill-rule="nonzero" d=" M0.25 37.62 C0.25,37.62 449.91,37.62 449.91,37.62 C449.91,37.62 449.91,35.54 449.91,35.54 C449.91,35.54 0.25,35.54 0.25,35.54 C0.25,35.54 0.25,37.62 0.25,37.62z "/><path id="_R_G_L_8_G_D_14_P_0" fill="#ffffff" fill-opacity="1" fill-rule="nonzero" d=" M0.25 49.79 C0.25,49.79 449.91,49.79 449.91,49.79 C449.91,49.79 449.91,47.71 449.91,47.71 C449.91,47.71 0.25,47.71 0.25,47.71 C0.25,47.71 0.25,49.79 0.25,49.79z "/><path id="_R_G_L_8_G_D_15_P_0" fill="#ffffff" fill-opacity="1" fill-rule="nonzero" d=" M0.25 56.03 C0.25,56.03 449.91,56.03 449.91,56.03 C449.91,56.03 449.91,53.95 449.91,53.95 C449.91,53.95 0.25,53.95 0.25,53.95 C0.25,53.95 0.25,56.03 0.25,56.03z "/><path id="_R_G_L_8_G_D_16_P_0" fill="#ffffff" fill-opacity="1" fill-rule="nonzero" d=" M0.25 62.27 C0.25,62.27 449.91,62.27 449.91,62.27 C449.91,62.27 449.91,60.19 449.91,60.19 C449.91,60.19 0.25,60.19 0.25,60.19 C0.25,60.19 0.25,62.27 0.25,62.27z "/><path id="_R_G_L_8_G_D_17_P_0" fill="#ffffff" fill-opacity="1" fill-rule="nonzero" d=" M0.25 43.86 C0.25,43.86 449.91,43.86 449.91,43.86 C449.91,43.86 449.91,41.78 449.91,41.78 C449.91,41.78 0.25,41.78 0.25,41.78 C0.25,41.78 0.25,43.86 0.25,43.86z "/></g><g id="_R_G_L_7_G" transform=" translate(354.697, 280.303) translate(-17.617, -9.301)"><path id="_R_G_L_7_G_D_0_P_0" fill="#45ef8a" fill-opacity="1" fill-rule="nonzero" d=" M26.16 5.77 C26.16,5.77 26.85,4.71 26.85,4.71 C26.85,4.71 27.55,3.67 27.55,3.67 C27.55,3.67 29.09,1.32 29.09,1.32 C29.29,1.03 29.21,0.64 28.92,0.45 C28.64,0.25 28.25,0.33 28.07,0.62 C28.07,0.62 25.71,4.2 25.71,4.2 C25.71,4.2 25,5.28 25,5.28 C22.75,4.4 20.26,3.9 17.62,3.9 C14.98,3.9 12.48,4.4 10.24,5.28 C10.24,5.28 9.53,4.2 9.53,4.2 C9.53,4.2 8.83,3.14 8.83,3.14 C8.83,3.14 7.18,0.62 7.18,0.62 C6.99,0.33 6.6,0.26 6.32,0.45 C6.03,0.64 5.95,1.03 6.14,1.32 C6.14,1.32 7.69,3.67 7.69,3.67 C7.69,3.67 8.38,4.72 8.38,4.72 C8.38,4.72 9.08,5.77 9.08,5.77 C3.81,8.26 0.25,13.18 0.25,18.35 C0.25,18.35 34.98,18.35 34.98,18.35 C34.98,13.18 31.42,8.26 26.16,5.77z  M10.17 13.33 C9.14,13.33 8.31,12.49 8.31,11.45 C8.31,10.4 9.14,9.56 10.17,9.56 C11.2,9.56 12.04,10.4 12.04,11.45 C12.04,12.49 11.2,13.33 10.17,13.33z  M25.06 13.33 C24.03,13.33 23.2,12.49 23.2,11.45 C23.2,10.4 24.03,9.56 25.06,9.56 C26.09,9.56 26.92,10.4 26.92,11.45 C26.92,12.49 26.09,13.33 25.06,13.33z "/><path id="_R_G_L_7_G_D_1_P_0" fill="#29e56a" fill-opacity="1" fill-rule="nonzero" d=" M26.92 11.45 C26.92,12.49 26.09,13.33 25.06,13.33 C24.03,13.33 23.2,12.49 23.2,11.45 C23.2,10.88 23.45,10.38 23.84,10.04 C21.87,9.7 19.79,9.51 17.62,9.51 C15.45,9.51 13.36,9.7 11.4,10.04 C11.79,10.38 12.04,10.88 12.04,11.45 C12.04,12.49 11.2,13.33 10.17,13.33 C9.14,13.33 8.31,12.49 8.31,11.45 C8.31,11.18 8.37,10.93 8.47,10.7 C5.49,11.51 2.94,12.7 1.01,14.16 C0.52,15.49 0.25,17.32 0.25,18.35 C0.25,18.35 34.98,18.35 34.98,18.35 C34.98,17.32 34.72,15.49 34.23,14.16 C32.3,12.7 29.74,11.51 26.77,10.69 C26.87,10.92 26.92,11.18 26.92,11.45z "/></g><g id="_R_G_L_6_G"><path id="_R_G_L_6_G_D_0_P_0" fill="#45ef8a" fill-opacity="1" fill-rule="nonzero" d=" M9.82 0.25 C15.11,0.25 19.4,4.01 19.4,8.65 C19.4,13.29 15.11,17.06 9.82,17.06 C4.54,17.06 0.25,13.29 0.25,8.65 C0.25,4.01 4.54,0.25 9.82,0.25z "/><path id="_R_G_L_6_G_D_1_P_0" fill="#263238" fill-opacity="1" fill-rule="nonzero" d=" M9.82 16.95 C15.07,16.95 19.33,13.24 19.39,8.65 C19.39,8.65 19.4,8.65 19.4,8.65 C19.4,13.29 15.11,17.06 9.82,17.06 C4.54,17.06 0.25,13.29 0.25,8.65 C0.25,8.65 0.25,8.65 0.25,8.65 C0.32,13.24 4.58,16.95 9.82,16.95z "/><path id="_R_G_L_6_G_D_2_P_0" fill="#3ddc84" fill-opacity="1" fill-rule="nonzero" d=" M9.82 0.25 C4.54,0.25 0.25,4.01 0.25,8.65 C0.25,8.65 19.4,8.65 19.4,8.65 C19.4,4.01 15.11,0.25 9.82,0.25z "/><path id="_R_G_L_6_G_D_3_P_0" fill="#3ddc84" fill-opacity="1" fill-rule="nonzero" d=" M9.82 6.22 C10.52,6.22 11.08,6.72 11.08,7.33 C11.08,7.94 10.52,8.43 9.82,8.43 C9.13,8.43 8.56,7.94 8.56,7.33 C8.56,6.72 9.13,6.22 9.82,6.22z "/><path id="_R_G_L_6_G_D_4_P_0" fill="#ffffff" fill-opacity="1" fill-rule="nonzero" d=" M0.25 8.65 C0.25,8.65 19.4,8.65 19.4,8.65 C19.4,8.65 19.4,8.76 19.4,8.76 C19.4,8.76 0.25,8.76 0.25,8.76 C0.25,8.76 0.25,8.65 0.25,8.65z "/><path id="_R_G_L_6_G_D_5_P_0" fill="#ffffff" fill-opacity="1" fill-rule="nonzero" d=" M9.82 0.36 C15.07,0.36 19.33,4.06 19.39,8.65 C19.39,8.65 19.4,8.65 19.4,8.65 C19.4,4.01 15.11,0.25 9.82,0.25 C4.54,0.25 0.25,4.01 0.25,8.65 C0.25,8.65 0.25,8.65 0.25,8.65 C0.32,4.06 4.58,0.36 9.82,0.36z "/><path id="_R_G_L_6_G_D_6_P_0" fill="#d7effe" fill-opacity="1" fill-rule="nonzero" d=" M11.86 8.65 C11.86,8.65 9.53,8.65 9.53,8.65 C9.53,8.65 15.46,17.66 15.46,17.66 C15.46,17.66 16.82,18.35 16.82,18.35 C16.86,18.37 16.9,18.38 16.95,18.38 C17.09,18.38 17.2,18.28 17.2,18.16 C17.2,18.16 17.2,16.77 17.2,16.77 C17.2,16.77 11.86,8.65 11.86,8.65z "/><path id="_R_G_L_6_G_D_7_P_0" fill="#d7effe" fill-opacity="1" fill-rule="nonzero" d=" M14.86 8.65 C14.86,11.09 12.61,13.08 9.82,13.08 C9,13.08 8.21,12.9 7.53,12.59 C7.53,12.59 9.82,9.09 9.82,9.09 C9.82,9.09 10.11,8.65 10.11,8.65 C10.11,8.65 7.79,8.65 7.79,8.65 C7.79,8.65 2.44,16.77 2.44,16.77 C2.44,16.77 2.44,18.16 2.44,18.16 C2.44,18.28 2.56,18.38 2.69,18.38 C2.74,18.38 2.78,18.37 2.82,18.35 C2.82,18.35 4.19,17.66 4.19,17.66 C4.19,17.66 6.52,14.12 6.52,14.12 C7.5,14.58 8.63,14.84 9.82,14.84 C13.72,14.84 16.88,12.07 16.88,8.65 C16.88,8.65 14.86,8.65 14.86,8.65z "/><path id="_R_G_L_6_G_D_8_P_0" fill="#073042" fill-opacity="1" fill-rule="nonzero" d=" M12.09 4.67 C12.09,4.67 10.83,4.67 10.83,4.67 C10.83,4.67 10.83,3.35 10.83,3.35 C10.83,3.35 8.82,3.35 8.82,3.35 C8.82,3.35 8.82,4.67 8.82,4.67 C8.82,4.67 7.56,4.67 7.56,4.67 C7.14,4.67 6.8,4.97 6.8,5.34 C6.8,5.34 6.8,8.65 6.8,8.65 C6.8,8.65 9.29,10.84 9.29,10.84 C9.43,10.95 9.61,11.03 9.82,11.03 C10.03,11.03 10.22,10.96 10.36,10.84 C10.36,10.84 12.85,8.65 12.85,8.65 C12.85,8.65 12.85,5.34 12.85,5.34 C12.85,4.97 12.51,4.67 12.09,4.67z  M9.82 8.43 C9.13,8.43 8.56,7.94 8.56,7.33 C8.56,6.72 9.13,6.22 9.82,6.22 C10.52,6.22 11.08,6.72 11.08,7.33 C11.08,7.94 10.52,8.43 9.82,8.43z "/></g><g id="_R_G_L_5_G"><path id="_R_G_L_5_G_D_0_P_0" fill="#e9b59a" fill-opacity="1" fill-rule="nonzero" d=" M122.99 136.39 C122.99,136.39 203.25,136.39 203.25,136.39 C204.84,131.98 206.3,127.69 207.21,124.43 C208.29,120.58 208.03,99.46 208.03,99.46 C208.03,99.46 186.91,89.98 185.5,88.71 C178.57,82.45 176.95,55.09 176.95,55.09 C176.95,55.09 150.31,55.09 150.31,55.09 C150.31,55.09 148.93,78.33 143.3,88.21 C141.89,90.68 120.11,100.28 119.86,99.46 C119.86,99.46 120.29,122.37 120.29,122.37 C120.29,122.37 122.99,136.39 122.99,136.39z "/><path id="_R_G_L_5_G_D_1_P_0" fill="#d39173" fill-opacity="1" fill-rule="nonzero" d=" M181 80 C177.82,69.69 176.95,55.1 176.95,55.1 C176.95,55.1 150.32,55.1 150.32,55.1 C150.32,55.1 149.03,76.44 143.97,86.91 C156.53,86.18 169.31,84.33 181,80z "/><path id="_R_G_L_5_G_D_2_P_0" fill="#e9b59a" fill-opacity="1" fill-rule="nonzero" d=" M184.44 48.5 C184.44,48.5 184.16,39.66 191.56,39.99 C196.28,40.2 196.59,44.54 192.83,50.07 C191.24,52.4 191.01,57.72 189.06,59.4 C186.69,61.45 184.78,58.21 184.09,56.74 C182.95,54.3 184.44,48.5 184.44,48.5z "/><path id="_R_G_L_5_G_D_3_P_0" fill="#d39173" fill-opacity="1" fill-rule="nonzero" d=" M189.18 43.93 C190.58,41.99 192.3,43.28 193.05,45.11 C193.8,46.93 192.08,49.3 192.08,49.3 C192.08,49.3 193.05,45.97 191.65,45.11 C190.25,44.25 186.83,46.7 188,49.02 C189.18,51.34 190.9,51.55 189.83,52.74 C188.75,53.92 189.93,55.21 188.11,55.74 C186.28,56.28 187.14,55.31 187.03,52.52 C186.93,49.73 186.93,52.52 187.14,49.73 C187.36,46.93 187.98,45.59 189.18,43.93z "/><path id="_R_G_L_5_G_D_4_P_0" fill="#e9b59a" fill-opacity="1" fill-rule="nonzero" d=" M142.82 48.5 C142.82,48.5 143.1,39.66 135.7,39.99 C130.98,40.2 130.68,44.54 134.44,50.07 C136.02,52.4 136.25,57.72 138.2,59.4 C140.57,61.45 142.49,58.21 143.18,56.74 C144.32,54.3 142.82,48.5 142.82,48.5z "/><path id="_R_G_L_5_G_D_5_P_0" fill="#d39173" fill-opacity="1" fill-rule="nonzero" d=" M138.08 43.93 C136.69,41.99 134.97,43.28 134.22,45.11 C133.46,46.93 135.18,49.3 135.18,49.3 C135.18,49.3 134.22,45.97 135.61,45.11 C137.01,44.25 140.44,46.7 139.26,49.02 C138.08,51.34 136.36,51.55 137.44,52.74 C138.51,53.92 137.33,55.21 139.16,55.74 C140.98,56.28 140.12,55.31 140.23,52.52 C140.34,49.73 140.34,52.52 140.12,49.73 C139.91,46.93 139.29,45.59 138.08,43.93z "/><path id="_R_G_L_5_G_D_6_P_0" fill="#e9b59a" fill-opacity="1" fill-rule="nonzero" d=" M191.19 31.24 C190.97,34.1 190.37,35.96 189.57,40.21 C189.38,41.23 189.17,42.4 188.95,43.76 C187.27,54.34 184.56,61.61 183.69,63.75 C182.26,67.3 175.5,75.2 171.87,77.26 C168.24,79.32 161.25,79.43 157.69,77.26 C154.12,75.09 146.86,70.04 145.53,66.45 C144.71,64.25 139.72,53.2 138.33,42.4 C138.18,41.17 138.02,40.1 137.87,39.16 C137.2,34.95 136.67,33.28 136.54,30.46 C136.11,21.49 146.39,8.6 164.18,8.86 C185.23,9.16 191.88,22.29 191.19,31.24z "/><path id="_R_G_L_5_G_D_7_P_0" fill="#d39173" fill-opacity="1" fill-rule="nonzero" d=" M145.61 19.29 C145.61,19.29 155.15,26.43 178.19,20.95 C180,20.52 184.53,17.04 184.53,17.04 C184.53,17.04 175.44,12.12 162.28,12.03 C149.13,11.94 145.61,19.29 145.61,19.29z "/><path id="_R_G_L_5_G_D_8_P_0" fill="#2e353d" fill-opacity="1" fill-rule="nonzero" d=" M189.57 40.21 C189.38,41.23 189.17,42.4 188.95,43.76 C187.27,54.34 185.13,68.73 184.26,70.87 C182.82,74.42 176.77,77.42 173.14,79.49 C169.51,81.55 158.86,81.53 155.3,79.36 C151.73,77.19 143.67,73.86 142.34,70.27 C141.52,68.07 139.72,53.2 138.33,42.4 C138.17,41.16 138.02,40.1 137.87,39.16 C137.87,39.16 139.35,37.01 139.35,37.01 C139.35,37.01 140.48,48.16 144.42,53 C148.36,57.82 150.4,59.95 150.4,59.95 C150.4,59.95 155.85,57.51 164.08,57.51 C170.84,57.51 176.18,60.32 176.18,60.32 C176.18,60.32 178.72,58.24 182.8,53.53 C186.88,48.81 187.95,37.71 187.95,37.71 C187.95,37.71 189.57,40.21 189.57,40.21z "/><path id="_R_G_L_5_G_D_9_P_0" fill="#2e353d" fill-opacity="1" fill-rule="nonzero" d=" M192.56 25.52 C192.5,25.81 190.9,36.27 190.29,37.92 C189.34,40.45 188.62,42.27 188.62,42.27 C188.62,42.27 187.58,39.91 187.58,39.91 C185.64,35.54 184.62,30.81 184.59,26.03 C184.59,26.03 184.53,17.04 184.53,17.04 C184.53,17.04 187.55,14.44 187.55,14.44 C193.43,15.41 194.01,18.83 192.56,25.52z "/><path id="_R_G_L_5_G_D_10_P_0" fill="#2e353d" fill-opacity="1" fill-rule="nonzero" d=" M146.01 16.95 C146.01,16.95 146,16.99 146,16.99 C146,16.99 144.44,26.22 144.44,26.22 C143.71,30.49 142.19,34.6 139.96,38.32 C139.96,38.32 139.84,38.53 139.84,38.53 C139.84,38.53 138.17,41.32 138.17,41.32 C138.17,41.32 137.71,39.67 137.08,37.35 C136.61,35.63 135.51,26.85 135.24,25.61 C135.15,25.22 135.07,24.84 135.01,24.48 C133.85,17.89 135.11,15.15 140.96,14.36 C140.96,14.36 146.01,16.95 146.01,16.95z "/><path id="_R_G_L_5_G_D_11_P_0" fill="#2e353d" fill-opacity="1" fill-rule="nonzero" d=" M187.55 14.44 C187.55,14.44 184.53,17.04 184.53,17.04 C184.53,17.04 179.64,21.7 160.22,21.19 C148.78,20.89 145.78,19.09 145.61,19.29 C145.61,19.3 145.61,19.31 145.61,19.31 C145.61,19.31 144.43,19.03 144.43,19.03 C144.43,19.03 138.85,17.72 138.85,17.72 C138.85,17.72 137.71,17.46 137.71,17.46 C137.71,17.46 139.08,12.54 140.03,11.15 C144.62,4.45 156.89,0.25 167.96,1.53 C168.34,1.58 168.71,1.62 169.08,1.68 C179.42,3.19 184.1,8.14 184.1,8.14 C184.1,8.14 187.55,14.44 187.55,14.44z "/><path id="_R_G_L_5_G_D_12_P_0" fill="#d39173" fill-opacity="1" fill-rule="nonzero" d=" M168.35 50.62 C167.32,49.31 166.67,45.38 166.35,42.9 C166.2,41.69 165.17,40.79 163.95,40.79 C162.73,40.79 161.71,41.69 161.55,42.9 C161.23,45.38 160.58,49.31 159.55,50.62 C158,52.58 158,54.28 159.12,55.05 C160.24,55.83 160.84,54.68 161.62,55.54 C162.31,56.3 163.34,56.57 163.98,56.57 C164.68,56.57 165.6,56.3 166.29,55.54 C167.06,54.68 167.67,55.83 168.78,55.05 C169.9,54.28 169.9,52.58 168.35,50.62z "/><path id="_R_G_L_5_G_D_13_P_0" fill="#e6af93" fill-opacity="1" fill-rule="nonzero" d=" M168.08 42.36 C167.79,42.25 169.05,38.77 171.97,37.95 C176.24,36.74 180.82,40.34 180.82,40.34 C180.82,40.34 173.31,44.3 168.08,42.36z "/><path id="_R_G_L_5_G_D_14_P_0" fill="#2e353d" fill-opacity="1" fill-rule="nonzero" d=" M168.08 42.36 C168.08,42.36 170.51,43.73 173.76,43.59 C178.81,43.36 180.82,40.34 180.82,40.34 C180.82,40.34 175.63,43.48 168.08,42.36z "/><path id="_R_G_L_5_G_D_15_P_0" fill="#2e353d" fill-opacity="1" fill-rule="nonzero" d=" M169.63 33.12 C169.12,33.78 169,34.41 169,34.41 C169,34.09 169.04,33.7 169.09,33.34 C168.97,33.37 168.85,33.4 168.74,33.43 C168.5,34.28 168.55,35.25 168.55,35.25 C168.55,35.25 168.55,34.97 168.38,34.07 C168.35,33.88 168.35,33.71 168.36,33.54 C168.02,33.65 167.65,35.04 167.65,35.04 C167.36,36.59 167.86,36.92 167.86,36.92 C171.04,34.18 177.24,34.92 178.63,35.03 C180.02,35.13 181.31,34.37 181.31,34.37 C176.43,32.39 172,32.65 169.63,33.12z "/><path id="_R_G_L_5_G_D_16_P_0" fill="#e6af93" fill-opacity="1" fill-rule="nonzero" d=" M158.82 42.36 C159.11,42.25 157.85,38.77 154.93,37.95 C150.65,36.74 146.07,40.34 146.07,40.34 C146.07,40.34 153.59,44.3 158.82,42.36z "/><path id="_R_G_L_5_G_D_17_P_0" fill="#2e353d" fill-opacity="1" fill-rule="nonzero" d=" M158.82 42.36 C158.82,42.36 156.38,43.73 153.14,43.59 C148.09,43.36 146.07,40.34 146.07,40.34 C146.07,40.34 151.27,43.48 158.82,42.36z "/><path id="_R_G_L_5_G_D_18_P_0" fill="#2e353d" fill-opacity="1" fill-rule="nonzero" d=" M157.26 33.12 C157.78,33.78 157.9,34.41 157.9,34.41 C157.9,34.09 157.85,33.7 157.81,33.34 C157.93,33.37 158.05,33.4 158.16,33.43 C158.39,34.28 158.35,35.25 158.35,35.25 C158.35,35.25 158.35,34.97 158.51,34.07 C158.55,33.88 158.55,33.71 158.54,33.54 C158.88,33.65 159.25,35.04 159.25,35.04 C159.54,36.59 159.04,36.92 159.04,36.92 C155.86,34.18 149.66,34.92 148.27,35.03 C146.88,35.13 145.59,34.37 145.59,34.37 C150.47,32.39 154.9,32.65 157.26,33.12z "/><path id="_R_G_L_5_G_D_19_P_0" fill="#2e353d" fill-opacity="1" fill-rule="nonzero" d=" M245.45 151.91 C253.22,154.32 228.57,180.96 211.68,174.88 C194.79,168.8 225.86,145.83 245.45,151.91z "/><path id="_R_G_L_5_G_D_20_P_0" fill="#e9b59a" fill-opacity="1" fill-rule="nonzero" d=" M327.58 214.05 C327.46,214.49 326.57,215.33 325.36,216.26 C323.46,217.73 320.81,219.46 319.26,220.3 C316.81,221.64 312.21,225.95 311.83,226.1 C311.83,226.22 303.43,229.11 299.33,229.43 C295.98,229.68 284.96,229.11 278.15,227.16 C276.49,226.69 275.01,226.33 273.82,226.15 C267.83,225.24 239.93,222.98 235.37,215.75 C232.29,210.9 221.34,188.58 218.54,176.78 C216.84,169.58 215.19,162.5 214.05,157.6 C213.13,153.6 212.55,151.06 212.55,151.06 C212.55,151.06 219.13,110.2 219.13,110.2 C222.56,113.63 233.09,125.56 237.29,140.08 C241.49,154.58 251.16,190.4 252.69,194.59 C254.21,198.8 283.69,211.59 283.69,211.59 C283.69,211.59 286.76,205.43 294.02,203.48 C297.64,202.52 302.33,198.06 304.46,196.41 C306.59,194.75 308.33,195.08 308.58,196.69 C308.63,196.95 308.63,197.21 308.59,197.49 C308.48,198.56 307.82,199.76 306.93,200.95 C306.57,201.46 306.15,201.97 305.73,202.47 C305.63,202.59 305.55,202.7 305.45,202.8 C304.4,204.02 303.3,205.16 302.52,206.08 C300.45,208.6 300.06,211.01 300.06,211.01 C300.06,211.01 304.2,211.75 306.92,211.32 C307.98,211.17 308.75,211.73 309.33,212.47 C310.26,213.69 312.44,213.78 315.13,212.54 C320.49,210.04 322.13,208.88 323.71,207.61 C326.14,205.64 327.61,207.12 327.04,209.05 C326.91,209.49 326.68,209.95 326.32,210.4 C326.03,210.77 325.52,211.27 324.91,211.82 C326.5,211.28 327.86,212.99 327.58,214.05z "/><path id="_R_G_L_5_G_D_21_P_0" fill="#d39173" fill-opacity="1" fill-rule="nonzero" d=" M225.8 188.12 C224.19,178.55 225.64,168.18 232.25,160.69 C234.87,157.73 237.97,155.71 241.34,154.43 C239.78,148.85 238.36,143.77 237.29,140.08 C233.09,125.56 222.56,113.63 219.13,110.2 C219.13,110.2 212.55,151.06 212.55,151.06 C212.55,151.06 213.13,153.6 214.05,157.6 C215.19,162.5 216.84,169.58 218.54,176.78 C220.29,184.13 225.2,195.56 229.39,204.32 C227.78,198.89 226.67,193.28 225.8,188.12z "/><path id="_R_G_L_5_G_D_22_P_0" fill="#d39173" fill-opacity="1" fill-rule="nonzero" d=" M323.59 212.57 C323.59,212.57 323.61,212.56 323.62,212.55 C324.09,212.27 324.45,212.06 324.65,211.93 C324.65,211.93 324.67,211.95 324.68,211.95 C324.76,211.9 324.84,211.86 324.91,211.82 C325.52,211.27 326.02,210.77 326.32,210.4 C326.67,209.95 326.91,209.49 327.04,209.06 C325.76,209.89 323.07,211.64 321.03,213.13 C318.33,215.09 311.9,218.32 311.51,218.52 C311.72,218.46 313.47,217.89 315.46,217.02 C317.18,216.25 321.46,213.84 323.59,212.57z "/><path id="_R_G_L_5_G_D_23_P_0" fill="#d39173" fill-opacity="1" fill-rule="nonzero" d=" M318.29 217.56 C316.05,218.9 311.94,221.91 311.6,222.07 C313.82,221.55 322.13,216.76 323.05,216.42 C323.99,216.08 324.58,216.68 324.58,216.68 C324.58,216.68 325.35,216.26 325.35,216.26 C326.57,215.33 325.51,213.26 318.29,217.56z "/><path id="_R_G_L_5_G_D_24_P_0" fill="#e9b59a" fill-opacity="1" fill-rule="nonzero" d=" M315.79 212.04 C315.42,212.41 315.08,212.74 314.76,213.04 C313.68,214.04 312.84,214.69 311.86,215.41 C311.37,215.76 311.04,215.97 311.04,215.97 C311.04,215.97 310.03,214.83 310.03,214.83 C310.03,214.83 309.8,214.56 309.8,214.56 C309.8,214.56 308.25,212.82 308.25,212.82 C308.25,212.82 306.92,211.32 306.92,211.32 C310.17,210.46 310.64,208.79 310.73,208.66 C311.58,207.39 308.43,205.36 307.15,204.72 C306.28,204.28 305.62,203.69 305.47,202.97 C305.46,202.92 305.45,202.86 305.45,202.8 C305.43,202.58 305.46,202.36 305.56,202.11 C305.63,201.89 305.76,201.68 305.95,201.44 C306.14,201.21 306.48,201.05 306.93,200.95 C309.08,200.51 313.96,204 315.71,205.87 C316.11,206.31 316.41,206.74 316.62,207.19 C317.54,209.06 316.89,210.94 315.79,212.04z "/><path id="_R_G_L_5_G_D_25_P_0" fill="#d39173" fill-opacity="1" fill-rule="nonzero" d=" M315.79 212.04 C315.42,212.41 315.08,212.74 314.76,213.04 C313.2,213.83 311.37,214.43 310.03,214.83 C309,215.12 308.26,215.3 308.14,215.32 C308.24,215.27 308.9,215 309.8,214.56 C311.7,213.62 314.68,211.99 315.63,210.43 C316.45,209.06 316.89,208.27 316.62,207.19 C317.54,209.06 316.89,210.94 315.79,212.04z "/><path id="_R_G_L_5_G_D_26_P_0" fill="#d39173" fill-opacity="1" fill-rule="nonzero" d=" M308.59 197.49 C308.47,198.56 307.81,199.76 306.93,200.95 C306.57,201.46 306.15,201.97 305.73,202.47 C305.63,202.59 305.55,202.7 305.45,202.8 C304.4,204.02 303.3,205.16 302.52,206.08 C300.45,208.6 300.06,211.01 300.06,211.01 C300.06,211.01 299.58,210.85 298.83,211.02 C298.1,211.17 295.76,211.85 295.47,211.94 C297.07,211.3 298.34,207.54 301.19,205.44 C304.06,203.34 306.68,201.4 308.45,197.51 C308.45,197.51 308.59,197.49 308.59,197.49z "/><path id="_R_G_L_5_G_D_27_P_0" fill="#d39173" fill-opacity="1" fill-rule="nonzero" d=" M289.83 215.53 C295.51,213.45 297.42,215.86 300.52,217.59 C303.63,219.32 305.81,219.44 305.81,219.44 C305.81,219.44 301.6,217.17 299.44,214.32 C297.28,211.47 289.83,215.53 289.83,215.53z "/><path id="_R_G_L_5_G_D_28_P_0" fill="#e9b59a" fill-opacity="1" fill-rule="nonzero" d=" M291.73 228.42 C301.69,229.43 310.19,228.6 314.87,225.8 C319.54,222.99 320.51,222.03 323.15,220.11 C325.78,218.19 325.26,216.33 324.28,215.8 C323.33,215.29 322.45,215.83 320.16,217.06 C314.79,219.94 306.08,222.84 306.08,222.84 C306.08,222.84 291.73,228.42 291.73,228.42z "/><path id="_R_G_L_5_G_D_29_P_0" fill="#4a90e2" fill-opacity="1" fill-rule="nonzero" d=" M245.45 151.91 C245.45,151.91 230,151.46 219.44,160.94 C216.93,163.18 214.71,165.98 213.03,169.47 C213.03,169.47 210.95,154.08 208.5,134.75 C208.08,131.41 207.65,127.95 207.21,124.44 C204.25,100.57 212.7,98.88 212.7,98.88 C227.21,103.95 231.94,120.84 238.7,136.37 C238.7,136.37 245.45,151.91 245.45,151.91z "/><path id="_R_G_L_5_G_D_30_P_0" fill="#2e61f7" fill-opacity="1" fill-rule="nonzero" d=" M219.44 160.94 C216.93,163.18 214.71,165.98 213.03,169.47 C213.03,169.47 206.27,145.15 210.33,118.81 C212.7,127.79 215.93,153.49 219.44,160.94z "/><path id="_R_G_L_5_G_D_31_P_0" fill="#2e353d" fill-opacity="1" fill-rule="nonzero" d=" M82.65 151.91 C74.88,154.32 99.54,180.96 116.43,174.88 C133.32,168.8 102.24,145.83 82.65,151.91z "/><path id="_R_G_L_5_G_D_32_P_0" fill="#e9b59a" fill-opacity="1" fill-rule="nonzero" d=" M0.53 214.05 C0.64,214.49 1.54,215.33 2.75,216.26 C4.65,217.73 7.3,219.46 8.84,220.3 C11.29,221.64 15.89,225.95 16.28,226.1 C16.28,226.22 24.68,229.11 28.78,229.43 C32.12,229.68 43.15,229.11 49.96,227.16 C51.62,226.69 53.1,226.33 54.28,226.15 C60.28,225.24 88.18,222.98 92.74,215.75 C95.82,210.9 106.76,188.58 109.57,176.78 C111.27,169.58 112.92,162.5 114.06,157.6 C114.98,153.6 115.56,151.06 115.56,151.06 C115.56,151.06 108.98,110.2 108.98,110.2 C105.55,113.63 95.02,125.56 90.82,140.08 C86.62,154.58 76.95,190.4 75.42,194.59 C73.9,198.8 44.42,211.59 44.42,211.59 C44.42,211.59 41.35,205.43 34.09,203.48 C30.47,202.52 25.78,198.06 23.65,196.41 C21.52,194.75 19.78,195.08 19.52,196.69 C19.48,196.95 19.48,197.21 19.51,197.49 C19.63,198.56 20.29,199.76 21.18,200.95 C21.54,201.46 21.95,201.97 22.38,202.47 C22.48,202.59 22.56,202.7 22.66,202.8 C23.71,204.02 24.81,205.16 25.59,206.08 C27.66,208.6 28.04,211.01 28.04,211.01 C28.04,211.01 23.91,211.75 21.19,211.32 C20.13,211.17 19.35,211.73 18.78,212.47 C17.85,213.69 15.67,213.78 12.98,212.54 C7.62,210.04 5.98,208.88 4.39,207.61 C1.96,205.64 0.49,207.12 1.07,209.05 C1.2,209.49 1.43,209.95 1.78,210.4 C2.08,210.77 2.58,211.27 3.2,211.82 C1.61,211.28 0.25,212.99 0.53,214.05z "/><path id="_R_G_L_5_G_D_33_P_0" fill="#d39173" fill-opacity="1" fill-rule="nonzero" d=" M102.3 188.12 C103.92,178.55 102.46,168.18 95.86,160.69 C93.24,157.73 90.14,155.71 86.77,154.43 C88.33,148.85 89.75,143.77 90.82,140.08 C95.02,125.56 105.55,113.63 108.98,110.2 C108.98,110.2 115.56,151.06 115.56,151.06 C115.56,151.06 114.98,153.6 114.06,157.6 C112.92,162.5 111.27,169.58 109.57,176.78 C107.82,184.13 102.91,195.56 98.72,204.32 C100.33,198.89 101.44,193.28 102.3,188.12z "/><path id="_R_G_L_5_G_D_34_P_0" fill="#d39173" fill-opacity="1" fill-rule="nonzero" d=" M4.52 212.57 C4.52,212.57 4.5,212.56 4.49,212.55 C4.02,212.27 3.66,212.06 3.46,211.93 C3.46,211.93 3.43,211.95 3.43,211.95 C3.34,211.9 3.27,211.86 3.2,211.82 C2.58,211.27 2.08,210.77 1.78,210.4 C1.43,209.95 1.2,209.49 1.07,209.06 C2.35,209.89 5.03,211.64 7.08,213.13 C9.78,215.09 16.2,218.32 16.6,218.52 C16.38,218.46 14.64,217.89 12.65,217.02 C10.93,216.25 6.65,213.84 4.52,212.57z "/><path id="_R_G_L_5_G_D_35_P_0" fill="#d39173" fill-opacity="1" fill-rule="nonzero" d=" M9.82 217.56 C12.06,218.9 16.17,221.91 16.51,222.07 C14.29,221.55 5.98,216.76 5.05,216.42 C4.12,216.08 3.53,216.68 3.53,216.68 C3.53,216.68 2.75,216.26 2.75,216.26 C1.54,215.33 2.6,213.26 9.82,217.56z "/><path id="_R_G_L_5_G_D_36_P_0" fill="#e9b59a" fill-opacity="1" fill-rule="nonzero" d=" M12.32 212.04 C12.69,212.41 13.03,212.74 13.35,213.04 C14.42,214.04 15.27,214.69 16.25,215.41 C16.73,215.76 17.07,215.97 17.07,215.97 C17.07,215.97 18.08,214.83 18.08,214.83 C18.08,214.83 18.31,214.56 18.31,214.56 C18.31,214.56 19.86,212.82 19.86,212.82 C19.86,212.82 21.19,211.32 21.19,211.32 C17.94,210.46 17.47,208.79 17.37,208.66 C16.53,207.39 19.67,205.36 20.95,204.72 C21.83,204.28 22.49,203.69 22.63,202.97 C22.65,202.92 22.66,202.86 22.66,202.8 C22.68,202.58 22.65,202.36 22.55,202.11 C22.48,201.89 22.35,201.68 22.16,201.44 C21.96,201.21 21.62,201.05 21.18,200.95 C19.02,200.51 14.15,204 12.4,205.87 C12,206.31 11.7,206.74 11.48,207.19 C10.57,209.06 11.22,210.94 12.32,212.04z "/><path id="_R_G_L_5_G_D_37_P_0" fill="#d39173" fill-opacity="1" fill-rule="nonzero" d=" M12.32 212.04 C12.69,212.41 13.03,212.74 13.35,213.04 C14.9,213.83 16.73,214.43 18.08,214.83 C19.11,215.12 19.85,215.3 19.97,215.32 C19.87,215.27 19.21,215 18.31,214.56 C16.4,213.62 13.42,211.99 12.48,210.43 C11.66,209.06 11.22,208.27 11.49,207.19 C10.57,209.06 11.22,210.94 12.32,212.04z "/><path id="_R_G_L_5_G_D_38_P_0" fill="#d39173" fill-opacity="1" fill-rule="nonzero" d=" M19.52 197.49 C19.63,198.56 20.29,199.76 21.18,200.95 C21.54,201.46 21.95,201.97 22.38,202.47 C22.48,202.59 22.56,202.7 22.66,202.8 C23.71,204.02 24.81,205.16 25.59,206.08 C27.66,208.6 28.05,211.01 28.05,211.01 C28.05,211.01 28.52,210.85 29.28,211.02 C30,211.17 32.35,211.85 32.64,211.94 C31.04,211.3 29.77,207.54 26.92,205.44 C24.05,203.34 21.43,201.4 19.65,197.51 C19.65,197.51 19.52,197.49 19.52,197.49z "/><path id="_R_G_L_5_G_D_39_P_0" fill="#d39173" fill-opacity="1" fill-rule="nonzero" d=" M38.28 215.53 C32.6,213.45 30.69,215.86 27.59,217.59 C24.48,219.32 22.3,219.44 22.3,219.44 C22.3,219.44 26.51,217.17 28.66,214.32 C30.82,211.47 38.28,215.53 38.28,215.53z "/><path id="_R_G_L_5_G_D_40_P_0" fill="#e9b59a" fill-opacity="1" fill-rule="nonzero" d=" M36.38 228.42 C26.41,229.43 17.91,228.6 13.24,225.8 C8.57,222.99 7.6,222.03 4.96,220.11 C2.32,218.19 2.85,216.33 3.83,215.8 C4.78,215.29 5.66,215.83 7.95,217.06 C13.32,219.94 22.02,222.84 22.02,222.84 C22.02,222.84 36.38,228.42 36.38,228.42z "/><path id="_R_G_L_5_G_D_41_P_0" fill="#4a90e2" fill-opacity="1" fill-rule="nonzero" d=" M82.65 151.91 C82.65,151.91 98.11,151.46 108.67,160.94 C111.17,163.18 113.4,165.98 115.08,169.47 C115.08,169.47 117.16,154.08 119.61,134.75 C120.02,131.41 120.46,127.95 120.9,124.44 C123.86,100.57 115.41,98.88 115.41,98.88 C100.9,103.95 96.17,120.84 89.41,136.37 C89.41,136.37 82.65,151.91 82.65,151.91z "/><path id="_R_G_L_5_G_D_42_P_0" fill="#2e61f7" fill-opacity="1" fill-rule="nonzero" d=" M108.67 160.94 C111.17,163.18 113.4,165.98 115.08,169.47 C115.08,169.47 121.83,145.15 117.78,118.81 C115.41,127.79 112.17,153.49 108.67,160.94z "/><path id="_R_G_L_5_G_D_43_P_0" fill="#430207" fill-opacity="1" fill-rule="nonzero" d=" M103.59 224.87 C101.37,238.21 113.72,248.51 150.88,254.59 C188.03,260.67 218.21,246.71 225.64,227.12 C225.64,227.12 174.18,169.14 174.18,169.14 C174.18,169.14 107.64,200.55 103.59,224.87z "/><path id="_R_G_L_5_G_D_44_P_0" fill="#4a90e2" fill-opacity="1" fill-rule="nonzero" d=" M133.31 92.46 C133.31,92.46 157.63,118.81 164.83,118.81 C169.79,118.81 194.11,91.11 194.11,91.11 C194.11,91.11 212.69,98.88 212.69,98.88 C212.69,98.88 210.08,144.37 215.47,163.76 C220.86,183.15 225.64,227.12 225.64,227.12 C219.11,222.17 211.22,261.19 144.12,222.84 C115.75,206.63 103.59,224.87 103.59,224.87 C103.59,224.87 105.75,211 111.02,190.42 C118.45,161.37 115.41,98.88 115.41,98.88 C115.41,98.88 122.97,95.32 133.31,92.46z "/><path id="_R_G_L_5_G_D_45_P_0" fill="#35506b" fill-opacity="1" fill-rule="nonzero" d=" M254.54 228.78 C237.38,224.31 207.54,238.48 197.84,238.48 C197.84,238.48 163.94,244.46 163.94,244.46 C163.94,244.46 130.05,238.48 130.05,238.48 C120.35,238.48 90.51,224.31 73.34,228.78 C56.18,233.26 84.54,273.55 120.35,286.24 C138.22,292.57 189.67,292.57 207.54,286.24 C243.35,273.55 271.71,233.26 254.54,228.78z "/><path id="_R_G_L_5_G_D_46_P_0" fill="#5a7793" fill-opacity="1" fill-rule="nonzero" d=" M254.54 228.78 C237.38,224.31 207.54,238.48 197.84,238.48 C208.57,239.94 234.05,235.34 234.05,235.34 C234.05,235.34 227.29,237.03 220.88,245.14 C214.46,253.24 166.83,296.48 166.83,296.48 C166.83,296.48 140.82,272.83 134.07,263.71 C127.31,254.59 113.46,243.11 109.75,238.72 C107.41,235.95 113.25,236.54 126.25,238.02 C114.07,235.64 88.66,224.79 73.34,228.78 C56.18,233.26 84.54,273.55 120.35,286.24 C138.22,292.57 150.52,296.11 158.35,298.07 C158.35,298.07 158.29,300.41 158.29,300.41 C158.29,300.41 160.04,300.22 163.94,299.38 C167.84,300.22 169.6,300.41 169.6,300.41 C169.6,300.41 169.53,298.07 169.53,298.07 C177.37,296.11 189.67,292.57 207.54,286.24 C243.35,273.55 271.71,233.26 254.54,228.78z "/><path id="_R_G_L_5_G_D_47_P_0" fill="#e9b59a" fill-opacity="1" fill-rule="nonzero" d=" M281.64 248.18 C280.03,252.46 277.13,256.51 273.48,260.26 C261.91,272.23 242.81,281.3 234.02,285.62 C227.38,288.88 220.24,291.68 213.26,294.05 C195.52,300.11 178.87,303.49 174.52,304.88 C169.51,306.5 160.23,311.16 153.05,313.37 C152.12,313.66 151.23,313.9 150.39,314.1 C149.83,314.22 149.29,314.33 148.78,314.41 C141.51,315.52 123.04,310.49 116.32,310.49 C109.6,310.49 105.13,316.08 101.77,314.41 C98.41,312.72 99.54,306 101.77,304.88 C101.77,304.88 100.09,300.41 104.56,298.18 C107.35,296.79 109.49,295.61 111.92,295.06 C113.39,294.71 114.98,294.61 116.88,294.82 C121.73,295.35 139.03,297.97 142.8,297.16 C142.95,297.13 143.07,297.1 143.18,297.06 C145.98,295.94 149.33,289.78 154.93,289.78 C158.2,289.78 160.33,289.4 164.68,286.72 C167.76,284.83 171.94,281.79 178.44,276.91 C179.99,275.75 181.71,274.34 183.56,272.77 C196.93,261.38 217.66,240.65 240.13,230.35 C246.23,227.56 252.46,225.53 258.7,224.67 C265.16,223.78 277.75,227.1 281.73,235.75 C283.26,239.08 283.51,243.2 281.64,248.18z "/><path id="_R_G_L_5_G_D_48_P_0" fill="#d39173" fill-opacity="1" fill-rule="nonzero" d=" M281.73 235.75 C279.51,234.45 276.79,233.45 273.48,233.05 C261.62,231.61 255.26,227.43 240.13,230.35 C246.23,227.56 252.46,225.53 258.7,224.67 C265.16,223.78 277.75,227.1 281.73,235.75z "/><path id="_R_G_L_5_G_D_49_P_0" fill="#d39173" fill-opacity="1" fill-rule="nonzero" d=" M213.26 294.06 C195.52,300.12 178.87,303.49 174.52,304.89 C169.51,306.51 160.23,311.16 153.05,313.37 C149.93,307.69 146.21,301.47 142.8,297.17 C142.95,297.13 143.07,297.1 143.18,297.06 C145.98,295.94 149.33,289.79 154.93,289.79 C158.2,289.79 160.33,289.4 164.68,286.72 C167.76,284.83 171.94,281.79 178.44,276.91 C179.99,275.75 181.71,274.34 183.56,272.77 C176.82,281.64 175.85,288.98 187.36,291.08 C194.6,292.38 204.76,293.39 213.26,294.06z "/><path id="_R_G_L_5_G_D_50_P_0" fill="#d39173" fill-opacity="1" fill-rule="nonzero" d=" M273.48 260.26 C261.91,272.23 242.81,281.3 234.02,285.62 C210.51,297.16 180.59,302.94 174.52,304.89 C168.88,306.71 157.77,312.4 150.39,314.1 C146.89,312.13 144.15,310.43 142.85,309.32 C138.68,305.74 121.65,298.83 111.92,295.06 C113.39,294.72 114.98,294.61 116.88,294.82 C121.92,295.38 140.39,298.18 143.18,297.06 C145.98,295.94 149.33,289.79 154.93,289.79 C158.2,289.79 158.1,295.11 162.44,292.42 C169.94,294.49 181.52,295.16 196.22,293.77 C211.55,292.33 250.26,278.91 273.48,260.26z "/><path id="_R_G_L_5_G_D_51_P_0" stroke="#1d4368" stroke-linecap="round" stroke-linejoin="round" fill="none" stroke-width="1.065" stroke-opacity="1" d=" M164.81 244.46 C164.81,244.46 165.14,285.67 165.14,285.67 "/><path id="_R_G_L_5_G_D_52_P_0" stroke="#1d4368" stroke-linecap="round" stroke-linejoin="round" fill="none" stroke-width="1.065" stroke-opacity="1" d=" M171.9 242.77 C171.9,242.77 173.93,250.2 172.58,253.92 C171.22,257.63 165.15,262.36 165.15,262.36 "/><path id="_R_G_L_5_G_D_53_P_0" fill="#e9b59a" fill-opacity="1" fill-rule="nonzero" d=" M69.19 224.67 C60.25,223.44 39.53,230.27 46.25,248.18 C52.96,266.08 82.45,279.72 93.87,285.68 C117.18,297.84 147.21,303.21 153.37,304.89 C159.52,306.57 171.83,313.28 179.11,314.4 C186.39,315.52 204.85,310.49 211.57,310.49 C218.28,310.49 222.76,316.08 226.12,314.4 C229.48,312.73 228.36,306.01 226.12,304.89 C226.12,304.89 227.8,300.41 223.32,298.18 C218.84,295.94 216.05,294.26 211.01,294.82 C205.97,295.38 187.5,298.18 184.71,297.06 C181.91,295.94 178.55,289.78 172.96,289.78 C167.36,289.78 162.12,288.66 146.45,276.91 C130.63,265.04 101.65,229.15 69.19,224.67z "/><path id="_R_G_L_5_G_D_54_P_0" fill="#d39173" fill-opacity="1" fill-rule="nonzero" d=" M46.38 235.75 C48.6,234.45 51.32,233.45 54.63,233.05 C66.49,231.61 72.85,227.43 87.98,230.35 C81.88,227.56 75.65,225.53 69.41,224.67 C62.95,223.78 50.36,227.1 46.38,235.75z "/></g><g id="_R_G_L_4_G"><path id="_R_G_L_4_G_D_0_P_0" fill="#00abac" fill-opacity="1" fill-rule="nonzero" d=" M19.03 7.61 C19.03,7.61 17.87,10.21 17.87,10.21 C17.87,10.21 16.99,9.82 16.99,9.82 C16.99,9.82 18.15,7.22 18.15,7.22 C18.15,7.22 19.03,7.61 19.03,7.61z "/><path id="_R_G_L_4_G_D_1_P_0" fill="#00abac" fill-opacity="1" fill-rule="nonzero" d=" M41.57 17.98 C41.57,17.98 40.77,19.77 40.77,19.77 C40.77,19.77 34.28,17.26 34.28,17.26 C34.28,17.26 35.34,14.87 35.34,14.87 C35.34,14.87 41.57,17.98 41.57,17.98z "/><path id="_R_G_L_4_G_D_2_P_0" fill="#414042" fill-opacity="1" fill-rule="nonzero" d=" M47.06 21.29 C47.06,21.29 46.96,21.51 46.96,21.51 C46.96,21.51 45.15,20.98 45.15,20.98 C45.15,20.98 45.44,20.32 45.44,20.32 C45.44,20.32 47.06,21.29 47.06,21.29z "/><path id="_R_G_L_4_G_D_3_P_0" fill="#00abac" fill-opacity="1" fill-rule="nonzero" d=" M1.02 0.25 C1.02,0.25 3.58,0.98 3.58,0.98 C3.58,0.98 2.51,3.36 2.51,3.36 C2.51,3.36 0.25,1.99 0.25,1.99 C0.25,1.99 1.02,0.25 1.02,0.25z "/><path id="_R_G_L_4_G_D_4_P_0" fill="#ffffff" fill-opacity="1" fill-rule="nonzero" d=" M35.34 14.87 C35.34,14.87 34.28,17.26 34.28,17.26 C34.28,17.26 17.94,10.05 17.94,10.05 C17.94,10.05 18.96,7.77 18.96,7.77 C18.96,7.77 35.34,14.87 35.34,14.87z "/><path id="_R_G_L_4_G_D_5_P_0" stroke="#9cdedf" stroke-linecap="round" stroke-linejoin="round" fill="none" stroke-width="0.2" stroke-opacity="1" d=" M35.34 14.87 C35.34,14.87 34.28,17.26 34.28,17.26 C34.28,17.26 17.94,10.05 17.94,10.05 C17.94,10.05 18.96,7.77 18.96,7.77 C18.96,7.77 35.34,14.87 35.34,14.87z "/><path id="_R_G_L_4_G_D_6_P_0" fill="#dbf3f3" fill-opacity="1" fill-rule="nonzero" d=" M18.15 7.22 C18.15,7.22 16.99,9.83 16.99,9.83 C16.99,9.83 2.51,3.36 2.51,3.36 C2.51,3.36 3.58,0.98 3.58,0.98 C3.58,0.98 18.15,7.22 18.15,7.22z "/><path id="_R_G_L_4_G_D_7_P_0" fill="#cfefef" fill-opacity="1" fill-rule="nonzero" d=" M45.49 20.22 C45.49,20.22 45.1,21.08 45.1,21.08 C45.1,21.08 40.77,19.77 40.77,19.77 C40.77,19.77 41.57,17.98 41.57,17.98 C41.57,17.98 45.49,20.22 45.49,20.22z "/><path id="_R_G_L_4_G_D_8_P_0" fill="#00abac" fill-opacity="1" fill-rule="nonzero" d=" M0.57 1.27 C0.57,1.27 0.25,1.99 0.25,1.99 C0.25,1.99 2.51,3.37 2.51,3.37 C2.51,3.37 16.99,9.83 16.99,9.83 C16.99,9.83 17.87,10.21 17.87,10.21 C17.87,10.21 17.94,10.05 17.94,10.05 C17.94,10.05 17.94,10.05 17.94,10.05 C17.94,10.05 34.28,17.26 34.28,17.26 C34.28,17.26 40.77,19.77 40.77,19.77 C40.77,19.77 45.1,21.09 45.1,21.09 C45.1,21.09 45.15,20.98 45.15,20.98 C45.15,20.98 46.96,21.51 46.96,21.51 C46.96,21.51 47.03,21.36 47.03,21.36 C47.03,21.36 0.57,1.27 0.57,1.27z "/></g><g id="_R_G_L_3_G"><path id="_R_G_L_3_G_D_0_P_0" fill="#00abac" fill-opacity="1" fill-rule="nonzero" d=" M19.11 25.54 C15.52,25.54 12.03,24.55 9.25,22.74 C9.25,22.74 1.13,24.76 1.13,24.76 C0.87,24.83 0.6,24.73 0.43,24.52 C0.27,24.31 0.25,24.02 0.38,23.78 C0.38,23.78 4.22,16.93 4.22,16.93 C3.68,15.63 3.4,14.28 3.4,12.9 C3.4,9.49 5.06,6.3 8.06,3.9 C11.02,1.55 14.94,0.25 19.11,0.25 C23.28,0.25 27.2,1.55 30.16,3.9 C33.16,6.3 34.82,9.49 34.82,12.9 C34.82,16.3 33.16,19.5 30.16,21.89 C27.2,24.25 23.28,25.54 19.11,25.54z  M9.37 21.35 C9.51,21.35 9.64,21.39 9.75,21.46 C12.35,23.23 15.68,24.2 19.11,24.2 C27.03,24.2 33.47,19.13 33.47,12.9 C33.47,6.67 27.03,1.6 19.11,1.6 C11.19,1.6 4.75,6.67 4.75,12.9 C4.75,14.2 5.03,15.47 5.58,16.69 C5.67,16.88 5.66,17.11 5.56,17.3 C5.56,17.3 2.32,23.08 2.32,23.08 C2.32,23.08 9.21,21.37 9.21,21.37 C9.27,21.35 9.32,21.35 9.37,21.35z "/><path id="_R_G_L_3_G_D_1_P_0" fill="#00abac" fill-opacity="1" fill-rule="nonzero" d=" M26.01 16.04 C24.45,16.04 23.17,14.77 23.17,13.21 C23.17,11.65 24.45,10.37 26.01,10.37 C27.57,10.37 28.84,11.65 28.84,13.21 C28.84,14.77 27.57,16.04 26.01,16.04z  M26.01 11.69 C25.17,11.69 24.49,12.37 24.49,13.21 C24.49,14.05 25.17,14.73 26.01,14.73 C26.84,14.73 27.53,14.05 27.53,13.21 C27.53,12.37 26.84,11.69 26.01,11.69z "/><path id="_R_G_L_3_G_D_2_P_0" fill="#00abac" fill-opacity="1" fill-rule="nonzero" d=" M19.12 16.04 C17.56,16.04 16.29,14.77 16.29,13.21 C16.29,11.65 17.56,10.37 19.12,10.37 C20.68,10.37 21.95,11.65 21.95,13.21 C21.95,14.77 20.68,16.04 19.12,16.04z  M19.12 11.69 C18.28,11.69 17.6,12.37 17.6,13.21 C17.6,14.05 18.28,14.73 19.12,14.73 C19.96,14.73 20.64,14.05 20.64,13.21 C20.64,12.37 19.96,11.69 19.12,11.69z "/><path id="_R_G_L_3_G_D_3_P_0" fill="#00abac" fill-opacity="1" fill-rule="nonzero" d=" M12.23 16.04 C10.67,16.04 9.4,14.77 9.4,13.21 C9.4,11.65 10.67,10.37 12.23,10.37 C13.8,10.37 15.07,11.65 15.07,13.21 C15.07,14.77 13.8,16.04 12.23,16.04z  M12.23 11.69 C11.4,11.69 10.72,12.37 10.72,13.21 C10.72,14.05 11.4,14.73 12.23,14.73 C13.07,14.73 13.75,14.05 13.75,13.21 C13.75,12.37 13.07,11.69 12.23,11.69z "/></g><g id="_R_G_L_2_G"><path id="_R_G_L_2_G_D_0_P_0" fill="#f1f2f2" fill-opacity="1" fill-rule="nonzero" d=" M72.4 16.18 C72.4,16.18 34.67,0.25 34.67,0.25 C34.67,0.25 19,13.99 14.7,19.58 C10.12,25.53 0.25,45.6 0.25,45.6 C0.25,45.6 30.56,57.83 30.56,57.83 C30.56,57.83 34.8,59.45 34.8,59.45 C34.8,59.45 42.84,56.31 42.84,56.31 C42.84,56.31 50.66,40.26 53.34,37.55 C58.34,32.5 72.4,16.18 72.4,16.18z "/><path id="_R_G_L_2_G_D_1_P_0" fill="#ffffff" fill-opacity="1" fill-rule="nonzero" d=" M72.4 16.18 C72.4,16.18 34.67,0.25 34.67,0.25 C34.67,0.25 19,13.99 14.7,19.58 C14.38,20 14.03,20.49 13.66,21.03 C24.99,25.57 47.52,35.68 52.17,38.26 C52.29,38.33 52.43,38.38 52.58,38.42 C52.85,38.08 53.1,37.79 53.34,37.55 C58.34,32.5 72.4,16.18 72.4,16.18z "/><path id="_R_G_L_2_G_D_2_P_0" fill="#87adad" fill-opacity="1" fill-rule="nonzero" d=" M61.95 18.36 C61.95,18.36 35.53,7.21 35.53,7.21 C35.53,7.21 33.84,9.26 33.13,9.5 C33.13,9.5 59.75,20.55 60.23,20.04 C60.23,20.04 61.95,18.36 61.95,18.36z "/><path id="_R_G_L_2_G_D_3_P_0" fill="#87adad" fill-opacity="1" fill-rule="nonzero" d=" M56.76 23.81 C56.76,23.81 30.34,12.66 30.34,12.66 C30.34,12.66 27.93,14.95 27.93,14.95 C27.93,14.95 54.51,25.94 54.51,25.94 C54.51,25.94 56.76,23.81 56.76,23.81z "/><path id="_R_G_L_2_G_D_4_P_0" fill="#87adad" fill-opacity="1" fill-rule="nonzero" d=" M51.2 29.63 C51.2,29.63 24.78,18.48 24.78,18.48 C24.78,18.48 22.37,20.77 22.37,20.77 C22.37,20.77 48.95,31.76 48.95,31.76 C48.95,31.76 51.2,29.63 51.2,29.63z "/><path id="_R_G_L_2_G_D_5_P_0" fill="#87adad" fill-opacity="1" fill-rule="nonzero" d=" M45.35 36.66 C45.35,36.66 18.93,25.51 18.93,25.51 C18.93,25.51 17.1,28.23 17.1,28.23 C17.1,28.23 43.68,39.22 43.68,39.22 C43.68,39.22 45.35,36.66 45.35,36.66z "/><path id="_R_G_L_2_G_D_6_P_0" fill="#87adad" fill-opacity="1" fill-rule="nonzero" d=" M41.46 43.3 C41.46,43.3 15.04,32.14 15.04,32.14 C15.04,32.14 13.21,34.87 13.21,34.87 C13.21,34.87 39.78,45.86 39.78,45.86 C39.78,45.86 41.46,43.3 41.46,43.3z "/><path id="_R_G_L_2_G_D_7_P_0" fill="#939598" fill-opacity="1" fill-rule="nonzero" d=" M38.04 54.99 C38.04,54.99 34.8,59.45 34.8,59.45 C34.8,59.45 42.84,56.31 42.84,56.31 C42.84,56.31 38.04,54.99 38.04,54.99z "/></g><g id="_R_G_L_1_G"><path id="_R_G_L_1_G_D_0_P_0" fill="#1a2e35" fill-opacity="1" fill-rule="nonzero" d=" M48.34 36.91 C48.34,36.91 37.66,49.52 37.66,49.52 C36.37,51.03 34.14,51.1 32.66,49.67 C32.66,49.67 1.88,19.79 1.88,19.79 C0.41,18.36 0.25,15.97 1.54,14.45 C1.54,14.45 12.22,1.83 12.22,1.83 C13.5,0.32 15.74,0.25 17.22,1.68 C17.22,1.68 47.99,31.56 47.99,31.56 C49.47,32.99 49.62,35.39 48.34,36.91z "/><path id="_R_G_L_1_G_D_1_P_0" fill="#ffffff" fill-opacity="1" fill-rule="nonzero" d=" M13.29 2.9 C13.29,2.9 11.22,5.35 11.22,5.35 C10.95,5.68 10.99,6.21 11.33,6.53 C11.33,6.53 11.76,6.95 11.76,6.95 C12.09,7.27 12.14,7.8 11.86,8.13 C11.86,8.13 7.82,12.9 7.82,12.9 C7.54,13.22 7.05,13.23 6.71,12.9 C6.71,12.9 6.28,12.49 6.28,12.49 C5.95,12.16 5.45,12.16 5.18,12.49 C5.18,12.49 4.45,13.35 4.45,13.35 C4.45,13.35 2.63,15.49 2.63,15.49 C1.73,16.55 1.84,18.23 2.88,19.24 C2.88,19.24 32.92,48.4 32.92,48.4 C33.95,49.4 35.52,49.35 36.42,48.29 C36.42,48.29 47.08,35.7 47.08,35.7 C47.98,34.64 47.87,32.96 46.83,31.96 C46.83,31.96 16.8,2.8 16.8,2.8 C15.76,1.8 14.19,1.84 13.29,2.9z "/><path id="_R_G_L_1_G_D_2_P_0" fill="#1a2e35" fill-opacity="1" fill-rule="nonzero" d=" M16.64 5.48 C16.65,5.48 16.39,5.81 16.06,6.21 C15.73,6.6 15.46,6.92 15.45,6.91 C15.44,6.9 15.7,6.57 16.03,6.18 C16.36,5.78 16.64,5.47 16.64,5.48z "/><path id="_R_G_L_1_G_D_3_P_0" fill="#1a2e35" fill-opacity="1" fill-rule="nonzero" d=" M17 5.82 C17.01,5.82 16.75,6.15 16.42,6.55 C16.09,6.94 15.82,7.26 15.81,7.25 C15.8,7.24 16.06,6.91 16.39,6.52 C16.72,6.12 16.99,5.81 17,5.82z "/><path id="_R_G_L_1_G_D_4_P_0" fill="#1a2e35" fill-opacity="1" fill-rule="nonzero" d=" M17.36 6.16 C17.36,6.16 17.1,6.49 16.78,6.89 C16.45,7.28 16.17,7.6 16.16,7.59 C16.16,7.58 16.42,7.26 16.75,6.86 C17.08,6.46 17.35,6.15 17.36,6.16z "/><path id="_R_G_L_1_G_D_5_P_0" fill="#1a2e35" fill-opacity="1" fill-rule="nonzero" d=" M6.82 19.48 C6.82,19.48 6.83,19.47 6.84,19.45 C6.86,19.43 6.88,19.4 6.91,19.37 C6.97,19.29 7.06,19.18 7.16,19.06 C7.16,19.06 7.16,19.07 7.16,19.07 C7.09,19.01 7.02,18.94 6.94,18.87 C6.9,18.83 6.86,18.8 6.82,18.75 C6.78,18.7 6.78,18.61 6.81,18.56 C6.86,18.51 6.89,18.46 6.94,18.41 C6.99,18.36 7.08,18.37 7.13,18.42 C7.24,18.52 7.34,18.62 7.45,18.72 C7.45,18.72 7.43,18.72 7.43,18.72 C7.53,18.6 7.63,18.47 7.74,18.34 C7.74,18.34 7.75,18.37 7.75,18.37 C7.6,18.22 7.44,18.07 7.28,17.92 C7.24,17.88 7.2,17.84 7.16,17.81 C7.12,17.77 7.08,17.77 7.03,17.78 C6.92,17.78 6.82,17.78 6.72,17.79 C6.63,17.79 6.53,17.79 6.43,17.8 C6.39,17.8 6.34,17.8 6.29,17.8 C6.24,17.81 6.2,17.8 6.17,17.83 C6.13,17.85 6.11,17.89 6.11,17.93 C6.11,17.97 6.11,18.02 6.12,18.07 C6.12,18.16 6.13,18.25 6.14,18.34 C6.15,18.51 6.15,18.67 6.17,18.81 C6.19,18.88 6.25,18.92 6.3,18.97 C6.34,19.01 6.39,19.05 6.43,19.09 C6.51,19.17 6.58,19.24 6.64,19.3 C6.69,19.35 6.74,19.4 6.77,19.43 C6.8,19.46 6.82,19.48 6.82,19.48 C6.82,19.48 6.8,19.47 6.77,19.44 C6.74,19.41 6.69,19.37 6.64,19.32 C6.57,19.26 6.5,19.19 6.42,19.12 C6.38,19.08 6.33,19.03 6.28,18.99 C6.26,18.96 6.23,18.94 6.21,18.92 C6.18,18.89 6.16,18.86 6.15,18.82 C6.12,18.67 6.12,18.51 6.1,18.34 C6.1,18.25 6.09,18.16 6.08,18.07 C6.08,18.02 6.07,17.98 6.07,17.93 C6.08,17.87 6.1,17.82 6.15,17.79 C6.19,17.76 6.24,17.77 6.29,17.76 C6.34,17.76 6.38,17.76 6.43,17.76 C6.53,17.75 6.62,17.75 6.72,17.75 C6.82,17.74 6.92,17.74 7.02,17.73 C7.05,17.73 7.07,17.73 7.1,17.73 C7.13,17.74 7.16,17.75 7.19,17.78 C7.23,17.81 7.26,17.85 7.3,17.89 C7.46,18.04 7.62,18.19 7.77,18.34 C7.77,18.34 7.79,18.35 7.79,18.35 C7.79,18.35 7.77,18.37 7.77,18.37 C7.66,18.5 7.56,18.63 7.45,18.75 C7.45,18.75 7.44,18.76 7.44,18.76 C7.44,18.76 7.43,18.75 7.43,18.75 C7.32,18.65 7.21,18.55 7.11,18.45 C7.07,18.4 7,18.4 6.96,18.44 C6.92,18.48 6.88,18.53 6.84,18.58 C6.81,18.62 6.81,18.69 6.84,18.73 C6.88,18.77 6.92,18.81 6.96,18.85 C7.04,18.92 7.11,18.99 7.17,19.06 C7.17,19.06 7.18,19.06 7.18,19.06 C7.18,19.06 7.18,19.07 7.18,19.07 C7.07,19.2 6.98,19.3 6.91,19.38 C6.88,19.41 6.86,19.44 6.84,19.46 C6.83,19.48 6.82,19.48 6.82,19.48z "/><path id="_R_G_L_1_G_D_6_P_0" fill="#f5f5f5" fill-opacity="1" fill-rule="nonzero" d=" M21.07 11.78 C21.07,11.78 11.45,23.15 11.45,23.15 C10.97,23.71 10.13,23.74 9.58,23.2 C9.58,23.2 9.21,22.84 9.21,22.84 C8.65,22.31 8.59,21.41 9.08,20.84 C9.08,20.84 18.69,9.47 18.69,9.47 C19.17,8.91 20.01,8.88 20.56,9.42 C20.56,9.42 20.94,9.78 20.94,9.78 C21.49,10.32 21.55,11.21 21.07,11.78z "/><path id="_R_G_L_1_G_D_7_P_0" fill="#1a2e35" fill-opacity="1" fill-rule="nonzero" d=" M21.07 11.78 C21.07,11.78 21.09,11.75 21.13,11.7 C21.16,11.64 21.22,11.56 21.27,11.43 C21.32,11.31 21.37,11.15 21.38,10.95 C21.39,10.75 21.36,10.52 21.26,10.28 C21.21,10.16 21.14,10.04 21.05,9.93 C20.96,9.82 20.85,9.72 20.74,9.61 C20.63,9.5 20.51,9.38 20.38,9.29 C20.24,9.19 20.09,9.12 19.92,9.08 C19.58,9.01 19.19,9.07 18.89,9.32 C18.73,9.44 18.61,9.61 18.47,9.77 C18.34,9.93 18.2,10.09 18.05,10.26 C15.76,12.98 12.6,16.72 9.1,20.86 C8.89,21.11 8.77,21.46 8.79,21.8 C8.8,22.14 8.93,22.48 9.15,22.73 C9.26,22.86 9.39,22.97 9.51,23.09 C9.63,23.21 9.75,23.32 9.9,23.4 C10.18,23.55 10.51,23.59 10.8,23.52 C10.95,23.48 11.09,23.41 11.21,23.32 C11.34,23.23 11.44,23.12 11.54,22.99 C11.74,22.76 11.94,22.52 12.14,22.28 C12.54,21.82 12.92,21.36 13.3,20.91 C14.82,19.12 16.19,17.51 17.34,16.15 C18.49,14.8 19.42,13.71 20.06,12.95 C20.38,12.57 20.63,12.28 20.8,12.08 C20.89,11.98 20.95,11.91 21,11.85 C21.04,11.8 21.07,11.78 21.07,11.78 C21.07,11.78 21.05,11.81 21,11.86 C20.96,11.91 20.9,11.99 20.81,12.09 C20.64,12.29 20.4,12.59 20.08,12.97 C19.44,13.73 18.51,14.83 17.37,16.18 C16.23,17.54 14.86,19.16 13.35,20.95 C12.97,21.4 12.58,21.86 12.19,22.33 C11.99,22.56 11.79,22.8 11.58,23.04 C11.48,23.16 11.38,23.28 11.25,23.38 C11.12,23.47 10.98,23.54 10.82,23.58 C10.51,23.66 10.17,23.62 9.87,23.46 C9.72,23.38 9.59,23.26 9.47,23.14 C9.35,23.02 9.22,22.91 9.11,22.78 C8.87,22.52 8.73,22.16 8.72,21.8 C8.71,21.44 8.83,21.08 9.05,20.82 C12.55,16.68 15.72,12.94 18.02,10.23 C18.16,10.06 18.3,9.89 18.44,9.73 C18.58,9.58 18.7,9.41 18.86,9.28 C19.18,9.03 19.58,8.96 19.92,9.05 C20.1,9.08 20.26,9.16 20.4,9.26 C20.54,9.36 20.65,9.48 20.76,9.59 C20.87,9.7 20.98,9.8 21.07,9.91 C21.16,10.02 21.23,10.15 21.28,10.27 C21.38,10.51 21.41,10.75 21.4,10.95 C21.38,11.15 21.33,11.32 21.28,11.44 C21.23,11.56 21.17,11.65 21.13,11.7 C21.09,11.75 21.07,11.78 21.07,11.78z "/><path id="_R_G_L_1_G_D_8_P_0" fill="#1a2e35" fill-opacity="1" fill-rule="nonzero" d=" M20 10.36 C19.99,10.37 19.95,10.33 19.87,10.29 C19.79,10.24 19.66,10.2 19.51,10.23 C19.36,10.26 19.19,10.37 19.12,10.58 C19.04,10.77 19.09,11.05 19.27,11.22 C19.45,11.4 19.71,11.42 19.88,11.32 C20.06,11.22 20.16,11.03 20.17,10.87 C20.18,10.7 20.13,10.57 20.08,10.49 C20.03,10.41 19.99,10.37 20,10.36 C20,10.36 20.01,10.37 20.03,10.39 C20.05,10.4 20.07,10.43 20.1,10.47 C20.16,10.55 20.22,10.69 20.21,10.87 C20.21,11.05 20.11,11.27 19.91,11.38 C19.72,11.49 19.43,11.47 19.23,11.27 C19.02,11.08 18.97,10.77 19.06,10.55 C19.15,10.33 19.34,10.2 19.5,10.18 C19.67,10.16 19.81,10.21 19.89,10.26 C19.93,10.29 19.95,10.31 19.97,10.33 C19.99,10.35 20,10.36 20,10.36z "/><path id="_R_G_L_1_G_D_9_P_0" fill="#1a2e35" fill-opacity="1" fill-rule="nonzero" d=" M20.95 10.84 C20.95,10.86 20.78,10.87 20.57,10.87 C20.36,10.87 20.19,10.85 20.19,10.83 C20.19,10.81 20.36,10.8 20.57,10.8 C20.78,10.8 20.95,10.82 20.95,10.84z "/><path id="_R_G_L_1_G_D_10_P_0" fill="#e1e1e1" fill-opacity="1" fill-rule="nonzero" d=" M10.69 20.98 C10.69,20.98 10.49,21.22 10.49,21.22 C10.49,21.22 10.43,21.16 10.43,21.16 C10.43,21.16 10.89,20.61 10.89,20.61 C10.89,20.61 10.95,20.67 10.95,20.67 C10.95,20.67 10.75,20.91 10.75,20.91 C10.75,20.91 11.35,21.49 11.35,21.49 C11.35,21.49 11.29,21.56 11.29,21.56 C11.29,21.56 10.69,20.98 10.69,20.98z "/><path id="_R_G_L_1_G_D_11_P_0" fill="#e1e1e1" fill-opacity="1" fill-rule="nonzero" d=" M11.74 20.54 C11.74,20.54 11.38,20.97 11.38,20.97 C11.49,21.06 11.63,21.04 11.73,20.93 C11.78,20.87 11.8,20.79 11.79,20.71 C11.79,20.71 11.87,20.72 11.87,20.72 C11.88,20.81 11.85,20.91 11.78,20.99 C11.65,21.15 11.45,21.16 11.3,21.02 C11.15,20.87 11.14,20.66 11.26,20.52 C11.38,20.38 11.57,20.37 11.72,20.52 C11.73,20.52 11.74,20.53 11.74,20.54z  M11.33 20.92 C11.33,20.92 11.64,20.55 11.64,20.55 C11.53,20.47 11.4,20.47 11.32,20.58 C11.23,20.67 11.24,20.81 11.33,20.92z "/><path id="_R_G_L_1_G_D_12_P_0" fill="#e1e1e1" fill-opacity="1" fill-rule="nonzero" d=" M12.36 20.31 C12.36,20.31 12.01,20.27 12.01,20.27 C12.01,20.27 12.08,20.63 12.08,20.63 C12.08,20.63 12.01,20.71 12.01,20.71 C12.01,20.71 11.93,20.26 11.93,20.26 C11.93,20.26 11.52,20.22 11.52,20.22 C11.52,20.22 11.59,20.14 11.59,20.14 C11.59,20.14 11.92,20.17 11.92,20.17 C11.92,20.17 11.85,19.83 11.85,19.83 C11.85,19.83 11.91,19.76 11.91,19.76 C11.91,19.76 11.99,20.18 11.99,20.18 C11.99,20.18 12.42,20.23 12.42,20.23 C12.42,20.23 12.36,20.31 12.36,20.31z "/><path id="_R_G_L_1_G_D_13_P_0" fill="#e1e1e1" fill-opacity="1" fill-rule="nonzero" d=" M12.72 19.81 C12.72,19.86 12.69,19.92 12.66,19.95 C12.58,20.05 12.48,20.05 12.39,19.96 C12.39,19.96 12.09,19.67 12.09,19.67 C12.09,19.67 12.01,19.76 12.01,19.76 C12.01,19.76 11.95,19.71 11.95,19.71 C11.95,19.71 12.03,19.62 12.03,19.62 C12.03,19.62 11.92,19.51 11.92,19.51 C11.92,19.51 11.98,19.44 11.98,19.44 C11.98,19.44 12.09,19.55 12.09,19.55 C12.09,19.55 12.22,19.39 12.22,19.39 C12.22,19.39 12.28,19.45 12.28,19.45 C12.28,19.45 12.15,19.6 12.15,19.6 C12.15,19.6 12.44,19.89 12.44,19.89 C12.5,19.95 12.56,19.95 12.61,19.89 C12.63,19.86 12.65,19.83 12.65,19.79 C12.65,19.79 12.72,19.81 12.72,19.81z "/><path id="_R_G_L_1_G_D_14_P_0" fill="#4a90e2" fill-opacity="1" fill-rule="nonzero" d=" M18.36 25.34 C18.36,25.34 15.88,28.28 15.88,28.28 C15.88,28.28 13.02,25.51 13.02,25.51 C13.02,25.51 15.5,22.57 15.5,22.57 C15.5,22.57 18.36,25.34 18.36,25.34z "/><path id="_R_G_L_1_G_D_15_P_0" fill="#4a90e2" fill-opacity="1" fill-rule="nonzero" d=" M20.59 17.21 C20.6,17.23 19.78,18.22 18.76,19.43 C17.73,20.64 16.89,21.61 16.88,21.6 C16.86,21.59 17.68,20.6 18.71,19.38 C19.74,18.17 20.58,17.2 20.59,17.21z "/><path id="_R_G_L_1_G_D_16_P_0" fill="#1a2e35" fill-opacity="1" fill-rule="nonzero" d=" M24.43 14.56 C24.44,14.58 22.96,16.35 21.12,18.53 C19.27,20.71 17.77,22.46 17.76,22.45 C17.74,22.44 19.22,20.66 21.07,18.48 C22.91,16.31 24.41,14.55 24.43,14.56z "/><path id="_R_G_L_1_G_D_17_P_0" fill="#1a2e35" fill-opacity="1" fill-rule="nonzero" d=" M24.97 15.26 C24.99,15.28 23.52,17.03 21.7,19.18 C19.88,21.34 18.39,23.07 18.38,23.06 C18.37,23.05 19.83,21.29 21.65,19.14 C23.47,16.99 24.96,15.25 24.97,15.26z "/><path id="_R_G_L_1_G_D_18_P_0" fill="#1a2e35" fill-opacity="1" fill-rule="nonzero" d=" M22.87 19.04 C22.88,19.05 22.02,20.09 20.95,21.36 C19.87,22.63 18.99,23.65 18.98,23.64 C18.96,23.63 19.82,22.58 20.9,21.31 C21.97,20.04 22.86,19.02 22.87,19.04z "/><path id="_R_G_L_1_G_D_19_P_0" fill="#4a90e2" fill-opacity="1" fill-rule="nonzero" d=" M23.12 29.96 C23.12,29.96 20.64,32.9 20.64,32.9 C20.64,32.9 17.78,30.13 17.78,30.13 C17.78,30.13 20.26,27.19 20.26,27.19 C20.26,27.19 23.12,29.96 23.12,29.96z "/><path id="_R_G_L_1_G_D_20_P_0" fill="#4a90e2" fill-opacity="1" fill-rule="nonzero" d=" M25.35 21.83 C25.37,21.85 24.55,22.84 23.52,24.05 C22.5,25.26 21.66,26.24 21.64,26.22 C21.63,26.21 22.45,25.22 23.47,24.01 C24.5,22.79 25.34,21.82 25.35,21.83z "/><path id="_R_G_L_1_G_D_21_P_0" fill="#1a2e35" fill-opacity="1" fill-rule="nonzero" d=" M29.19 19.19 C29.2,19.2 27.72,20.98 25.88,23.15 C24.04,25.33 22.53,27.09 22.52,27.07 C22.5,27.06 23.99,25.28 25.83,23.11 C27.67,20.93 29.18,19.17 29.19,19.19z "/><path id="_R_G_L_1_G_D_22_P_0" fill="#1a2e35" fill-opacity="1" fill-rule="nonzero" d=" M29.74 19.89 C29.75,19.9 28.29,21.65 26.47,23.81 C24.64,25.96 23.16,27.69 23.14,27.68 C23.13,27.67 24.59,25.91 26.42,23.76 C28.24,21.61 29.72,19.87 29.74,19.89z "/><path id="_R_G_L_1_G_D_23_P_0" fill="#1a2e35" fill-opacity="1" fill-rule="nonzero" d=" M27.63 23.66 C27.65,23.67 26.79,24.71 25.71,25.98 C24.64,27.25 23.75,28.27 23.74,28.26 C23.73,28.25 24.59,27.21 25.66,25.93 C26.74,24.66 27.62,23.64 27.63,23.66z "/><path id="_R_G_L_1_G_D_24_P_0" fill="#4a90e2" fill-opacity="1" fill-rule="nonzero" d=" M27.89 34.59 C27.89,34.59 25.4,37.52 25.4,37.52 C25.4,37.52 22.54,34.75 22.54,34.75 C22.54,34.75 25.03,31.81 25.03,31.81 C25.03,31.81 27.89,34.59 27.89,34.59z "/><path id="_R_G_L_1_G_D_25_P_0" fill="#4a90e2" fill-opacity="1" fill-rule="nonzero" d=" M30.12 26.46 C30.13,26.47 29.31,27.46 28.29,28.67 C27.26,29.89 26.42,30.86 26.41,30.85 C26.39,30.83 27.21,29.84 28.24,28.63 C29.26,27.42 30.1,26.44 30.12,26.46z "/><path id="_R_G_L_1_G_D_26_P_0" fill="#1a2e35" fill-opacity="1" fill-rule="nonzero" d=" M33.95 23.81 C33.97,23.82 32.48,25.6 30.64,27.78 C28.8,29.95 27.29,31.71 27.28,31.7 C27.27,31.68 28.75,29.91 30.59,27.73 C32.44,25.55 33.94,23.8 33.95,23.81z "/><path id="_R_G_L_1_G_D_27_P_0" fill="#1a2e35" fill-opacity="1" fill-rule="nonzero" d=" M34.5 24.51 C34.51,24.52 33.05,26.28 31.23,28.43 C29.41,30.58 27.92,32.32 27.91,32.3 C27.89,32.29 29.36,30.54 31.18,28.38 C33,26.23 34.49,24.49 34.5,24.51z "/><path id="_R_G_L_1_G_D_28_P_0" fill="#1a2e35" fill-opacity="1" fill-rule="nonzero" d=" M32.4 28.28 C32.41,28.29 31.55,29.33 30.48,30.61 C29.4,31.88 28.52,32.9 28.5,32.88 C28.49,32.87 29.35,31.83 30.43,30.56 C31.5,29.29 32.38,28.27 32.4,28.28z "/><path id="_R_G_L_1_G_D_29_P_0" fill="#4a90e2" fill-opacity="1" fill-rule="nonzero" d=" M32.65 39.21 C32.65,39.21 30.16,42.15 30.16,42.15 C30.16,42.15 27.3,39.37 27.3,39.37 C27.3,39.37 29.79,36.43 29.79,36.43 C29.79,36.43 32.65,39.21 32.65,39.21z "/><path id="_R_G_L_1_G_D_30_P_0" fill="#375a64" fill-opacity="1" fill-rule="nonzero" d=" M34.88 31.08 C34.89,31.09 34.07,32.08 33.05,33.3 C32.02,34.51 31.18,35.48 31.17,35.47 C31.15,35.45 31.97,34.46 33,33.25 C34.03,32.04 34.87,31.07 34.88,31.08z "/><path id="_R_G_L_1_G_D_31_P_0" fill="#1a2e35" fill-opacity="1" fill-rule="nonzero" d=" M38.72 28.43 C38.73,28.44 37.25,30.22 35.4,32.4 C33.56,34.58 32.06,36.33 32.04,36.32 C32.03,36.31 33.51,34.53 35.36,32.35 C37.2,30.17 38.7,28.42 38.72,28.43z "/><path id="_R_G_L_1_G_D_32_P_0" fill="#1a2e35" fill-opacity="1" fill-rule="nonzero" d=" M39.26 29.13 C39.28,29.14 37.81,30.9 35.99,33.05 C34.17,35.2 32.68,36.94 32.67,36.92 C32.66,36.91 34.12,35.16 35.94,33 C37.76,30.85 39.25,29.12 39.26,29.13z "/><path id="_R_G_L_1_G_D_33_P_0" fill="#1a2e35" fill-opacity="1" fill-rule="nonzero" d=" M37.16 32.9 C37.17,32.92 36.31,33.96 35.24,35.23 C34.16,36.5 33.28,37.52 33.27,37.51 C33.25,37.49 34.11,36.45 35.19,35.18 C36.26,33.91 37.15,32.89 37.16,32.9z "/><path id="_R_G_L_1_G_D_34_P_0" fill="#e1e1e1" fill-opacity="1" fill-rule="nonzero" d=" M37.41 43.83 C37.41,43.83 34.93,46.77 34.93,46.77 C34.93,46.77 32.07,43.99 32.07,43.99 C32.07,43.99 34.55,41.06 34.55,41.06 C34.55,41.06 37.41,43.83 37.41,43.83z "/><path id="_R_G_L_1_G_D_35_P_0" fill="#e1e1e1" fill-opacity="1" fill-rule="nonzero" d=" M39.64 35.7 C39.66,35.71 38.84,36.71 37.81,37.92 C36.79,39.13 35.94,40.1 35.93,40.09 C35.92,40.08 36.74,39.08 37.76,37.87 C38.79,36.66 39.63,35.69 39.64,35.7z "/><path id="_R_G_L_1_G_D_36_P_0" fill="#ececec" fill-opacity="1" fill-rule="nonzero" d=" M43.48 33.05 C43.49,33.07 42.01,34.84 40.17,37.02 C38.33,39.2 36.82,40.95 36.81,40.94 C36.79,40.93 38.28,39.15 40.12,36.97 C41.96,34.8 43.47,33.04 43.48,33.05z "/><path id="_R_G_L_1_G_D_37_P_0" fill="#ececec" fill-opacity="1" fill-rule="nonzero" d=" M44.03 33.75 C44.04,33.77 42.57,35.52 40.75,37.67 C38.93,39.83 37.45,41.56 37.43,41.55 C37.42,41.54 38.88,39.78 40.71,37.63 C42.53,35.47 44.01,33.74 44.03,33.75z "/><path id="_R_G_L_1_G_D_38_P_0" fill="#ececec" fill-opacity="1" fill-rule="nonzero" d=" M41.92 37.52 C41.94,37.54 41.08,38.58 40,39.85 C38.93,41.12 38.04,42.14 38.03,42.13 C38.02,42.11 38.88,41.07 39.95,39.8 C41.03,38.53 41.91,37.51 41.92,37.52z "/><path id="_R_G_L_1_G_D_39_P_0" fill="#000000" fill-opacity="1" fill-rule="nonzero" d=" M32.65 39.21 C32.65,39.21 30.16,42.15 30.16,42.15 C30.16,42.15 27.3,39.37 27.3,39.37 C27.3,39.37 29.79,36.43 29.79,36.43 C29.79,36.43 32.65,39.21 32.65,39.21z "/><path id="_R_G_L_1_G_D_40_P_0" fill="#000000" fill-opacity="1" fill-rule="nonzero" d=" M23.12 29.96 C23.12,29.96 20.64,32.9 20.64,32.9 C20.64,32.9 17.78,30.13 17.78,30.13 C17.78,30.13 20.26,27.19 20.26,27.19 C20.26,27.19 23.12,29.96 23.12,29.96z "/></g><g id="_R_G_L_0_G"><path id="_R_G_L_0_G_D_0_P_0" fill="#939598" fill-opacity="1" fill-rule="nonzero" d=" M0.78 62.1 C0.78,62.1 0.77,57.48 0.77,57.48 C0.77,57.48 108.23,66.4 108.23,66.4 C108.23,66.4 107.98,71.11 107.98,71.11 C107.98,71.11 0.78,62.1 0.78,62.1z "/><path id="_R_G_L_0_G_D_1_P_0" fill="#a7a9ac" fill-opacity="1" fill-rule="nonzero" d=" M74.06 55.41 C72.23,54.6 69.45,54.08 67.85,54.26 C67.85,54.26 1.85,61.62 1.85,61.62 C0.25,61.8 0.44,62.61 2.27,63.42 C2.27,63.42 34.69,77.89 34.69,77.89 C36.51,78.71 39.3,79.22 40.89,79.05 C40.89,79.05 106.89,71.68 106.89,71.68 C108.49,71.5 108.31,70.7 106.48,69.88 C106.48,69.88 74.06,55.41 74.06,55.41z "/><path id="_R_G_L_0_G_D_2_P_0" fill="#d1d3d4" fill-opacity="1" fill-rule="nonzero" d=" M74.06 50.74 C72.23,49.93 69.45,49.41 67.85,49.59 C67.85,49.59 1.85,56.95 1.85,56.95 C0.25,57.13 0.44,57.93 2.27,58.75 C2.27,58.75 34.69,73.22 34.69,73.22 C36.51,74.03 39.3,74.55 40.89,74.37 C40.89,74.37 106.89,67.01 106.89,67.01 C108.49,66.83 108.31,66.02 106.48,65.21 C106.48,65.21 74.06,50.74 74.06,50.74z "/><path id="_R_G_L_0_G_D_3_P_0" fill="#b6c8e1" fill-opacity="1" fill-rule="nonzero" d=" M32.47 63.46 C31.87,68.97 35.07,73.07 39.61,72.62 C39.61,72.62 102.74,66.39 102.74,66.39 C107.27,65.94 111.43,61.11 112.03,55.6 C112.03,55.6 119.34,9.86 119.34,9.86 C119.93,4.35 116.74,0.25 112.2,0.7 C112.2,0.7 46.63,6.93 46.63,6.93 C42.09,7.38 37.93,12.21 37.34,17.72 C37.34,17.72 32.47,63.46 32.47,63.46z "/><path id="_R_G_L_0_G_D_4_P_0" fill="#939598" fill-opacity="1" fill-rule="nonzero" d=" M33.34 63.87 C32.74,69.38 36.97,74.43 41.51,73.98 C41.51,73.98 103.6,66.79 103.6,66.79 C108.14,66.34 112.3,61.51 112.9,56.01 C112.9,56.01 119.54,10.94 119.54,10.94 C120.14,5.43 116.94,1.33 112.4,1.78 C112.4,1.78 47.5,8.02 47.5,8.02 C42.96,8.47 38.8,13.29 38.2,18.8 C38.2,18.8 33.34,63.87 33.34,63.87z "/><path id="_R_G_L_0_G_D_5_P_0" fill="#d1d3d4" fill-opacity="1" fill-rule="nonzero" d=" M36.23 64.9 C35.63,70.41 38.83,74.51 43.36,74.06 C43.36,74.06 106.49,67.82 106.49,67.82 C111.03,67.38 115.19,62.55 115.78,57.04 C115.78,57.04 120.65,11.97 120.65,11.97 C121.25,6.46 118.05,2.36 113.51,2.81 C113.51,2.81 50.39,9.05 50.39,9.05 C45.85,9.5 41.69,14.33 41.09,19.83 C41.09,19.83 36.23,64.9 36.23,64.9z "/><path id="_R_G_L_0_G_D_6_P_0" fill="#ffffff" fill-opacity="1" fill-rule="nonzero" d=" M73.18 39.47 C72.77,43.3 74.99,46.14 78.14,45.83 C81.29,45.52 84.18,42.17 84.59,38.34 C85.01,34.52 82.79,31.67 79.64,31.98 C76.49,32.29 73.6,35.64 73.18,39.47z "/></g></g><g id="time_group"/></svg>