<?xml version="1.0" encoding="utf-8"?>
<!-- Generator: Adobe Illustrator 27.5.0, SVG Export Plug-In . SVG Version: 6.00 Build 0)  -->
<svg version="1.1" id="Слой_1" xmlns="http://www.w3.org/2000/svg" xmlns:xlink="http://www.w3.org/1999/xlink" x="0px" y="0px"
	 viewBox="0 0 680 910" style="enable-background:new 0 0 680 910;" xml:space="preserve">
<style type="text/css">
	.st0{display:none;}
	.st1{display:inline;fill:#FF0000;}
	.st2{display:inline;}
</style>
<g>
	<g class="st0">
		<rect x="737.15" y="901.02" class="st1" width="0.15" height="0.12"/>
		<polygon class="st2" points="737.31,901.02 737.15,901.02 737.15,901.14 737.31,901.14 737.31,901.02 		"/>
	</g>
	<g>
		<g>
			<polygon points="0.11,0.33 685.06,-0.34 685.12,66.34 276.66,67.61 35.82,489.96 274.72,909.06 0.99,909.33 			"/>
			<path d="M684.56,0.16l0.06,65.68l-407.67,1.27l-0.58,0l-0.29,0.5L35.53,489.46l-0.28,0.5l0.28,0.5l238.33,418.11L1.49,908.83
				l-0.89-908L684.56,0.16 M685.55-0.84L-0.39-0.17l0.89,910l275.09-0.27L36.4,489.96L276.95,68.11l408.67-1.27L685.55-0.84
				L685.55-0.84z"/>
		</g>
		<g>
			<polygon points="486.88,489.36 633.21,235.21 684.99,235.05 684.84,742.44 632.63,742.6 			"/>
			<path d="M684.49,235.55l-0.15,506.39l-51.42,0.16L487.45,489.36L633.5,235.71L684.49,235.55 M685.49,234.55l-52.57,0.16
				L486.3,489.36l146.04,253.74l53-0.16L685.49,234.55L685.49,234.55z"/>
		</g>
	</g>
</g>
</svg>
